<svg xmlns="http://www.w3.org/2000/svg" xmlns:xlink="http://www.w3.org/1999/xlink" width="512" zoomAndPan="magnify" viewBox="0 0 384 383.999986" height="512" preserveAspectRatio="xMidYMid meet" version="1.0"><defs><clipPath id="id1"><path d="M 24.730469 27 L 359.230469 27 L 359.230469 357 L 24.730469 357 Z M 24.730469 27 " clip-rule="nonzero"/></clipPath><clipPath id="id2"><path d="M 24.730469 13 L 359.230469 13 L 359.230469 344 L 24.730469 344 Z M 24.730469 13 " clip-rule="nonzero"/></clipPath><clipPath id="id3"><path d="M 24.730469 40 L 359.230469 40 L 359.230469 371 L 24.730469 371 Z M 24.730469 40 " clip-rule="nonzero"/></clipPath></defs><g clip-path="url(#id1)"><path fill="rgb(14.509583%, 13.729858%, 12.939453%)" d="M 192.039062 356.824219 C 189.324219 356.839844 186.609375 356.789062 183.894531 356.675781 C 181.179688 356.558594 178.472656 356.378906 175.765625 356.128906 C 173.058594 355.882812 170.363281 355.566406 167.671875 355.1875 C 164.984375 354.804688 162.304688 354.359375 159.636719 353.847656 C 156.96875 353.335938 154.316406 352.757812 151.675781 352.117188 C 149.035156 351.476562 146.414062 350.769531 143.808594 349.996094 C 141.203125 349.226562 138.617188 348.394531 136.054688 347.496094 C 133.488281 346.597656 130.949219 345.640625 128.433594 344.617188 C 125.914062 343.59375 123.425781 342.511719 120.960938 341.367188 C 118.496094 340.226562 116.0625 339.019531 113.65625 337.757812 C 111.25 336.496094 108.878906 335.171875 106.539062 333.792969 C 104.199219 332.414062 101.894531 330.976562 99.625 329.484375 C 97.355469 327.992188 95.121094 326.445312 92.929688 324.84375 C 90.734375 323.242188 88.582031 321.585938 86.46875 319.878906 C 84.355469 318.171875 82.285156 316.414062 80.257812 314.601562 C 78.230469 312.792969 76.25 310.9375 74.316406 309.03125 C 72.378906 307.125 70.492188 305.171875 68.652344 303.171875 C 66.8125 301.175781 65.023438 299.132812 63.285156 297.046875 C 61.542969 294.957031 59.855469 292.832031 58.21875 290.660156 C 56.585938 288.492188 55.003906 286.285156 53.476562 284.039062 C 51.949219 281.789062 50.480469 279.507812 49.0625 277.1875 C 47.648438 274.871094 46.289062 272.519531 44.992188 270.132812 C 43.691406 267.746094 42.449219 265.332031 41.269531 262.886719 C 40.085938 260.4375 38.964844 257.964844 37.90625 255.464844 C 36.847656 252.960938 35.847656 250.4375 34.910156 247.886719 C 33.976562 245.335938 33.101562 242.765625 32.292969 240.171875 C 31.480469 237.578125 30.734375 234.96875 30.050781 232.339844 C 29.371094 229.707031 28.753906 227.0625 28.199219 224.40625 C 27.648438 221.746094 27.160156 219.074219 26.738281 216.390625 C 26.316406 213.707031 25.960938 211.011719 25.671875 208.3125 C 25.382812 205.609375 25.160156 202.902344 25.003906 200.191406 C 24.84375 197.480469 24.753906 194.765625 24.730469 192.050781 C 24.753906 189.332031 24.84375 186.617188 25.003906 183.90625 C 25.160156 181.195312 25.382812 178.488281 25.671875 175.785156 C 25.960938 173.085938 26.320312 170.394531 26.738281 167.710938 C 27.160156 165.027344 27.648438 162.355469 28.203125 159.695312 C 28.753906 157.035156 29.371094 154.390625 30.054688 151.761719 C 30.738281 149.132812 31.484375 146.519531 32.292969 143.929688 C 33.105469 141.335938 33.976562 138.765625 34.914062 136.214844 C 35.851562 133.664062 36.847656 131.136719 37.910156 128.636719 C 38.96875 126.136719 40.089844 123.664062 41.269531 121.214844 C 42.453125 118.769531 43.695312 116.355469 44.992188 113.96875 C 46.292969 111.582031 47.652344 109.230469 49.066406 106.914062 C 50.480469 104.59375 51.953125 102.3125 53.480469 100.066406 C 55.007812 97.816406 56.589844 95.609375 58.222656 93.441406 C 59.859375 91.273438 61.546875 89.144531 63.285156 87.058594 C 65.027344 84.972656 66.816406 82.929688 68.65625 80.929688 C 70.496094 78.933594 72.382812 76.980469 74.320312 75.074219 C 76.253906 73.167969 78.234375 71.308594 80.261719 69.5 C 82.289062 67.691406 84.359375 65.933594 86.472656 64.226562 C 88.582031 62.519531 90.738281 60.863281 92.929688 59.261719 C 95.125 57.660156 97.355469 56.113281 99.625 54.621094 C 101.894531 53.128906 104.203125 51.691406 106.542969 50.3125 C 108.882812 48.933594 111.253906 47.609375 113.660156 46.347656 C 116.0625 45.085938 118.5 43.882812 120.960938 42.738281 C 123.425781 41.59375 125.917969 40.511719 128.433594 39.488281 C 130.949219 38.46875 133.492188 37.507812 136.054688 36.609375 C 138.621094 35.714844 141.203125 34.878906 143.808594 34.109375 C 146.414062 33.339844 149.035156 32.632812 151.675781 31.988281 C 154.316406 31.347656 156.96875 30.769531 159.636719 30.257812 C 162.304688 29.746094 164.984375 29.300781 167.671875 28.921875 C 170.363281 28.539062 173.0625 28.226562 175.765625 27.976562 C 178.472656 27.730469 181.179688 27.546875 183.894531 27.429688 C 186.609375 27.316406 189.324219 27.265625 192.039062 27.285156 C 194.757812 27.265625 197.472656 27.316406 200.1875 27.429688 C 202.902344 27.546875 205.609375 27.730469 208.316406 27.976562 C 211.019531 28.226562 213.71875 28.539062 216.40625 28.921875 C 219.097656 29.300781 221.777344 29.746094 224.445312 30.257812 C 227.113281 30.769531 229.765625 31.347656 232.40625 31.988281 C 235.046875 32.632812 237.667969 33.339844 240.273438 34.109375 C 242.878906 34.878906 245.460938 35.710938 248.027344 36.609375 C 250.589844 37.507812 253.132812 38.464844 255.648438 39.488281 C 258.164062 40.511719 260.65625 41.59375 263.121094 42.738281 C 265.585938 43.878906 268.019531 45.085938 270.421875 46.347656 C 272.828125 47.609375 275.203125 48.933594 277.542969 50.3125 C 279.882812 51.691406 282.1875 53.128906 284.457031 54.621094 C 286.726562 56.113281 288.957031 57.660156 291.152344 59.261719 C 293.347656 60.863281 295.5 62.519531 297.613281 64.226562 C 299.726562 65.933594 301.796875 67.691406 303.824219 69.5 C 305.847656 71.308594 307.832031 73.167969 309.765625 75.074219 C 311.703125 76.980469 313.589844 78.929688 315.429688 80.929688 C 317.269531 82.929688 319.058594 84.972656 320.796875 87.058594 C 322.539062 89.144531 324.226562 91.273438 325.863281 93.441406 C 327.496094 95.609375 329.078125 97.816406 330.605469 100.0625 C 332.132812 102.3125 333.605469 104.59375 335.019531 106.914062 C 336.433594 109.230469 337.792969 111.582031 339.09375 113.96875 C 340.394531 116.355469 341.632812 118.769531 342.816406 121.214844 C 343.996094 123.660156 345.117188 126.136719 346.179688 128.636719 C 347.238281 131.136719 348.238281 133.664062 349.171875 136.214844 C 350.109375 138.761719 350.984375 141.335938 351.792969 143.925781 C 352.605469 146.519531 353.351562 149.132812 354.035156 151.761719 C 354.714844 154.390625 355.332031 157.035156 355.886719 159.695312 C 356.4375 162.355469 356.925781 165.027344 357.347656 167.710938 C 357.769531 170.394531 358.125 173.085938 358.417969 175.785156 C 358.707031 178.488281 358.929688 181.195312 359.085938 183.90625 C 359.242188 186.617188 359.335938 189.332031 359.359375 192.050781 C 359.335938 194.765625 359.246094 197.480469 359.085938 200.191406 C 358.929688 202.90625 358.707031 205.609375 358.417969 208.3125 C 358.128906 211.011719 357.769531 213.707031 357.347656 216.390625 C 356.929688 219.074219 356.441406 221.746094 355.886719 224.40625 C 355.335938 227.066406 354.71875 229.710938 354.035156 232.339844 C 353.351562 234.96875 352.605469 237.578125 351.796875 240.171875 C 350.984375 242.765625 350.113281 245.335938 349.175781 247.886719 C 348.238281 250.4375 347.242188 252.964844 346.179688 255.464844 C 345.121094 257.964844 344 260.441406 342.816406 262.886719 C 341.636719 265.332031 340.394531 267.746094 339.09375 270.132812 C 337.796875 272.519531 336.4375 274.871094 335.023438 277.191406 C 333.605469 279.507812 332.136719 281.792969 330.609375 284.039062 C 329.082031 286.285156 327.5 288.492188 325.863281 290.664062 C 324.230469 292.832031 322.542969 294.960938 320.800781 297.046875 C 319.0625 299.132812 317.273438 301.175781 315.433594 303.171875 C 313.59375 305.171875 311.703125 307.125 309.769531 309.03125 C 307.832031 310.9375 305.851562 312.792969 303.824219 314.605469 C 301.796875 316.414062 299.730469 318.171875 297.617188 319.878906 C 295.503906 321.585938 293.347656 323.242188 291.15625 324.84375 C 288.960938 326.445312 286.730469 327.992188 284.460938 329.484375 C 282.191406 330.976562 279.882812 332.414062 277.542969 333.792969 C 275.203125 335.171875 272.832031 336.496094 270.425781 337.757812 C 268.019531 339.019531 265.585938 340.226562 263.121094 341.367188 C 260.660156 342.511719 258.167969 343.59375 255.652344 344.617188 C 253.132812 345.640625 250.59375 346.597656 248.027344 347.496094 C 245.464844 348.394531 242.878906 349.226562 240.273438 349.996094 C 237.667969 350.769531 235.046875 351.476562 232.40625 352.117188 C 229.769531 352.757812 227.113281 353.335938 224.445312 353.847656 C 221.777344 354.359375 219.097656 354.804688 216.410156 355.1875 C 213.71875 355.566406 211.019531 355.882812 208.316406 356.128906 C 205.609375 356.378906 202.902344 356.558594 200.1875 356.675781 C 197.472656 356.792969 194.757812 356.839844 192.039062 356.824219 Z M 192.039062 78.351562 C 190.160156 78.335938 188.28125 78.363281 186.398438 78.4375 C 184.519531 78.511719 182.644531 78.628906 180.769531 78.796875 C 178.898438 78.960938 177.027344 79.171875 175.164062 79.429688 C 173.300781 79.6875 171.445312 79.992188 169.597656 80.339844 C 167.75 80.6875 165.910156 81.082031 164.082031 81.519531 C 162.25 81.957031 160.433594 82.441406 158.628906 82.96875 C 156.824219 83.496094 155.03125 84.066406 153.253906 84.683594 C 151.476562 85.296875 149.714844 85.957031 147.96875 86.65625 C 146.226562 87.359375 144.496094 88.105469 142.789062 88.890625 C 141.082031 89.675781 139.390625 90.503906 137.722656 91.375 C 136.054688 92.242188 134.410156 93.152344 132.785156 94.101562 C 131.164062 95.050781 129.5625 96.039062 127.988281 97.070312 C 126.414062 98.097656 124.863281 99.164062 123.339844 100.265625 C 121.816406 101.371094 120.324219 102.511719 118.855469 103.6875 C 117.390625 104.867188 115.953125 106.078125 114.542969 107.328125 C 113.136719 108.574219 111.761719 109.855469 110.417969 111.171875 C 109.070312 112.488281 107.761719 113.835938 106.480469 115.214844 C 105.203125 116.59375 103.957031 118.003906 102.75 119.445312 C 101.539062 120.882812 100.367188 122.351562 99.230469 123.851562 C 98.089844 125.347656 96.992188 126.875 95.929688 128.425781 C 94.867188 129.980469 93.839844 131.554688 92.855469 133.15625 C 91.871094 134.761719 90.925781 136.386719 90.019531 138.035156 C 89.113281 139.683594 88.25 141.351562 87.425781 143.042969 C 86.601562 144.734375 85.816406 146.445312 85.078125 148.171875 C 84.339844 149.902344 83.640625 151.648438 82.984375 153.414062 C 82.332031 155.175781 81.71875 156.953125 81.152344 158.746094 C 80.585938 160.539062 80.0625 162.347656 79.582031 164.167969 C 79.105469 165.984375 78.671875 167.816406 78.28125 169.65625 C 77.894531 171.496094 77.550781 173.34375 77.25 175.203125 C 76.953125 177.058594 76.699219 178.921875 76.492188 180.792969 C 76.285156 182.660156 76.125 184.535156 76.007812 186.410156 C 75.890625 188.289062 75.824219 190.167969 75.800781 192.050781 C 75.824219 193.929688 75.890625 195.808594 76.007812 197.6875 C 76.121094 199.5625 76.285156 201.4375 76.492188 203.308594 C 76.699219 205.175781 76.949219 207.039062 77.25 208.898438 C 77.546875 210.753906 77.890625 212.605469 78.28125 214.445312 C 78.667969 216.285156 79.101562 218.113281 79.582031 219.933594 C 80.0625 221.753906 80.582031 223.558594 81.152344 225.351562 C 81.71875 227.144531 82.328125 228.925781 82.984375 230.6875 C 83.636719 232.453125 84.335938 234.199219 85.074219 235.925781 C 85.816406 237.65625 86.597656 239.367188 87.421875 241.058594 C 88.246094 242.75 89.109375 244.417969 90.015625 246.066406 C 90.921875 247.714844 91.867188 249.34375 92.851562 250.945312 C 93.839844 252.546875 94.863281 254.125 95.925781 255.675781 C 96.988281 257.226562 98.089844 258.753906 99.226562 260.25 C 100.363281 261.75 101.535156 263.21875 102.746094 264.660156 C 103.957031 266.101562 105.199219 267.511719 106.476562 268.890625 C 107.757812 270.269531 109.070312 271.617188 110.414062 272.933594 C 111.757812 274.246094 113.132812 275.53125 114.542969 276.777344 C 115.949219 278.023438 117.386719 279.238281 118.855469 280.414062 C 120.320312 281.59375 121.816406 282.734375 123.339844 283.839844 C 124.863281 284.941406 126.410156 286.007812 127.984375 287.035156 C 129.5625 288.066406 131.160156 289.054688 132.785156 290.003906 C 134.40625 290.953125 136.054688 291.863281 137.722656 292.730469 C 139.390625 293.601562 141.078125 294.429688 142.789062 295.214844 C 144.496094 296.003906 146.222656 296.746094 147.96875 297.449219 C 149.714844 298.148438 151.476562 298.808594 153.253906 299.421875 C 155.03125 300.039062 156.820312 300.609375 158.628906 301.136719 C 160.433594 301.664062 162.25 302.148438 164.078125 302.585938 C 165.910156 303.027344 167.746094 303.417969 169.597656 303.769531 C 171.445312 304.117188 173.300781 304.417969 175.164062 304.675781 C 177.027344 304.933594 178.894531 305.144531 180.769531 305.3125 C 182.644531 305.476562 184.519531 305.597656 186.398438 305.671875 C 188.28125 305.746094 190.160156 305.773438 192.039062 305.753906 C 193.921875 305.773438 195.800781 305.746094 197.683594 305.671875 C 199.5625 305.597656 201.4375 305.476562 203.3125 305.3125 C 205.1875 305.144531 207.054688 304.933594 208.917969 304.675781 C 210.78125 304.421875 212.636719 304.117188 214.488281 303.769531 C 216.335938 303.421875 218.175781 303.027344 220.003906 302.589844 C 221.832031 302.152344 223.648438 301.667969 225.457031 301.140625 C 227.261719 300.613281 229.054688 300.042969 230.832031 299.425781 C 232.609375 298.8125 234.371094 298.152344 236.117188 297.449219 C 237.859375 296.75 239.589844 296.003906 241.296875 295.21875 C 243.007812 294.433594 244.695312 293.605469 246.363281 292.734375 C 248.03125 291.867188 249.675781 290.957031 251.300781 290.007812 C 252.925781 289.058594 254.523438 288.066406 256.101562 287.039062 C 257.675781 286.011719 259.222656 284.945312 260.746094 283.839844 C 262.269531 282.738281 263.765625 281.597656 265.234375 280.417969 C 266.699219 279.242188 268.136719 278.027344 269.542969 276.78125 C 270.953125 275.53125 272.328125 274.25 273.671875 272.933594 C 275.019531 271.621094 276.328125 270.273438 277.609375 268.894531 C 278.886719 267.511719 280.132812 266.101562 281.339844 264.664062 C 282.550781 263.222656 283.722656 261.753906 284.863281 260.253906 C 286 258.753906 287.101562 257.230469 288.164062 255.679688 C 289.226562 254.125 290.25 252.550781 291.234375 250.945312 C 292.222656 249.34375 293.167969 247.71875 294.074219 246.070312 C 294.976562 244.421875 295.84375 242.75 296.667969 241.058594 C 297.492188 239.371094 298.273438 237.660156 299.011719 235.929688 C 299.753906 234.199219 300.449219 232.453125 301.105469 230.691406 C 301.761719 228.925781 302.371094 227.148438 302.9375 225.355469 C 303.503906 223.5625 304.027344 221.753906 304.507812 219.933594 C 304.984375 218.117188 305.421875 216.285156 305.808594 214.445312 C 306.199219 212.605469 306.542969 210.757812 306.839844 208.898438 C 307.140625 207.042969 307.390625 205.179688 307.597656 203.308594 C 307.804688 201.4375 307.96875 199.566406 308.082031 197.6875 C 308.199219 195.808594 308.265625 193.929688 308.289062 192.050781 C 308.265625 190.167969 308.199219 188.289062 308.082031 186.410156 C 307.964844 184.535156 307.804688 182.660156 307.597656 180.789062 C 307.390625 178.921875 307.136719 177.058594 306.839844 175.199219 C 306.539062 173.34375 306.195312 171.496094 305.808594 169.652344 C 305.417969 167.8125 304.984375 165.984375 304.503906 164.164062 C 304.027344 162.34375 303.503906 160.539062 302.9375 158.746094 C 302.367188 156.953125 301.757812 155.175781 301.101562 153.410156 C 300.449219 151.648438 299.75 149.902344 299.011719 148.171875 C 298.269531 146.441406 297.488281 144.730469 296.664062 143.039062 C 295.839844 141.351562 294.976562 139.679688 294.070312 138.03125 C 293.164062 136.382812 292.21875 134.757812 291.234375 133.15625 C 290.246094 131.554688 289.222656 129.976562 288.160156 128.425781 C 287.097656 126.871094 285.996094 125.347656 284.859375 123.847656 C 283.722656 122.351562 282.546875 120.882812 281.339844 119.441406 C 280.128906 118 278.882812 116.589844 277.605469 115.210938 C 276.328125 113.832031 275.015625 112.484375 273.671875 111.167969 C 272.324219 109.851562 270.949219 108.570312 269.542969 107.324219 C 268.132812 106.074219 266.695312 104.863281 265.230469 103.6875 C 263.761719 102.507812 262.265625 101.367188 260.746094 100.265625 C 259.222656 99.160156 257.671875 98.09375 256.097656 97.066406 C 254.523438 96.039062 252.921875 95.046875 251.296875 94.097656 C 249.675781 93.148438 248.027344 92.238281 246.359375 91.371094 C 244.691406 90.5 243.003906 89.671875 241.296875 88.886719 C 239.585938 88.101562 237.859375 87.355469 236.113281 86.65625 C 234.367188 85.953125 232.605469 85.296875 230.828125 84.679688 C 229.050781 84.066406 227.261719 83.492188 225.453125 82.964844 C 223.648438 82.4375 221.832031 81.957031 220.003906 81.515625 C 218.171875 81.078125 216.332031 80.6875 214.484375 80.335938 C 212.636719 79.988281 210.78125 79.6875 208.917969 79.429688 C 207.054688 79.171875 205.183594 78.960938 203.3125 78.796875 C 201.4375 78.628906 199.5625 78.507812 197.679688 78.4375 C 195.800781 78.363281 193.921875 78.335938 192.039062 78.351562 Z M 192.039062 78.351562 " fill-opacity="1" fill-rule="nonzero"/></g><g clip-path="url(#id2)"><path fill="rgb(14.509583%, 13.729858%, 12.939453%)" d="M 192.039062 343.152344 C 189.324219 343.171875 186.609375 343.121094 183.894531 343.007812 C 181.179688 342.890625 178.472656 342.710938 175.765625 342.460938 C 173.058594 342.210938 170.363281 341.898438 167.671875 341.515625 C 164.984375 341.136719 162.304688 340.691406 159.636719 340.179688 C 156.96875 339.667969 154.316406 339.089844 151.675781 338.449219 C 149.035156 337.804688 146.414062 337.097656 143.808594 336.328125 C 141.203125 335.558594 138.617188 334.722656 136.054688 333.828125 C 133.488281 332.929688 130.949219 331.96875 128.433594 330.949219 C 125.914062 329.925781 123.425781 328.84375 120.960938 327.699219 C 118.496094 326.554688 116.0625 325.351562 113.65625 324.089844 C 111.25 322.824219 108.878906 321.503906 106.539062 320.125 C 104.199219 318.746094 101.894531 317.308594 99.625 315.816406 C 97.355469 314.324219 95.121094 312.777344 92.929688 311.175781 C 90.734375 309.570312 88.582031 307.917969 86.46875 306.210938 C 84.355469 304.5 82.285156 302.742188 80.257812 300.933594 C 78.230469 299.125 76.25 297.269531 74.316406 295.363281 C 72.378906 293.457031 70.492188 291.503906 68.652344 289.503906 C 66.8125 287.503906 65.023438 285.460938 63.285156 283.375 C 61.542969 281.289062 59.855469 279.160156 58.21875 276.992188 C 56.585938 274.824219 55.003906 272.617188 53.476562 270.367188 C 51.949219 268.121094 50.480469 265.839844 49.0625 263.519531 C 47.648438 261.203125 46.289062 258.847656 44.992188 256.464844 C 43.691406 254.078125 42.449219 251.664062 41.269531 249.214844 C 40.085938 246.769531 38.964844 244.296875 37.90625 241.796875 C 36.847656 239.292969 35.847656 236.769531 34.910156 234.21875 C 33.976562 231.667969 33.101562 229.097656 32.292969 226.503906 C 31.480469 223.910156 30.734375 221.300781 30.050781 218.667969 C 29.371094 216.039062 28.753906 213.394531 28.199219 210.734375 C 27.648438 208.074219 27.160156 205.402344 26.738281 202.71875 C 26.316406 200.035156 25.960938 197.34375 25.671875 194.644531 C 25.382812 191.941406 25.160156 189.234375 25.003906 186.523438 C 24.84375 183.8125 24.753906 181.097656 24.730469 178.378906 C 24.753906 175.664062 24.84375 172.949219 25.003906 170.238281 C 25.160156 167.527344 25.382812 164.820312 25.671875 162.117188 C 25.960938 159.417969 26.320312 156.726562 26.738281 154.042969 C 27.160156 151.359375 27.648438 148.6875 28.203125 146.027344 C 28.753906 143.367188 29.371094 140.722656 30.054688 138.09375 C 30.738281 135.464844 31.484375 132.851562 32.292969 130.257812 C 33.105469 127.667969 33.976562 125.09375 34.914062 122.542969 C 35.851562 119.996094 36.847656 117.46875 37.910156 114.96875 C 38.96875 112.46875 40.089844 109.992188 41.269531 107.546875 C 42.453125 105.101562 43.695312 102.683594 44.992188 100.300781 C 46.292969 97.914062 47.652344 95.5625 49.066406 93.242188 C 50.480469 90.925781 51.953125 88.644531 53.480469 86.394531 C 55.007812 84.148438 56.589844 81.941406 58.222656 79.773438 C 59.859375 77.601562 61.546875 75.476562 63.285156 73.390625 C 65.027344 71.304688 66.816406 69.261719 68.65625 67.261719 C 70.496094 65.261719 72.382812 63.3125 74.320312 61.40625 C 76.253906 59.5 78.234375 57.640625 80.261719 55.832031 C 82.289062 54.023438 84.359375 52.265625 86.472656 50.558594 C 88.582031 48.851562 90.738281 47.195312 92.929688 45.59375 C 95.125 43.992188 97.355469 42.445312 99.625 40.953125 C 101.894531 39.457031 104.203125 38.023438 106.542969 36.644531 C 108.882812 35.261719 111.253906 33.941406 113.660156 32.679688 C 116.0625 31.414062 118.5 30.210938 120.960938 29.066406 C 123.425781 27.925781 125.917969 26.839844 128.433594 25.820312 C 130.949219 24.796875 133.492188 23.839844 136.054688 22.941406 C 138.621094 22.042969 141.203125 21.210938 143.808594 20.441406 C 146.414062 19.667969 149.035156 18.960938 151.675781 18.320312 C 154.316406 17.679688 156.96875 17.101562 159.636719 16.589844 C 162.304688 16.078125 164.984375 15.632812 167.671875 15.25 C 170.363281 14.871094 173.0625 14.554688 175.765625 14.308594 C 178.472656 14.058594 181.179688 13.878906 183.894531 13.761719 C 186.609375 13.648438 189.324219 13.597656 192.039062 13.617188 C 194.757812 13.597656 197.472656 13.648438 200.1875 13.761719 C 202.902344 13.878906 205.609375 14.058594 208.316406 14.308594 C 211.019531 14.554688 213.71875 14.871094 216.40625 15.25 C 219.097656 15.632812 221.777344 16.078125 224.445312 16.589844 C 227.113281 17.101562 229.765625 17.679688 232.40625 18.320312 C 235.046875 18.960938 237.667969 19.667969 240.273438 20.441406 C 242.878906 21.210938 245.460938 22.042969 248.027344 22.941406 C 250.589844 23.839844 253.132812 24.796875 255.648438 25.820312 C 258.164062 26.839844 260.65625 27.925781 263.121094 29.066406 C 265.585938 30.210938 268.019531 31.414062 270.421875 32.679688 C 272.828125 33.941406 275.203125 35.261719 277.542969 36.644531 C 279.882812 38.023438 282.1875 39.457031 284.457031 40.949219 C 286.726562 42.445312 288.957031 43.992188 291.152344 45.59375 C 293.347656 47.195312 295.5 48.847656 297.613281 50.558594 C 299.726562 52.265625 301.796875 54.023438 303.824219 55.832031 C 305.847656 57.640625 307.832031 59.496094 309.765625 61.402344 C 311.703125 63.308594 313.589844 65.261719 315.429688 67.261719 C 317.269531 69.257812 319.058594 71.300781 320.796875 73.386719 C 322.539062 75.476562 324.226562 77.601562 325.863281 79.773438 C 327.496094 81.941406 329.078125 84.148438 330.605469 86.394531 C 332.132812 88.640625 333.605469 90.925781 335.019531 93.242188 C 336.433594 95.5625 337.792969 97.914062 339.09375 100.300781 C 340.394531 102.683594 341.632812 105.101562 342.816406 107.546875 C 343.996094 109.992188 345.117188 112.464844 346.179688 114.96875 C 347.238281 117.46875 348.238281 119.996094 349.171875 122.542969 C 350.109375 125.09375 350.984375 127.664062 351.792969 130.257812 C 352.605469 132.851562 353.351562 135.460938 354.035156 138.09375 C 354.714844 140.722656 355.332031 143.367188 355.886719 146.027344 C 356.4375 148.683594 356.925781 151.355469 357.347656 154.039062 C 357.769531 156.722656 358.125 159.417969 358.417969 162.117188 C 358.707031 164.820312 358.929688 167.527344 359.085938 170.238281 C 359.242188 172.949219 359.335938 175.664062 359.359375 178.378906 C 359.335938 181.097656 359.246094 183.8125 359.085938 186.523438 C 358.929688 189.234375 358.707031 191.941406 358.417969 194.644531 C 358.128906 197.34375 357.769531 200.035156 357.347656 202.71875 C 356.929688 205.40625 356.441406 208.074219 355.886719 210.734375 C 355.335938 213.394531 354.71875 216.039062 354.035156 218.671875 C 353.351562 221.300781 352.605469 223.910156 351.796875 226.503906 C 350.984375 229.097656 350.113281 231.667969 349.175781 234.21875 C 348.238281 236.769531 347.242188 239.292969 346.179688 241.796875 C 345.121094 244.296875 344 246.769531 342.816406 249.21875 C 341.636719 251.664062 340.394531 254.078125 339.09375 256.464844 C 337.796875 258.851562 336.4375 261.203125 335.023438 263.519531 C 333.605469 265.839844 332.136719 268.121094 330.609375 270.371094 C 329.082031 272.617188 327.5 274.824219 325.863281 276.992188 C 324.230469 279.164062 322.542969 281.289062 320.800781 283.375 C 319.0625 285.464844 317.273438 287.507812 315.433594 289.503906 C 313.59375 291.503906 311.703125 293.457031 309.769531 295.363281 C 307.832031 297.269531 305.851562 299.125 303.824219 300.933594 C 301.796875 302.742188 299.730469 304.503906 297.617188 306.210938 C 295.503906 307.917969 293.347656 309.574219 291.15625 311.175781 C 288.960938 312.777344 286.730469 314.324219 284.460938 315.816406 C 282.191406 317.308594 279.882812 318.746094 277.542969 320.125 C 275.203125 321.503906 272.832031 322.824219 270.425781 324.089844 C 268.019531 325.351562 265.585938 326.554688 263.121094 327.699219 C 260.660156 328.84375 258.167969 329.925781 255.652344 330.949219 C 253.132812 331.96875 250.59375 332.929688 248.027344 333.828125 C 245.464844 334.722656 242.878906 335.558594 240.273438 336.328125 C 237.667969 337.101562 235.046875 337.804688 232.40625 338.449219 C 229.769531 339.089844 227.113281 339.667969 224.445312 340.179688 C 221.777344 340.691406 219.097656 341.136719 216.410156 341.515625 C 213.71875 341.898438 211.019531 342.210938 208.316406 342.460938 C 205.609375 342.710938 202.902344 342.890625 200.1875 343.007812 C 197.472656 343.121094 194.757812 343.171875 192.039062 343.152344 Z M 192.039062 64.683594 C 190.160156 64.664062 188.28125 64.695312 186.398438 64.765625 C 184.519531 64.839844 182.644531 64.960938 180.769531 65.125 C 178.898438 65.292969 177.027344 65.503906 175.164062 65.761719 C 173.300781 66.019531 171.445312 66.320312 169.597656 66.671875 C 167.75 67.019531 165.910156 67.410156 164.082031 67.851562 C 162.25 68.289062 160.433594 68.773438 158.628906 69.300781 C 156.824219 69.828125 155.03125 70.398438 153.253906 71.011719 C 151.476562 71.628906 149.714844 72.289062 147.96875 72.988281 C 146.226562 73.691406 144.496094 74.433594 142.789062 75.222656 C 141.082031 76.007812 139.390625 76.835938 137.722656 77.703125 C 136.054688 78.574219 134.410156 79.484375 132.785156 80.433594 C 131.164062 81.382812 129.5625 82.371094 127.988281 83.398438 C 126.414062 84.425781 124.863281 85.492188 123.339844 86.597656 C 121.816406 87.703125 120.324219 88.84375 118.855469 90.019531 C 117.390625 91.199219 115.953125 92.410156 114.542969 93.65625 C 113.136719 94.90625 111.761719 96.1875 110.417969 97.503906 C 109.070312 98.816406 107.761719 100.164062 106.480469 101.542969 C 105.203125 102.925781 103.957031 104.335938 102.75 105.773438 C 101.539062 107.214844 100.367188 108.683594 99.230469 110.183594 C 98.089844 111.679688 96.992188 113.207031 95.929688 114.757812 C 94.867188 116.308594 93.839844 117.886719 92.855469 119.488281 C 91.871094 121.089844 90.925781 122.714844 90.019531 124.363281 C 89.113281 126.011719 88.25 127.683594 87.425781 129.375 C 86.601562 131.066406 85.816406 132.773438 85.078125 134.503906 C 84.339844 136.234375 83.640625 137.980469 82.984375 139.742188 C 82.332031 141.507812 81.71875 143.285156 81.152344 145.078125 C 80.585938 146.871094 80.0625 148.679688 79.582031 150.496094 C 79.105469 152.316406 78.671875 154.144531 78.28125 155.984375 C 77.894531 157.828125 77.550781 159.675781 77.25 161.53125 C 76.953125 163.390625 76.699219 165.253906 76.492188 167.121094 C 76.285156 168.992188 76.125 170.867188 76.007812 172.742188 C 75.890625 174.621094 75.824219 176.5 75.800781 178.378906 C 75.824219 180.261719 75.890625 182.140625 76.007812 184.019531 C 76.121094 185.894531 76.285156 187.769531 76.492188 189.640625 C 76.699219 191.507812 76.949219 193.371094 77.25 195.230469 C 77.546875 197.085938 77.890625 198.933594 78.28125 200.777344 C 78.667969 202.617188 79.101562 204.445312 79.582031 206.265625 C 80.0625 208.085938 80.582031 209.890625 81.152344 211.683594 C 81.71875 213.476562 82.328125 215.253906 82.984375 217.019531 C 83.636719 218.78125 84.335938 220.53125 85.074219 222.257812 C 85.816406 223.988281 86.597656 225.699219 87.421875 227.390625 C 88.246094 229.082031 89.109375 230.75 90.015625 232.398438 C 90.921875 234.046875 91.867188 235.671875 92.851562 237.273438 C 93.839844 238.878906 94.863281 240.453125 95.925781 242.007812 C 96.988281 243.558594 98.089844 245.085938 99.226562 246.582031 C 100.363281 248.082031 101.535156 249.550781 102.746094 250.992188 C 103.957031 252.429688 105.199219 253.839844 106.476562 255.222656 C 107.757812 256.601562 109.070312 257.949219 110.414062 259.261719 C 111.757812 260.578125 113.132812 261.859375 114.542969 263.109375 C 115.949219 264.355469 117.386719 265.570312 118.855469 266.746094 C 120.320312 267.925781 121.816406 269.066406 123.339844 270.167969 C 124.863281 271.273438 126.410156 272.339844 127.984375 273.367188 C 129.5625 274.394531 131.160156 275.386719 132.785156 276.335938 C 134.40625 277.285156 136.054688 278.195312 137.722656 279.0625 C 139.390625 279.933594 141.078125 280.761719 142.789062 281.546875 C 144.496094 282.332031 146.222656 283.078125 147.96875 283.777344 C 149.714844 284.480469 151.476562 285.140625 153.253906 285.753906 C 155.03125 286.371094 156.820312 286.941406 158.628906 287.46875 C 160.433594 287.996094 162.25 288.480469 164.078125 288.917969 C 165.910156 289.355469 167.746094 289.75 169.597656 290.097656 C 171.445312 290.445312 173.300781 290.75 175.164062 291.007812 C 177.027344 291.265625 178.894531 291.476562 180.769531 291.640625 C 182.644531 291.808594 184.519531 291.925781 186.398438 292 C 188.28125 292.074219 190.160156 292.101562 192.039062 292.085938 C 193.921875 292.101562 195.800781 292.074219 197.683594 292 C 199.5625 291.929688 201.4375 291.808594 203.3125 291.644531 C 205.1875 291.476562 207.054688 291.265625 208.917969 291.007812 C 210.78125 290.75 212.636719 290.449219 214.488281 290.101562 C 216.335938 289.75 218.175781 289.359375 220.003906 288.921875 C 221.832031 288.480469 223.648438 288 225.457031 287.472656 C 227.261719 286.945312 229.054688 286.371094 230.832031 285.757812 C 232.609375 285.140625 234.371094 284.484375 236.117188 283.78125 C 237.859375 283.078125 239.589844 282.335938 241.296875 281.550781 C 243.007812 280.761719 244.695312 279.933594 246.363281 279.066406 C 248.03125 278.195312 249.675781 277.289062 251.300781 276.335938 C 252.925781 275.386719 254.523438 274.398438 256.101562 273.371094 C 257.675781 272.34375 259.222656 271.277344 260.746094 270.171875 C 262.269531 269.066406 263.765625 267.925781 265.234375 266.75 C 266.699219 265.570312 268.136719 264.359375 269.542969 263.113281 C 270.953125 261.863281 272.328125 260.582031 273.671875 259.265625 C 275.019531 257.953125 276.328125 256.605469 277.609375 255.222656 C 278.886719 253.84375 280.132812 252.433594 281.339844 250.992188 C 282.550781 249.554688 283.722656 248.082031 284.863281 246.585938 C 286 245.085938 287.101562 243.5625 288.164062 242.007812 C 289.226562 240.457031 290.25 238.878906 291.234375 237.277344 C 292.222656 235.675781 293.167969 234.050781 294.074219 232.402344 C 294.976562 230.753906 295.84375 229.082031 296.667969 227.390625 C 297.492188 225.699219 298.273438 223.988281 299.011719 222.261719 C 299.753906 220.53125 300.449219 218.785156 301.105469 217.019531 C 301.761719 215.257812 302.371094 213.480469 302.9375 211.683594 C 303.503906 209.890625 304.027344 208.085938 304.507812 206.265625 C 304.984375 204.445312 305.421875 202.617188 305.808594 200.777344 C 306.199219 198.9375 306.542969 197.085938 306.839844 195.230469 C 307.140625 193.371094 307.390625 191.507812 307.597656 189.640625 C 307.804688 187.769531 307.96875 185.894531 308.082031 184.019531 C 308.199219 182.140625 308.265625 180.261719 308.289062 178.378906 C 308.265625 176.5 308.199219 174.621094 308.082031 172.742188 C 307.964844 170.863281 307.804688 168.992188 307.597656 167.121094 C 307.390625 165.253906 307.136719 163.390625 306.839844 161.53125 C 306.539062 159.675781 306.195312 157.824219 305.808594 155.984375 C 305.417969 154.144531 304.984375 152.316406 304.503906 150.496094 C 304.027344 148.675781 303.503906 146.871094 302.9375 145.078125 C 302.367188 143.285156 301.757812 141.503906 301.101562 139.742188 C 300.449219 137.976562 299.75 136.230469 299.011719 134.503906 C 298.269531 132.773438 297.488281 131.0625 296.664062 129.371094 C 295.839844 127.679688 294.976562 126.011719 294.070312 124.363281 C 293.164062 122.714844 292.21875 121.089844 291.234375 119.488281 C 290.246094 117.882812 289.222656 116.308594 288.160156 114.753906 C 287.097656 113.203125 285.996094 111.679688 284.859375 110.179688 C 283.722656 108.683594 282.546875 107.210938 281.339844 105.773438 C 280.128906 104.332031 278.882812 102.921875 277.605469 101.542969 C 276.328125 100.164062 275.015625 98.816406 273.671875 97.5 C 272.324219 96.183594 270.949219 94.902344 269.542969 93.65625 C 268.132812 92.40625 266.695312 91.195312 265.230469 90.015625 C 263.761719 88.839844 262.265625 87.699219 260.746094 86.59375 C 259.222656 85.492188 257.671875 84.425781 256.097656 83.398438 C 254.523438 82.367188 252.921875 81.378906 251.296875 80.429688 C 249.675781 79.480469 248.027344 78.570312 246.359375 77.703125 C 244.691406 76.832031 243.003906 76.003906 241.296875 75.21875 C 239.585938 74.433594 237.859375 73.6875 236.113281 72.988281 C 234.367188 72.285156 232.605469 71.625 230.828125 71.011719 C 229.050781 70.394531 227.261719 69.824219 225.453125 69.296875 C 223.648438 68.769531 221.832031 68.285156 220.003906 67.847656 C 218.171875 67.410156 216.332031 67.015625 214.484375 66.667969 C 212.636719 66.320312 210.78125 66.019531 208.917969 65.761719 C 207.054688 65.503906 205.183594 65.292969 203.3125 65.125 C 201.4375 64.960938 199.5625 64.839844 197.679688 64.765625 C 195.800781 64.695312 193.921875 64.664062 192.039062 64.683594 Z M 192.039062 64.683594 " fill-opacity="1" fill-rule="nonzero"/></g><g clip-path="url(#id3)"><path fill="rgb(14.509583%, 13.729858%, 12.939453%)" d="M 192.039062 370.492188 C 189.324219 370.507812 186.609375 370.460938 183.894531 370.34375 C 181.179688 370.230469 178.472656 370.046875 175.765625 369.796875 C 173.058594 369.550781 170.363281 369.234375 167.671875 368.855469 C 164.984375 368.476562 162.304688 368.027344 159.636719 367.515625 C 156.96875 367.003906 154.316406 366.425781 151.675781 365.785156 C 149.035156 365.144531 146.414062 364.4375 143.808594 363.667969 C 141.203125 362.894531 138.617188 362.0625 136.054688 361.164062 C 133.488281 360.269531 130.949219 359.308594 128.433594 358.285156 C 125.914062 357.265625 123.425781 356.179688 120.960938 355.039062 C 118.496094 353.894531 116.0625 352.691406 113.65625 351.425781 C 111.25 350.164062 108.878906 348.84375 106.539062 347.460938 C 104.199219 346.082031 101.894531 344.644531 99.625 343.152344 C 97.355469 341.660156 95.121094 340.113281 92.929688 338.511719 C 90.734375 336.910156 88.582031 335.253906 86.46875 333.546875 C 84.355469 331.839844 82.285156 330.082031 80.257812 328.273438 C 78.230469 326.464844 76.25 324.605469 74.316406 322.699219 C 72.378906 320.792969 70.492188 318.839844 68.652344 316.84375 C 66.8125 314.84375 65.023438 312.800781 63.285156 310.714844 C 61.542969 308.628906 59.855469 306.5 58.21875 304.332031 C 56.585938 302.160156 55.003906 299.953125 53.476562 297.707031 C 51.949219 295.460938 50.480469 293.175781 49.0625 290.859375 C 47.648438 288.539062 46.289062 286.1875 44.992188 283.800781 C 43.691406 281.417969 42.449219 279 41.269531 276.554688 C 40.085938 274.109375 38.964844 271.632812 37.90625 269.132812 C 36.847656 266.632812 35.847656 264.105469 34.910156 261.554688 C 33.976562 259.003906 33.101562 256.433594 32.292969 253.839844 C 31.480469 251.25 30.734375 248.636719 30.050781 246.007812 C 29.371094 243.378906 28.753906 240.734375 28.199219 238.074219 C 27.648438 235.414062 27.160156 232.742188 26.738281 230.058594 C 26.316406 227.375 25.960938 224.683594 25.671875 221.980469 C 25.382812 219.28125 25.160156 216.574219 25.003906 213.859375 C 24.84375 211.148438 24.753906 208.433594 24.730469 205.71875 C 24.753906 203 24.84375 200.289062 25.003906 197.574219 C 25.160156 194.863281 25.382812 192.15625 25.671875 189.457031 C 25.960938 186.753906 26.320312 184.0625 26.738281 181.378906 C 27.160156 178.695312 27.648438 176.023438 28.203125 173.363281 C 28.753906 170.703125 29.371094 168.058594 30.054688 165.429688 C 30.738281 162.800781 31.484375 160.191406 32.292969 157.597656 C 33.105469 155.003906 33.976562 152.433594 34.914062 149.882812 C 35.851562 147.332031 36.847656 144.808594 37.910156 142.304688 C 38.96875 139.804688 40.089844 137.332031 41.269531 134.886719 C 42.453125 132.4375 43.695312 130.023438 44.992188 127.636719 C 46.292969 125.253906 47.652344 122.902344 49.066406 120.582031 C 50.480469 118.261719 51.953125 115.980469 53.480469 113.734375 C 55.007812 111.488281 56.589844 109.277344 58.222656 107.109375 C 59.859375 104.941406 61.546875 102.8125 63.285156 100.726562 C 65.027344 98.640625 66.816406 96.597656 68.65625 94.597656 C 70.496094 92.601562 72.382812 90.648438 74.320312 88.742188 C 76.253906 86.835938 78.234375 84.980469 80.261719 83.167969 C 82.289062 81.359375 84.359375 79.601562 86.472656 77.894531 C 88.582031 76.1875 90.738281 74.53125 92.929688 72.929688 C 95.125 71.328125 97.355469 69.78125 99.625 68.289062 C 101.894531 66.796875 104.203125 65.359375 106.542969 63.980469 C 108.882812 62.601562 111.253906 61.28125 113.660156 60.015625 C 116.0625 58.753906 118.5 57.550781 120.960938 56.40625 C 123.425781 55.261719 125.917969 54.179688 128.433594 53.15625 C 130.949219 52.136719 133.492188 51.175781 136.054688 50.277344 C 138.621094 49.382812 141.203125 48.546875 143.808594 47.777344 C 146.414062 47.007812 149.035156 46.300781 151.675781 45.660156 C 154.316406 45.015625 156.96875 44.441406 159.636719 43.929688 C 162.304688 43.414062 164.984375 42.96875 167.671875 42.589844 C 170.363281 42.207031 173.0625 41.894531 175.765625 41.644531 C 178.472656 41.398438 181.179688 41.214844 183.894531 41.101562 C 186.609375 40.984375 189.324219 40.9375 192.039062 40.953125 C 194.757812 40.9375 197.472656 40.984375 200.1875 41.101562 C 202.902344 41.214844 205.609375 41.398438 208.316406 41.644531 C 211.019531 41.894531 213.71875 42.207031 216.40625 42.589844 C 219.097656 42.96875 221.777344 43.414062 224.445312 43.929688 C 227.113281 44.441406 229.765625 45.015625 232.40625 45.660156 C 235.046875 46.300781 237.667969 47.007812 240.273438 47.777344 C 242.878906 48.546875 245.460938 49.382812 248.027344 50.277344 C 250.589844 51.175781 253.132812 52.136719 255.648438 53.15625 C 258.164062 54.179688 260.65625 55.261719 263.121094 56.40625 C 265.585938 57.550781 268.019531 58.753906 270.421875 60.015625 C 272.828125 61.28125 275.203125 62.601562 277.542969 63.980469 C 279.882812 65.359375 282.1875 66.796875 284.457031 68.289062 C 286.726562 69.78125 288.957031 71.328125 291.152344 72.929688 C 293.347656 74.53125 295.5 76.1875 297.613281 77.894531 C 299.726562 79.601562 301.796875 81.359375 303.824219 83.167969 C 305.847656 84.976562 307.832031 86.835938 309.765625 88.742188 C 311.703125 90.648438 313.589844 92.601562 315.429688 94.597656 C 317.269531 96.597656 319.058594 98.640625 320.796875 100.726562 C 322.539062 102.8125 324.226562 104.941406 325.863281 107.109375 C 327.496094 109.277344 329.078125 111.488281 330.605469 113.734375 C 332.132812 115.980469 333.605469 118.261719 335.019531 120.582031 C 336.433594 122.898438 337.792969 125.253906 339.09375 127.636719 C 340.394531 130.023438 341.632812 132.4375 342.816406 134.882812 C 343.996094 137.332031 345.117188 139.804688 346.179688 142.304688 C 347.238281 144.804688 348.238281 147.332031 349.171875 149.882812 C 350.109375 152.433594 350.984375 155.003906 351.792969 157.597656 C 352.605469 160.1875 353.351562 162.800781 354.035156 165.429688 C 354.714844 168.058594 355.332031 170.703125 355.886719 173.363281 C 356.4375 176.023438 356.925781 178.695312 357.347656 181.378906 C 357.769531 184.0625 358.125 186.753906 358.417969 189.457031 C 358.707031 192.15625 358.929688 194.863281 359.085938 197.574219 C 359.242188 200.289062 359.335938 203 359.359375 205.71875 C 359.335938 208.433594 359.246094 211.148438 359.085938 213.859375 C 358.929688 216.574219 358.707031 219.28125 358.417969 221.980469 C 358.128906 224.683594 357.769531 227.375 357.347656 230.058594 C 356.929688 232.742188 356.441406 235.414062 355.886719 238.074219 C 355.335938 240.734375 354.71875 243.378906 354.035156 246.007812 C 353.351562 248.636719 352.605469 251.25 351.796875 253.839844 C 350.984375 256.433594 350.113281 259.007812 349.175781 261.554688 C 348.238281 264.105469 347.242188 266.632812 346.179688 269.132812 C 345.121094 271.632812 344 274.109375 342.816406 276.554688 C 341.636719 279 340.394531 281.417969 339.09375 283.800781 C 337.796875 286.1875 336.4375 288.539062 335.023438 290.859375 C 333.605469 293.175781 332.136719 295.460938 330.609375 297.707031 C 329.082031 299.953125 327.5 302.160156 325.863281 304.332031 C 324.230469 306.5 322.542969 308.628906 320.800781 310.714844 C 319.0625 312.800781 317.273438 314.84375 315.433594 316.84375 C 313.59375 318.839844 311.703125 320.792969 309.769531 322.699219 C 307.832031 324.605469 305.851562 326.464844 303.824219 328.273438 C 301.796875 330.082031 299.730469 331.839844 297.617188 333.546875 C 295.503906 335.253906 293.347656 336.910156 291.15625 338.511719 C 288.960938 340.113281 286.730469 341.660156 284.460938 343.152344 C 282.191406 344.648438 279.882812 346.082031 277.542969 347.460938 C 275.203125 348.84375 272.832031 350.164062 270.425781 351.425781 C 268.019531 352.691406 265.585938 353.894531 263.121094 355.039062 C 260.660156 356.183594 258.167969 357.265625 255.652344 358.285156 C 253.132812 359.308594 250.59375 360.269531 248.027344 361.164062 C 245.464844 362.0625 242.878906 362.894531 240.273438 363.667969 C 237.667969 364.4375 235.046875 365.144531 232.40625 365.785156 C 229.769531 366.429688 227.113281 367.003906 224.445312 367.515625 C 221.777344 368.027344 219.097656 368.476562 216.410156 368.855469 C 213.71875 369.234375 211.019531 369.550781 208.316406 369.796875 C 205.609375 370.046875 202.902344 370.230469 200.1875 370.34375 C 197.472656 370.460938 194.757812 370.507812 192.039062 370.492188 Z M 192.039062 92.023438 C 190.160156 92.003906 188.28125 92.03125 186.398438 92.105469 C 184.519531 92.179688 182.644531 92.300781 180.769531 92.464844 C 178.898438 92.628906 177.027344 92.84375 175.164062 93.097656 C 173.300781 93.355469 171.445312 93.660156 169.597656 94.007812 C 167.75 94.355469 165.910156 94.75 164.082031 95.1875 C 162.25 95.625 160.433594 96.109375 158.628906 96.636719 C 156.824219 97.164062 155.03125 97.734375 153.253906 98.351562 C 151.476562 98.96875 149.714844 99.625 147.96875 100.328125 C 146.226562 101.027344 144.496094 101.773438 142.789062 102.558594 C 141.082031 103.34375 139.390625 104.171875 137.722656 105.042969 C 136.054688 105.910156 134.410156 106.820312 132.785156 107.769531 C 131.164062 108.71875 129.5625 109.710938 127.988281 110.738281 C 126.414062 111.765625 124.863281 112.832031 123.339844 113.9375 C 121.816406 115.039062 120.324219 116.179688 118.855469 117.359375 C 117.390625 118.535156 115.953125 119.746094 114.542969 120.996094 C 113.136719 122.242188 111.761719 123.523438 110.417969 124.839844 C 109.070312 126.15625 107.761719 127.503906 106.480469 128.882812 C 105.203125 130.261719 103.957031 131.671875 102.75 133.113281 C 101.539062 134.554688 100.367188 136.023438 99.230469 137.519531 C 98.089844 139.019531 96.992188 140.542969 95.929688 142.09375 C 94.867188 143.648438 93.839844 145.222656 92.855469 146.828125 C 91.871094 148.429688 90.925781 150.054688 90.019531 151.703125 C 89.113281 153.351562 88.25 155.019531 87.425781 156.710938 C 86.601562 158.402344 85.816406 160.113281 85.078125 161.84375 C 84.339844 163.570312 83.640625 165.316406 82.984375 167.082031 C 82.332031 168.84375 81.71875 170.621094 81.152344 172.417969 C 80.585938 174.210938 80.0625 176.015625 79.582031 177.835938 C 79.105469 179.652344 78.671875 181.484375 78.28125 183.324219 C 77.894531 185.164062 77.550781 187.011719 77.25 188.871094 C 76.953125 190.726562 76.699219 192.589844 76.492188 194.460938 C 76.285156 196.328125 76.125 198.203125 76.007812 200.082031 C 75.890625 201.957031 75.824219 203.835938 75.800781 205.71875 C 75.824219 207.597656 75.890625 209.476562 76.007812 211.355469 C 76.121094 213.234375 76.285156 215.105469 76.492188 216.976562 C 76.699219 218.847656 76.949219 220.710938 77.25 222.566406 C 77.546875 224.425781 77.890625 226.273438 78.28125 228.113281 C 78.667969 229.953125 79.101562 231.785156 79.582031 233.601562 C 80.0625 235.421875 80.582031 237.226562 81.152344 239.023438 C 81.71875 240.816406 82.328125 242.59375 82.984375 244.355469 C 83.636719 246.121094 84.335938 247.867188 85.074219 249.597656 C 85.816406 251.324219 86.597656 253.035156 87.421875 254.726562 C 88.246094 256.417969 89.109375 258.089844 90.015625 259.738281 C 90.921875 261.386719 91.867188 263.011719 92.851562 264.613281 C 93.839844 266.214844 94.863281 267.792969 95.925781 269.34375 C 96.988281 270.898438 98.089844 272.421875 99.226562 273.921875 C 100.363281 275.417969 101.535156 276.886719 102.746094 278.328125 C 103.957031 279.769531 105.199219 281.179688 106.476562 282.558594 C 107.757812 283.9375 109.070312 285.285156 110.414062 286.601562 C 111.757812 287.917969 113.132812 289.199219 114.542969 290.445312 C 115.949219 291.695312 117.386719 292.90625 118.855469 294.085938 C 120.320312 295.261719 121.816406 296.402344 123.339844 297.507812 C 124.863281 298.609375 126.410156 299.675781 127.984375 300.707031 C 129.5625 301.734375 131.160156 302.722656 132.785156 303.671875 C 134.40625 304.621094 136.054688 305.53125 137.722656 306.402344 C 139.390625 307.269531 141.078125 308.097656 142.789062 308.882812 C 144.496094 309.671875 146.222656 310.414062 147.96875 311.117188 C 149.714844 311.820312 151.476562 312.476562 153.253906 313.09375 C 155.03125 313.707031 156.820312 314.28125 158.628906 314.808594 C 160.433594 315.335938 162.25 315.816406 164.078125 316.257812 C 165.910156 316.695312 167.746094 317.089844 169.597656 317.4375 C 171.445312 317.785156 173.300781 318.085938 175.164062 318.34375 C 177.027344 318.601562 178.894531 318.8125 180.769531 318.980469 C 182.644531 319.144531 184.519531 319.265625 186.398438 319.339844 C 188.28125 319.414062 190.160156 319.441406 192.039062 319.421875 C 193.921875 319.441406 195.800781 319.414062 197.683594 319.339844 C 199.5625 319.265625 201.4375 319.144531 203.3125 318.980469 C 205.1875 318.816406 207.054688 318.605469 208.917969 318.347656 C 210.78125 318.089844 212.636719 317.785156 214.488281 317.4375 C 216.335938 317.089844 218.175781 316.695312 220.003906 316.257812 C 221.832031 315.820312 223.648438 315.335938 225.457031 314.808594 C 227.261719 314.28125 229.054688 313.710938 230.832031 313.09375 C 232.609375 312.480469 234.371094 311.820312 236.117188 311.121094 C 237.859375 310.417969 239.589844 309.671875 241.296875 308.886719 C 243.007812 308.101562 244.695312 307.273438 246.363281 306.402344 C 248.03125 305.535156 249.675781 304.625 251.300781 303.675781 C 252.925781 302.726562 254.523438 301.738281 256.101562 300.707031 C 257.675781 299.679688 259.222656 298.613281 260.746094 297.511719 C 262.269531 296.40625 263.765625 295.265625 265.234375 294.085938 C 266.699219 292.910156 268.136719 291.699219 269.542969 290.449219 C 270.953125 289.203125 272.328125 287.917969 273.671875 286.605469 C 275.019531 285.289062 276.328125 283.941406 277.609375 282.5625 C 278.886719 281.183594 280.132812 279.773438 281.339844 278.332031 C 282.550781 276.890625 283.722656 275.421875 284.863281 273.921875 C 286 272.425781 287.101562 270.898438 288.164062 269.347656 C 289.226562 267.796875 290.25 266.21875 291.234375 264.617188 C 292.222656 263.011719 293.167969 261.386719 294.074219 259.738281 C 294.976562 258.089844 295.84375 256.421875 296.667969 254.730469 C 297.492188 253.039062 298.273438 251.328125 299.011719 249.597656 C 299.753906 247.867188 300.449219 246.121094 301.105469 244.359375 C 301.761719 242.59375 302.371094 240.816406 302.9375 239.023438 C 303.503906 237.230469 304.027344 235.421875 304.507812 233.605469 C 304.984375 231.785156 305.421875 229.953125 305.808594 228.113281 C 306.199219 226.273438 306.542969 224.425781 306.839844 222.566406 C 307.140625 220.710938 307.390625 218.847656 307.597656 216.976562 C 307.804688 215.105469 307.96875 213.234375 308.082031 211.355469 C 308.199219 209.476562 308.265625 207.597656 308.289062 205.71875 C 308.265625 203.835938 308.199219 201.957031 308.082031 200.082031 C 307.964844 198.203125 307.804688 196.328125 307.597656 194.460938 C 307.390625 192.589844 307.136719 190.726562 306.839844 188.871094 C 306.539062 187.011719 306.195312 185.164062 305.808594 183.324219 C 305.417969 181.484375 304.984375 179.652344 304.503906 177.832031 C 304.027344 176.015625 303.503906 174.207031 302.9375 172.414062 C 302.367188 170.621094 301.757812 168.84375 301.101562 167.078125 C 300.449219 165.316406 299.75 163.570312 299.011719 161.839844 C 298.269531 160.109375 297.488281 158.402344 296.664062 156.710938 C 295.839844 155.019531 294.976562 153.347656 294.070312 151.699219 C 293.164062 150.050781 292.21875 148.425781 291.234375 146.824219 C 290.246094 145.222656 289.222656 143.644531 288.160156 142.09375 C 287.097656 140.539062 285.996094 139.015625 284.859375 137.519531 C 283.722656 136.019531 282.546875 134.550781 281.339844 133.109375 C 280.128906 131.667969 278.882812 130.257812 277.605469 128.878906 C 276.328125 127.5 275.015625 126.152344 273.671875 124.835938 C 272.324219 123.523438 270.949219 122.242188 269.542969 120.992188 C 268.132812 119.746094 266.695312 118.53125 265.230469 117.355469 C 263.761719 116.175781 262.265625 115.035156 260.746094 113.933594 C 259.222656 112.828125 257.671875 111.761719 256.097656 110.734375 C 254.523438 109.707031 252.921875 108.71875 251.296875 107.769531 C 249.675781 106.816406 248.027344 105.910156 246.359375 105.039062 C 244.691406 104.171875 243.003906 103.34375 241.296875 102.554688 C 239.585938 101.769531 237.859375 101.027344 236.113281 100.324219 C 234.367188 99.621094 232.605469 98.964844 230.828125 98.347656 C 229.050781 97.734375 227.261719 97.164062 225.453125 96.636719 C 223.648438 96.109375 221.832031 95.625 220.003906 95.1875 C 218.171875 94.746094 216.332031 94.355469 214.484375 94.007812 C 212.636719 93.660156 210.78125 93.355469 208.917969 93.097656 C 207.054688 92.839844 205.183594 92.628906 203.3125 92.464844 C 201.4375 92.296875 199.5625 92.179688 197.679688 92.105469 C 195.800781 92.03125 193.921875 92.003906 192.039062 92.023438 Z M 192.039062 92.023438 " fill-opacity="1" fill-rule="nonzero"/></g></svg>