<svg xmlns="http://www.w3.org/2000/svg" xmlns:xlink="http://www.w3.org/1999/xlink" width="512" zoomAndPan="magnify" viewBox="0 0 384 383.999986" height="512" preserveAspectRatio="xMidYMid meet" version="1.0"><defs><clipPath id="id1"><path d="M 34 23 L 365.644531 23 L 365.644531 353 L 34 353 Z M 34 23 " clip-rule="nonzero"/></clipPath><clipPath id="id2"><path d="M 18.394531 106 L 299 106 L 299 367 L 18.394531 367 Z M 18.394531 106 " clip-rule="nonzero"/></clipPath><clipPath id="id3"><path d="M 56 16.640625 L 275 16.640625 L 275 99 L 56 99 Z M 56 16.640625 " clip-rule="nonzero"/></clipPath></defs><path fill="rgb(14.509583%, 13.729858%, 12.939453%)" d="M 261.765625 317.539062 C 262.570312 317.023438 263.636719 316.527344 264.664062 316.171875 C 265.175781 315.992188 265.757812 315.882812 265.695312 315.992188 C 265.628906 316.113281 264.890625 316.542969 264.324219 316.820312 C 263.203125 317.359375 262.160156 317.746094 261.628906 317.78125 C 261.503906 317.792969 261.714844 317.625 261.765625 317.539062 Z M 252.644531 45.367188 C 244.070312 41.722656 234.875 38.921875 225.421875 37.210938 C 203.550781 33.078125 180.59375 33.632812 158.84375 39.601562 C 144.339844 43.503906 130.515625 49.675781 117.625 57.816406 C 114.679688 59.886719 111.757812 61.9375 108.855469 63.976562 C 106 66.074219 103.492188 68.582031 100.894531 70.914062 C 98.921875 72.808594 96.792969 74.382812 95.054688 76.085938 C 92.027344 78.847656 88.902344 81.824219 85.867188 85.269531 C 84.199219 87.347656 82.496094 89.46875 80.832031 91.539062 C 76.644531 96.214844 73.578125 101.71875 70.097656 106.960938 C 67.164062 112.246094 64.3125 117.617188 61.816406 123.113281 C 59.652344 128.757812 56.9375 134.199219 55.386719 140.042969 C 54.632812 142.589844 53.855469 145.207031 53.089844 147.792969 C 51.765625 153.921875 50.414062 160.105469 49.730469 166.335938 C 49.316406 172.6875 48.113281 178.757812 48.511719 185.03125 C 48.632812 188.160156 48.75 191.238281 48.871094 194.335938 C 49.269531 197.402344 49.671875 200.488281 50.082031 203.652344 L 50.25 204.984375 C 50.785156 210.734375 52.53125 216.359375 53.980469 221.417969 C 54.878906 224.894531 56.394531 228.734375 57.578125 232.636719 C 59.226562 238.671875 61.941406 244.3125 64.394531 250.050781 C 65.199219 252.121094 66.265625 254.089844 67.28125 255.984375 C 69.78125 260.621094 72.117188 265.410156 75.464844 269.710938 C 80.71875 277.480469 86.859375 284.640625 93.035156 291.464844 C 96.359375 294.789062 99.75 298.582031 103.835938 301.457031 C 113.816406 309.835938 125.214844 316.183594 136.785156 322.175781 C 137.550781 322.632812 138.429688 322.894531 139.257812 323.242188 C 151.636719 328.507812 164.640625 332.21875 177.925781 334.167969 C 182.761719 334.996094 187.636719 335.027344 192.398438 335.300781 C 195.726562 335.585938 199.445312 335.21875 202.992188 335.21875 C 205.574219 335.152344 208.140625 335.085938 210.699219 335.019531 L 218.273438 334.007812 L 225.792969 332.9375 L 233.164062 331.152344 C 236.613281 330.183594 240.027344 329.726562 243.375 328.574219 C 248.035156 327.121094 252.691406 325.863281 256.941406 323.730469 C 266.292969 319.164062 275.941406 314.601562 284.714844 308.636719 C 285.753906 307.921875 286.886719 307.234375 287.84375 306.675781 C 290.988281 304.917969 294.1875 302.738281 297.15625 299.878906 C 300.972656 296.472656 304.878906 293.179688 308.300781 289.351562 L 313.632812 283.828125 C 315.328125 281.914062 316.859375 279.851562 318.464844 277.859375 C 320.152344 275.722656 321.886719 273.625 323.425781 271.972656 C 326.300781 268.316406 329.296875 264.109375 332.070312 259.3125 C 333.292969 256.964844 334.535156 254.566406 335.621094 252.480469 C 336.441406 251.09375 337.167969 249.863281 337.6875 248.984375 C 338.214844 248.175781 338.804688 247.46875 339.03125 247.296875 C 339.355469 247.113281 338.941406 248.292969 338.429688 249.441406 C 337.453125 251.664062 336.433594 253.988281 335.488281 256.160156 C 335.257812 256.695312 335.203125 257.183594 335.355469 257.109375 C 335.5 257.035156 335.992188 256.253906 336.363281 255.699219 C 336.523438 255.410156 336.78125 254.945312 336.996094 254.5625 C 338.308594 251.976562 339.554688 249.617188 340.390625 247.375 C 341.144531 245.09375 341.722656 243.035156 342.105469 241.230469 C 342.300781 240.109375 342.441406 239.304688 342.625 238.234375 C 342.84375 237.117188 343.304688 235.613281 344.023438 233.835938 C 344.964844 230.777344 345.664062 228.042969 346.167969 225.296875 C 346.800781 221.175781 347.304688 220.855469 348.5625 216.382812 C 348.773438 215.710938 348.960938 215.101562 349.175781 214.410156 C 349.457031 213.445312 349.765625 211.621094 349.785156 210.78125 C 349.824219 208.707031 349.859375 206.65625 349.898438 204.648438 C 349.859375 203.550781 349.398438 204.726562 348.957031 206.53125 C 347.816406 211.210938 347.242188 216.085938 346.011719 220.792969 C 345.28125 223.363281 344.570312 225.84375 343.726562 228.324219 C 340.402344 237.945312 335.957031 247.625 330.8125 256.785156 C 328.6875 260.859375 326.144531 263.941406 323.960938 266.703125 C 322.910156 267.894531 321.636719 269.71875 320.441406 271.234375 C 316.441406 276.035156 313.015625 280.765625 308.550781 284.820312 L 302.601562 290.902344 C 300.566406 292.867188 298.34375 294.613281 296.222656 296.410156 C 294.378906 297.929688 292.578125 299.410156 290.773438 300.898438 C 288.871094 302.261719 286.957031 303.632812 284.980469 305.050781 C 281.789062 307.46875 278.675781 309.328125 275.957031 310.207031 C 274.875 310.613281 274.945312 310.128906 276.191406 309.316406 C 277.890625 308.289062 279.671875 307.074219 281.070312 305.820312 C 281.824219 305.1875 282.328125 304.597656 282.574219 304.226562 C 282.878906 303.757812 281.601562 304.257812 280.398438 305.007812 C 279.375 305.601562 278.417969 306.308594 277.316406 306.867188 C 265.921875 313.488281 253.890625 319.105469 241.175781 322.820312 C 234.710938 324.613281 228.988281 326.03125 223.933594 327.625 C 222.632812 327.890625 221.097656 328.210938 219.578125 328.527344 C 217.085938 328.996094 214.589844 329.246094 212.238281 329.316406 C 209.714844 329.488281 208.066406 328.824219 204.878906 328.886719 C 201.121094 328.859375 198.578125 329.355469 195.417969 329.554688 C 193.8125 329.503906 192.222656 329.453125 190.570312 329.402344 C 186.332031 329.085938 182.050781 329.207031 178.203125 327.929688 C 174.546875 326.898438 171.03125 326.347656 167.558594 326.082031 C 166.503906 326.03125 165.445312 325.730469 164.3125 325.519531 C 162.304688 325.09375 160.207031 324.503906 158.460938 323.78125 C 154.738281 322.394531 150.859375 320.6875 146.164062 318.898438 C 145.378906 318.609375 144.550781 318.308594 143.789062 318.027344 C 140.5 317.035156 137.5 315.5 134.597656 313.960938 C 131.726562 312.363281 128.828125 310.964844 126.425781 308.960938 C 125.597656 308.285156 123.230469 306.953125 122.507812 306.707031 C 121.882812 306.496094 121.113281 306.191406 120.792969 306.195312 C 119.828125 306.199219 117.878906 305.390625 114.941406 303.746094 C 112.679688 302.257812 110.699219 300.957031 108.398438 299.441406 C 105.203125 297.335938 102.09375 295.0625 99.253906 292.292969 C 96.40625 289.554688 93.214844 286.960938 90.796875 283.414062 C 89.5625 281.753906 88.121094 280.058594 86.660156 278.582031 C 83.777344 275.886719 81.425781 272.589844 79.011719 269.265625 L 75.414062 264.214844 C 74.320312 262.453125 73.363281 260.597656 72.339844 258.78125 C 70.476562 255.164062 68.261719 252.019531 66.703125 248.648438 C 65.140625 245.660156 63.796875 242.605469 62.398438 239.285156 C 60.140625 232.230469 57.324219 225.246094 55.820312 217.984375 C 55.160156 215.34375 54.605469 212.882812 54.28125 210.496094 C 53.972656 207.25 53.726562 203.824219 53.109375 200.375 C 51.957031 194.890625 52.109375 189.101562 51.980469 183.410156 C 51.675781 178.582031 52.566406 173.839844 52.699219 169.011719 C 52.796875 167.4375 52.980469 165.535156 53.273438 163.914062 C 53.773438 161.882812 54.253906 159.9375 54.734375 157.988281 C 55.664062 154.667969 56.027344 151.234375 56.71875 148.074219 C 57.914062 142.96875 58.914062 137.332031 61.417969 132.167969 C 63.828125 126.484375 66.128906 121.039062 68.550781 115.773438 C 68.828125 115.105469 69.257812 114.230469 69.652344 113.460938 C 72.25 107.867188 76.058594 102.859375 79.367188 97.855469 C 82.460938 94.167969 85.429688 90.59375 88.199219 86.675781 C 89.902344 84.617188 91.761719 82.839844 93.53125 81.273438 C 95.742188 79.4375 97.578125 77.164062 99.855469 75.082031 C 100.765625 74.257812 101.761719 73.359375 102.726562 72.484375 C 104.707031 70.730469 107.027344 69.105469 107.582031 69.097656 C 107.96875 69.089844 108.140625 69.277344 108.476562 69.316406 C 109.445312 69.328125 112.722656 67.316406 116.457031 64.257812 C 117.882812 63.070312 119.058594 61.964844 120.234375 60.875 C 121.378906 59.746094 122.414062 58.902344 123.730469 57.929688 C 124.066406 57.679688 125.550781 56.878906 125.730469 56.839844 C 126.621094 56.660156 127.164062 56.695312 127.980469 56.566406 C 129 56.398438 131.597656 55.207031 133.632812 53.984375 C 134.699219 53.273438 135.976562 52.828125 136.988281 52.25 C 140.355469 50.484375 143.644531 48.96875 147.1875 47.753906 C 150.558594 46.878906 154.324219 45.703125 158.035156 44.394531 C 161.25 43.117188 164.636719 42.480469 167.976562 41.640625 C 170.480469 41.039062 173.03125 40.429688 175.484375 39.839844 L 189.65625 38.191406 C 194.398438 37.929688 199.171875 37.992188 203.894531 37.984375 C 207.25 38.019531 210.773438 38.496094 214.222656 38.714844 C 216.792969 39.015625 219.46875 38.925781 221.941406 39.554688 C 232.507812 41.5625 243.125 43.898438 253.117188 48 C 257.753906 49.824219 262.375 51.628906 266.6875 53.972656 C 268.890625 55.039062 271.078125 56.09375 273.246094 57.140625 C 275.382812 58.242188 277.386719 59.519531 279.449219 60.640625 L 280.519531 61.257812 C 283.085938 62.804688 285.683594 64.175781 287.742188 66.261719 C 288.269531 66.75 289.0625 67.410156 289.652344 67.839844 C 290.152344 68.199219 290.597656 68.390625 290.941406 68.535156 C 291.066406 68.589844 290.914062 68.355469 290.722656 68.15625 C 290.28125 67.707031 289.808594 67.191406 289.230469 66.707031 C 282.191406 61.179688 275.191406 56.042969 266.699219 51.933594 C 262.207031 49.375 257.210938 47.476562 252.644531 45.367188 " fill-opacity="1" fill-rule="nonzero"/><g clip-path="url(#id1)"><path fill="rgb(14.509583%, 13.729858%, 12.939453%)" d="M 365.15625 219.578125 C 364.957031 219.628906 364.753906 219.644531 364.488281 220.136719 C 363.796875 221.539062 362.902344 223.800781 361.636719 226.816406 C 360.484375 229.777344 359.324219 232.757812 358.105469 235.886719 C 356.570312 240.023438 354.675781 242.792969 353.898438 243.125 C 353.675781 243.199219 353.230469 243.8125 352.8125 244.445312 C 352.046875 245.585938 351.09375 247.484375 350.160156 249.863281 C 349.222656 252.574219 347.746094 255.132812 346.671875 257.601562 C 344.648438 261.851562 342.75 266.257812 339.875 270.183594 C 337.714844 273.46875 335.601562 276.683594 333.523438 279.839844 C 331.234375 282.847656 329.035156 285.84375 326.914062 288.863281 C 325.945312 290.164062 324.5625 292.199219 323.371094 293.191406 C 320.273438 296.097656 317.484375 298.988281 314.464844 302.292969 C 312.671875 304.332031 310.15625 306.121094 308.011719 307.96875 C 304.011719 311.359375 299.925781 314.605469 295.515625 317.3125 C 292.589844 319.207031 290.046875 321.15625 287.496094 323.019531 C 286.421875 323.722656 285.316406 324.449219 284.1875 325.191406 C 281.597656 326.855469 279.363281 328.007812 277.289062 328.808594 C 276.097656 329.222656 274.730469 329.980469 273.175781 330.484375 C 272.683594 330.664062 271.164062 331.429688 270.984375 331.585938 C 270.441406 332.074219 270.316406 332.402344 270.453125 332.21875 C 270.492188 332.800781 270.683594 332.929688 270.449219 333.230469 C 270.3125 333.410156 269.636719 333.851562 268.953125 334.195312 C 268.261719 334.546875 267.121094 335.023438 266.433594 335.261719 C 264.890625 335.761719 263.515625 336.210938 262.089844 336.671875 C 259.472656 337.578125 257.914062 337.539062 257.585938 337.195312 C 257.40625 336.992188 257.09375 336.832031 256.679688 336.707031 C 256.480469 336.648438 256.0625 336.65625 255.476562 336.75 C 254.933594 336.839844 254.039062 337.039062 253.304688 337.28125 C 252.589844 337.515625 251.386719 338.011719 251.257812 338.136719 C 250.789062 338.609375 250.589844 338.996094 250.433594 339.375 C 250.308594 339.679688 250.421875 339.902344 250.363281 340.183594 C 250.332031 340.351562 248.441406 341.15625 247.316406 341.5 C 244.621094 342.4375 242.082031 342.566406 239.210938 343.371094 C 234.824219 344.484375 230.535156 345.980469 226.28125 346.773438 C 222.953125 347.398438 221.3125 348.269531 217.023438 348.691406 C 212.097656 349.160156 213.855469 348.222656 211.59375 348.066406 C 211.007812 347.984375 210.402344 347.902344 209.785156 347.8125 C 208.742188 347.675781 205.675781 347.671875 204.414062 347.824219 C 202.535156 348.066406 200.59375 348.316406 198.949219 348.527344 C 194.910156 349.328125 190.273438 349.171875 185.289062 349.226562 C 181.90625 349.15625 178.5625 349.117188 175.914062 348.140625 C 171.566406 346.6875 166.632812 345.765625 160.492188 344.324219 C 157.515625 343.519531 155.097656 342.617188 153.253906 341.757812 C 152.679688 341.492188 152.101562 341.203125 151.320312 340.929688 C 150.589844 340.671875 149.117188 340.230469 148.769531 340.1875 C 145.734375 339.875 142.621094 338.640625 138.117188 336.558594 C 136.761719 335.910156 134.550781 335.089844 132.828125 334.457031 C 128.613281 332.621094 125.074219 330.546875 121.851562 328.519531 C 119.28125 326.996094 116.570312 325.25 113.597656 323.390625 C 112.390625 322.648438 111.15625 321.886719 109.925781 321.132812 C 107.304688 319.445312 105.113281 318.046875 103.664062 316.40625 C 103.195312 315.929688 102.71875 315.449219 102.1875 314.90625 C 100.492188 313.261719 99.023438 312.03125 97.078125 310.828125 C 93.992188 309.050781 91.082031 306.714844 88.292969 304 C 85.511719 301.289062 82.445312 298.609375 79.875 295.320312 C 79.300781 294.59375 78.714844 293.851562 78.160156 293.152344 C 75.578125 289.6875 72.632812 286.695312 69.996094 283.4375 C 69.199219 282.402344 68.320312 281.257812 67.457031 280.136719 C 66.277344 278.5625 65.199219 276.96875 64.367188 275.511719 C 63.789062 274.476562 63.261719 273.53125 62.699219 272.523438 C 61.773438 270.738281 60.832031 268.683594 59.480469 266.578125 C 56.6875 262.125 54.003906 257.71875 52.332031 252.773438 C 51.082031 249.34375 49.382812 245.867188 47.933594 242.253906 L 45.527344 235.503906 C 44.621094 232.953125 43.757812 230.429688 43.023438 227.960938 C 42.492188 225.433594 42.050781 222.972656 41.726562 220.617188 C 41.332031 217.070312 40.261719 213.53125 39.679688 209.726562 C 38.960938 205.476562 38.46875 201.363281 38.34375 197.34375 C 38.25 193.027344 38.453125 188.332031 38.09375 183.480469 C 38.019531 182.105469 37.945312 180.730469 37.871094 179.328125 C 37.9375 175.445312 38.371094 171.6875 38.882812 168.136719 C 39.09375 166.867188 39.296875 165.609375 39.488281 164.441406 C 40.054688 161.054688 41.015625 157.507812 41.453125 153.664062 C 41.984375 149.203125 42.914062 145.296875 44.425781 141.84375 C 44.558594 141.484375 44.714844 141.066406 44.859375 140.675781 C 45.640625 138.574219 46.300781 136.332031 46.847656 134.050781 C 47.214844 132.296875 47.648438 130.675781 48.273438 128.988281 C 49.203125 126.273438 50.316406 123.453125 51.394531 121.621094 C 52.964844 118.75 54.546875 115.582031 56.617188 111.347656 C 58.410156 107.703125 60.171875 103.578125 62.335938 100.191406 C 65.515625 94.941406 68.082031 90.480469 71.527344 87.421875 C 72.007812 86.953125 72.566406 86.398438 73.125 85.746094 C 74.273438 84.371094 75.484375 82.910156 76.648438 81.507812 C 77.828125 80.078125 78.761719 78.484375 80.042969 77.160156 C 84.011719 72.6875 85.097656 71.800781 85.632812 72.492188 C 85.746094 72.640625 85.839844 72.824219 86.253906 72.640625 C 86.460938 72.542969 87.375 71.714844 87.941406 71.136719 C 88.53125 70.535156 89.257812 69.699219 89.621094 69.203125 C 93.40625 64.644531 98.203125 60.261719 104.082031 56.503906 C 104.761719 56.085938 105.484375 55.640625 106.246094 55.171875 C 107.363281 54.410156 108.53125 53.605469 109.675781 52.820312 L 111.871094 51.167969 C 115.164062 48.425781 118.917969 46.539062 122.441406 44.476562 C 125.980469 42.429688 129.5625 40.679688 133.300781 39.546875 C 135.9375 38.652344 139.070312 37.292969 142.132812 35.863281 C 143.398438 35.253906 144.738281 34.875 146.046875 34.375 C 148.816406 33.382812 151.480469 32.566406 153.578125 32.183594 C 157.023438 31.410156 161.136719 30.683594 166.039062 29.550781 C 169.523438 28.746094 172.207031 28.328125 174.226562 28.386719 C 175.023438 28.429688 175.878906 28.472656 176.816406 28.523438 C 178.027344 28.558594 180.3125 28.316406 181.964844 28.023438 C 186.683594 27.160156 190.414062 26.1875 194.441406 25.832031 C 195.382812 25.710938 197.882812 25.769531 198.074219 25.921875 C 198.542969 26.28125 198.816406 26.648438 199.339844 27.003906 C 199.941406 27.414062 203.582031 27.5625 205.765625 27.269531 C 209.964844 27.089844 214.136719 26.910156 218.144531 26.742188 C 219.515625 26.679688 219.863281 26.433594 219.289062 26.128906 C 218.582031 25.75 217.074219 25.363281 214.683594 25.082031 C 212.933594 24.875 210.921875 24.714844 209.113281 24.613281 C 204.515625 24.195312 200.65625 24.566406 197.84375 23.957031 C 195.804688 23.609375 193.058594 23.464844 189.542969 23.464844 C 186.773438 23.667969 184.042969 23.875 181.441406 24.070312 C 177.027344 24.351562 172.640625 24.507812 167.796875 25.78125 C 164.414062 26.542969 161.292969 27.054688 158.710938 27.335938 C 153.480469 28.09375 147.566406 29.890625 140.976562 32.027344 C 138.765625 32.925781 136.574219 33.816406 134.445312 34.679688 C 131.378906 35.960938 128.265625 37.113281 125.355469 38.851562 C 122.871094 40.367188 120.378906 41.722656 117.851562 43.046875 C 115.8125 44.171875 113.613281 45.117188 111.660156 46.492188 C 107.328125 49.550781 102.878906 52.554688 98.703125 55.769531 C 94.351562 59.53125 89.882812 62.378906 85.671875 66.652344 L 81.597656 70.78125 C 75.644531 76.53125 70.8125 83.25 65.703125 89.179688 C 64.972656 90.253906 64.089844 91.5625 63.273438 92.765625 C 58.214844 99.917969 54.015625 107.398438 50.140625 115.441406 C 49.777344 116.308594 49.355469 117.300781 49.011719 118.113281 C 47.441406 121.507812 45.929688 125.023438 44.464844 128.609375 C 43.015625 132.199219 42.125 136.042969 40.96875 139.816406 C 40.242188 142.605469 39.089844 145.324219 38.601562 148.171875 C 35.972656 158.730469 33.820312 175.339844 34.324219 184.417969 C 34.371094 186.335938 34.445312 188.519531 34.605469 190.046875 C 34.882812 193.996094 35.4375 198.140625 36.113281 202.390625 C 36.820312 206.628906 36.964844 211.058594 38.007812 215.34375 C 39.117188 220.332031 39.984375 225.40625 41.316406 230.304688 C 42.78125 235.1875 44.234375 240.023438 45.652344 244.765625 C 47.300781 249.042969 49.226562 253.625 51.15625 258.101562 C 52.640625 261.441406 54.617188 264.574219 56.363281 267.824219 C 58.152344 271.050781 59.894531 274.292969 61.988281 277.273438 C 63.199219 279.132812 64.8125 281.257812 66.242188 283.179688 C 67.976562 285.625 69.742188 287.914062 71.546875 290.109375 C 74.203125 293.480469 76.863281 296.765625 80.078125 299.976562 C 83.457031 303.109375 86.855469 306.265625 90.257812 309.425781 L 100.9375 318.339844 C 103.082031 320.324219 105.648438 321.816406 108.125 323.300781 C 111.132812 325.082031 113.941406 326.917969 116.390625 328.800781 C 119.300781 330.769531 122.554688 332.484375 126.257812 334.210938 C 130.675781 336.445312 135.347656 338.191406 139.222656 340.164062 C 141.425781 341.265625 143.722656 342.339844 146.148438 343.300781 C 148.632812 344.089844 151.21875 344.832031 153.902344 345.546875 C 156.734375 346.273438 159.554688 347.078125 162.339844 347.652344 C 166.316406 348.261719 170.238281 348.964844 173.570312 349.894531 C 177.90625 351.277344 182.363281 351.402344 187.519531 351.757812 C 191.894531 352.105469 196.324219 352.320312 200.71875 352.121094 C 205.117188 352.128906 209.472656 352.128906 213.695312 352.136719 C 214.894531 352.082031 216.703125 351.90625 217.984375 351.710938 C 223.386719 350.78125 228.675781 350.515625 233.921875 349.371094 C 235.257812 349.140625 236.828125 348.777344 238.265625 348.445312 C 244.605469 347.199219 250.757812 345.066406 256.75 342.902344 C 260.792969 341.617188 264.613281 339.820312 268.457031 338.082031 C 272.277344 336.304688 276.25 334.828125 279.878906 332.644531 C 285.074219 329.683594 290.402344 327.019531 295.097656 323.304688 C 298.257812 321.019531 301.617188 318.585938 304.6875 316.363281 C 310.03125 311.828125 315.5625 307.769531 319.933594 302.464844 C 322.226562 299.902344 324.609375 297.402344 327.050781 295.054688 C 330.929688 290.660156 334.597656 286.113281 337.882812 281.238281 C 339.355469 278.8125 340.898438 276.289062 342.421875 273.78125 C 346 268.386719 348.683594 262.683594 351.863281 257.148438 C 354.253906 253.285156 355.730469 248.941406 357.683594 244.785156 C 359.65625 240.628906 361.148438 236.269531 362.5 231.839844 C 363.371094 229.132812 364.195312 226.136719 364.984375 223.261719 C 365.328125 221.441406 365.410156 219.511719 365.15625 219.578125 " fill-opacity="1" fill-rule="nonzero"/></g><g clip-path="url(#id2)"><path fill="rgb(14.509583%, 13.729858%, 12.939453%)" d="M 297.96875 335.464844 C 297.515625 335.71875 296.445312 336.3125 295.703125 336.722656 C 294.402344 337.535156 293.058594 338.371094 291.875 339.113281 C 288.816406 341.113281 285.746094 342.867188 282.679688 344.253906 C 278.363281 345.996094 273.769531 347.773438 268.875 350.238281 C 265.582031 352.011719 262.195312 352.902344 258.738281 353.902344 C 256.976562 354.398438 254.808594 355.128906 252.847656 355.78125 C 250.84375 356.40625 248.835938 357.320312 246.867188 357.652344 C 241.402344 358.804688 236.644531 359.988281 232.347656 361.332031 C 231.554688 361.609375 230.558594 361.820312 229.617188 361.96875 C 225.769531 362.6875 222.03125 362.960938 220.753906 362.632812 C 220.113281 362.46875 219.875 362.238281 219.132812 362.09375 C 218.808594 362.027344 217.683594 362.023438 216.921875 362.105469 C 215.472656 362.269531 213.78125 362.515625 212.617188 362.71875 C 209.78125 363.027344 209.953125 363.445312 208.800781 363.816406 C 207.96875 364.082031 206.4375 364.28125 204.238281 364.386719 C 201.128906 364.539062 197.960938 364.652344 194.832031 364.550781 C 191.121094 364.179688 191.445312 363.714844 190.460938 363.308594 C 190.292969 363.238281 190.144531 363.15625 189.785156 363.089844 C 189.023438 362.949219 188.175781 362.765625 187.28125 362.683594 C 185.21875 362.511719 183.082031 362.335938 181.027344 362.164062 C 176.214844 361.988281 172.058594 361.265625 167.90625 360.84375 C 164.566406 360.394531 161.011719 359.980469 157.324219 358.890625 C 154.332031 357.980469 151.285156 357.058594 148.25 356.140625 C 141.015625 354.289062 134.296875 351.050781 127.945312 349.226562 C 125.234375 348.515625 122.164062 346.6875 119.765625 345.269531 C 115.636719 342.582031 111.148438 340.617188 106.640625 337.808594 C 104.957031 336.804688 103.097656 335.695312 101.378906 334.667969 C 99.34375 333.460938 97.355469 332.253906 95.453125 330.964844 C 93.640625 329.546875 91.886719 328.085938 90.21875 326.558594 C 86.234375 322.929688 81.769531 319.535156 77.472656 315.425781 C 70.691406 309.714844 64.804688 302.832031 59.09375 295.789062 C 57.476562 293.730469 56.019531 291.464844 54.457031 289.339844 C 51.355469 284.957031 48.199219 280.683594 45.914062 276.003906 C 43.925781 272.222656 41.828125 268.707031 39.730469 265.050781 C 36.417969 258.003906 32.632812 250.925781 30.511719 243.152344 L 27.453125 233.304688 C 26.578125 229.980469 25.960938 226.59375 25.238281 223.246094 C 23.5 216.015625 22.773438 208.699219 21.777344 201.347656 C 20.949219 196.636719 21.046875 191.972656 21.183594 187.375 C 21.25 185.605469 21.238281 183.121094 21.152344 181.222656 C 21.058594 173.214844 21.933594 165.363281 23.183594 157.695312 C 24.144531 153.046875 25.03125 148.546875 25.800781 143.785156 C 27.203125 137.695312 28.855469 131.488281 31.859375 123.671875 C 32.644531 121.757812 34.238281 117.855469 35.832031 113.964844 C 36.601562 112.171875 37.160156 110.089844 37.875 108.539062 C 38.59375 106.808594 38.601562 106.21875 38.25 106.324219 C 37.988281 106.421875 36.636719 108.25 35.988281 109.71875 C 34.15625 114.132812 32.300781 118.625 30.503906 122.949219 C 28.457031 127.855469 27.191406 132.96875 25.714844 138.136719 C 24.695312 141.960938 23.792969 145.328125 23.019531 148.21875 C 21.632812 153.269531 20.039062 159.132812 19.730469 165.941406 L 18.84375 177.148438 C 18.785156 180.882812 18.722656 184.597656 18.664062 188.261719 C 18.617188 192.542969 18.640625 196.746094 19.523438 200.480469 C 20.089844 203.375 20.410156 206.363281 20.625 209.535156 C 20.78125 214.445312 21.769531 219.527344 23.03125 224.90625 C 24.695312 233.4375 27.664062 241.503906 30.214844 249.699219 C 31.976562 254.210938 33.980469 258.652344 36.082031 262.898438 C 37.886719 266.835938 40.046875 270.355469 41.847656 274.070312 C 43.703125 277.535156 45.214844 281.292969 47.875 284.871094 C 55.128906 295.621094 63.253906 305.820312 72.617188 314.777344 L 79.953125 321.757812 C 82.523438 323.945312 85.214844 325.992188 87.847656 328.097656 C 93.027344 332.449219 98.699219 336.085938 104.324219 339.734375 C 123.046875 351.605469 144.117188 359.753906 165.851562 363.828125 C 183.335938 367.375 201.257812 367.609375 218.890625 365.851562 C 236.125 364.480469 252.546875 359.253906 268.375 353.042969 C 273.855469 350.484375 278.953125 348.144531 283.652344 345.453125 C 288.210938 342.535156 292.636719 339.699219 297.175781 336.792969 C 297.539062 336.523438 297.789062 336.269531 298.015625 336.054688 C 298.238281 335.839844 298.527344 335.5625 298.5 335.515625 C 298.445312 335.414062 298.4375 335.246094 297.96875 335.464844 " fill-opacity="1" fill-rule="nonzero"/></g><path fill="rgb(14.509583%, 13.729858%, 12.939453%)" d="M 127.789062 307.84375 C 131.890625 310.273438 135.917969 312.164062 140.019531 314.15625 C 143.445312 315.613281 146.882812 316.605469 150.074219 317.648438 C 153.457031 318.847656 157.066406 319.796875 160.3125 321.070312 C 163.457031 322.222656 166.628906 323.695312 170.613281 324.078125 C 174.105469 324.730469 177.640625 325.394531 181.171875 326.058594 C 184.746094 326.375 188.304688 326.644531 191.785156 327.125 C 195.226562 327.734375 198.382812 327.53125 201.46875 327.183594 C 204.492188 326.808594 207.785156 326.800781 211.199219 326.722656 C 217.425781 326.078125 223.753906 325.886719 229.710938 323.96875 C 232.117188 323.328125 234.507812 322.703125 236.976562 322.277344 C 241.550781 321.394531 245.660156 319.648438 249.890625 318.078125 C 253.230469 316.902344 256.492188 314.933594 259.8125 313.417969 C 262.832031 312.019531 265.804688 310.589844 269.1875 308.742188 C 272.324219 307.09375 276.058594 305.394531 279.160156 302.671875 C 280.707031 301.472656 282.382812 300.175781 283.933594 298.972656 C 285.976562 297.351562 286.847656 296.355469 286.757812 295.921875 C 286.714844 295.726562 286.488281 295.648438 286.136719 295.675781 C 285.230469 295.753906 282.847656 297.007812 280.609375 298.59375 C 278.570312 299.988281 276.660156 301.574219 274.550781 302.859375 C 272.164062 304.246094 270.382812 305.039062 268.988281 305.425781 C 268.160156 305.652344 267.242188 305.9375 266.195312 306.332031 C 265.753906 306.5 264.761719 307.023438 264.183594 307.386719 C 263.238281 308.046875 262.171875 308.570312 261.40625 309.039062 C 258.175781 310.96875 254.558594 312.910156 250.0625 314.398438 C 246.601562 315.296875 243.132812 316.472656 239.691406 317.777344 C 236.324219 319.085938 232.6875 319.691406 229.058594 320.53125 C 222.921875 322.117188 216.957031 322.378906 211.160156 323.613281 C 207.695312 324.082031 204.097656 324.136719 200.515625 324.410156 C 197.984375 324.550781 195.601562 324.648438 193.550781 324.097656 C 192.617188 323.90625 191.640625 323.710938 190.609375 323.507812 C 188.761719 323.171875 186.675781 322.984375 184.679688 322.921875 C 182.730469 322.929688 180.871094 322.828125 179.085938 322.582031 C 176.550781 322.34375 174.1875 322.117188 171.601562 321.875 C 168.410156 321.664062 165.300781 320.699219 162.5625 319.511719 C 161.671875 319.125 160.828125 318.730469 159.78125 318.359375 C 158.773438 318 157.472656 317.597656 156.398438 317.328125 C 155.265625 317.085938 154.25 316.835938 153.28125 316.539062 C 149.082031 315.238281 144.394531 313.792969 139.953125 311.324219 C 138.898438 310.71875 137.808594 310.09375 136.828125 309.53125 C 134.613281 308.1875 132.488281 307.039062 130.402344 306.039062 C 128.40625 304.878906 126.496094 303.800781 124.554688 302.863281 C 123.386719 302.261719 122.089844 301.59375 120.8125 300.9375 C 118.726562 299.953125 116.582031 298.378906 114.972656 296.796875 C 112.820312 294.738281 110.644531 292.8125 108.371094 291.003906 C 106.207031 289.0625 104.085938 287.082031 101.722656 285.277344 C 101.46875 285.058594 101.128906 284.765625 100.828125 284.503906 C 99.277344 283.105469 97.683594 281.746094 96.589844 280.105469 C 95.714844 278.886719 94.933594 277.796875 94.058594 276.574219 C 93.117188 275.296875 91.933594 273.917969 90.941406 273.03125 C 88.632812 271.171875 86.644531 268.269531 84.457031 265.742188 C 83.765625 264.910156 83.136719 264.269531 82.507812 263.601562 C 81.601562 262.644531 81.230469 262.820312 81.671875 263.949219 C 82.03125 264.851562 82.992188 266.480469 83.867188 267.621094 C 84.621094 268.585938 85.371094 269.539062 86.082031 270.449219 C 87.597656 272.503906 89.335938 274.289062 90.53125 276.121094 C 93.84375 280.777344 94.605469 282.28125 98.875 285.652344 C 100.609375 287.09375 102.539062 288.871094 104.375 290.558594 C 107.914062 293.878906 112.003906 296.578125 115.730469 299.691406 C 119.605469 302.628906 123.8125 305.089844 127.789062 307.84375 " fill-opacity="1" fill-rule="nonzero"/><path fill="rgb(14.509583%, 13.729858%, 12.939453%)" d="M 55.769531 186.378906 C 55.910156 187.707031 55.894531 189.726562 55.960938 191.417969 C 55.933594 194.394531 56.554688 197.335938 56.9375 200.234375 C 57.355469 202.929688 57.777344 205.597656 58.183594 208.191406 C 58.753906 210.757812 59.558594 213.203125 60.265625 215.546875 C 61.019531 217.945312 61.425781 220.375 61.582031 222.390625 C 61.738281 223.90625 61.976562 225.175781 62.242188 226.726562 C 62.335938 227.230469 62.734375 228.542969 62.929688 228.980469 C 64.574219 232.570312 65.988281 236.976562 68.167969 240.84375 C 69.617188 243.691406 71.070312 246.328125 72.46875 248.828125 C 73.214844 249.96875 73.949219 250.742188 74.570312 251.429688 C 75.417969 252.355469 75.542969 251.578125 74.925781 249.9375 C 74.429688 248.796875 73.792969 247.347656 73.101562 245.757812 C 72.550781 244.664062 72.011719 243.582031 71.488281 242.535156 C 69.359375 238.566406 67.53125 234.457031 66.535156 230.011719 C 66.214844 228.898438 65.878906 227.707031 65.546875 226.539062 C 64.964844 224.570312 64.09375 222.625 63.699219 220.660156 C 63.246094 219.125 62.835938 217.710938 62.410156 216.253906 C 61.632812 213.5625 60.902344 210.789062 60.523438 207.898438 C 60.46875 207.105469 60.414062 206.316406 60.359375 205.5 C 60.0625 201.972656 59.738281 198.488281 59.308594 195.058594 C 59.007812 191.617188 59 188.203125 58.585938 184.847656 C 58.421875 182.585938 58.164062 179.9375 58.691406 177.613281 C 58.941406 176.167969 59.183594 174.789062 59.4375 173.324219 C 59.824219 170.984375 60.03125 168.546875 60.058594 166.113281 C 60.015625 164.96875 60.226562 163.921875 60.292969 162.839844 C 60.554688 160.09375 61.042969 157.179688 61.792969 154.660156 C 62.886719 150.234375 64.683594 145.632812 65.808594 140.738281 C 66.195312 139.140625 66.5625 137.601562 67.140625 136.117188 C 67.523438 134.984375 67.890625 133.894531 68.277344 132.757812 C 69.132812 130.285156 70.089844 128.019531 71.0625 126.441406 C 72.625 123.980469 74.363281 121.3125 75.808594 117.628906 C 77.085938 114.144531 79.03125 110.832031 81.183594 107.574219 C 83.265625 104.269531 85.425781 100.9375 88.070312 97.984375 L 91.21875 94.15625 C 93.140625 91.59375 94.589844 89.699219 95.421875 88.304688 C 95.941406 87.371094 95.027344 87.699219 93.65625 88.988281 C 92.753906 89.773438 91.9375 90.675781 91.179688 91.644531 C 87.195312 96.570312 83.117188 101.449219 79.839844 106.902344 C 75.757812 112.597656 72.851562 118.996094 69.617188 125.191406 C 67.019531 131.6875 64.179688 138.109375 62.527344 144.933594 C 60.972656 149.730469 59.96875 153.886719 58.914062 156.046875 C 57.921875 158.054688 56.886719 161.644531 56.363281 166.347656 C 55.867188 173.089844 54.785156 179.984375 55.769531 186.378906 " fill-opacity="1" fill-rule="nonzero"/><path fill="rgb(14.509583%, 13.729858%, 12.939453%)" d="M 313.066406 250.671875 C 313.757812 249.773438 314.214844 248.664062 314.753906 247.644531 L 315.222656 246.632812 C 315.644531 245.769531 315.839844 244.730469 315.449219 245.207031 C 313.757812 247.289062 312.273438 248.984375 312.027344 247.785156 C 312.007812 247.429688 310.566406 249.324219 309.417969 250.980469 C 307.375 253.953125 305.625 257.109375 303.375 259.863281 C 301.082031 262.570312 298.808594 265.253906 296.566406 267.902344 C 295.226562 269.167969 293.980469 270.558594 292.859375 271.933594 C 291.328125 273.808594 289.972656 275.578125 288.699219 277.308594 C 287.285156 278.90625 285.9375 280.425781 284.589844 281.945312 C 281.339844 286.050781 276.691406 289.664062 270.832031 293.554688 C 266.773438 295.894531 262.875 298.132812 259.40625 300.597656 C 256.679688 302.09375 253.855469 303.589844 250.683594 305.082031 C 243.15625 308.222656 236.042969 311.144531 228.515625 313.015625 C 226.527344 313.550781 224.558594 314.171875 222.523438 314.59375 C 220.460938 314.886719 218.375 315.179688 216.230469 315.484375 C 210.859375 316.453125 205.414062 316.648438 200.109375 316.921875 C 195.921875 317.394531 191.765625 316.929688 187.5625 316.816406 C 183.335938 316.832031 179.179688 316.105469 174.957031 315.441406 C 173.863281 315.273438 172.742188 315.164062 171.847656 315.121094 C 171.375 315.097656 171.28125 315.242188 171.199219 315.34375 C 171.171875 315.382812 171.605469 315.527344 171.925781 315.617188 C 173.703125 316.101562 175.664062 316.433594 177.617188 316.761719 C 181.496094 317.589844 185.445312 317.855469 189.402344 318.121094 C 193.347656 318.519531 197.308594 318.804688 201.308594 318.589844 C 208.40625 318.8125 215.453125 317.613281 222.542969 316.777344 C 223.308594 316.726562 224.046875 316.472656 224.792969 316.269531 C 228.886719 315.136719 233.039062 314.171875 237.035156 312.960938 C 239.613281 311.964844 242.132812 311.09375 244.578125 310.410156 C 245.511719 310.148438 246.238281 309.941406 246.988281 309.730469 C 250.183594 308.878906 251.339844 307.898438 252.492188 306.828125 C 253.347656 305.929688 254.90625 304.972656 257.429688 303.707031 C 260.6875 302.28125 263.605469 300.066406 266.664062 298.246094 C 268.167969 297.292969 269.664062 296.339844 271.140625 295.402344 C 272.507812 294.296875 273.855469 293.203125 275.1875 292.128906 C 276.261719 291.246094 277.570312 290.261719 278.8125 289.398438 C 283.304688 286.242188 286.964844 282.351562 290.972656 278.792969 C 299.332031 270.238281 306.558594 260.765625 313.066406 250.671875 " fill-opacity="1" fill-rule="nonzero"/><path fill="rgb(14.509583%, 13.729858%, 12.939453%)" d="M 334.492188 267.546875 C 331.859375 270.988281 329.574219 274.941406 326.585938 278.15625 C 323.882812 281.257812 321.363281 284.390625 318.964844 287.734375 C 316.566406 290.539062 314.09375 293.109375 311.535156 295.316406 C 309.199219 297.5 306.324219 299.996094 303.496094 302.242188 C 301.007812 304.253906 298.578125 306.289062 296.328125 307.792969 C 293.109375 309.628906 289.839844 311.949219 286.476562 314.496094 C 283.355469 317.046875 279.785156 318.839844 276.382812 321.035156 C 274.636719 322.066406 272.875 323.105469 271.089844 324.15625 C 269.195312 324.996094 267.273438 325.847656 265.308594 326.71875 C 263.308594 327.566406 261.152344 328.660156 259.175781 329.640625 C 253.921875 332.074219 248.289062 333.839844 242.703125 335.902344 C 236.921875 337.253906 231.109375 338.941406 225.125 339.875 C 223.300781 340.136719 221.347656 340.421875 219.707031 340.65625 C 212.023438 342.371094 203.679688 342.386719 195.34375 342.707031 C 194.464844 342.695312 193.609375 342.679688 192.816406 342.664062 C 192.484375 342.664062 192.066406 342.714844 192.160156 342.753906 C 192.464844 342.886719 192.839844 343.078125 193.460938 343.152344 C 195.664062 343.535156 197.996094 343.324219 200.875 343.429688 C 204.527344 343.316406 208.765625 343.472656 212.96875 343.085938 C 219.707031 342.125 226.554688 341.863281 233.164062 340.101562 L 243.140625 337.90625 L 252.890625 334.824219 C 257.632812 333.519531 262.128906 331.480469 266.652344 329.492188 C 271.261719 327.660156 275.605469 325.289062 279.855469 322.773438 C 284.890625 320.125 289.515625 316.859375 294.101562 313.546875 C 298.863281 310.464844 302.992188 306.59375 307.375 303.039062 C 308.433594 302.148438 309.546875 301.210938 310.574219 300.25 C 319.753906 290.777344 328.664062 280.929688 335.558594 269.625 C 336.554688 268.050781 337.574219 266.441406 338.578125 264.859375 C 339.574219 263.097656 339.980469 261.273438 339.53125 261.550781 C 338.617188 262.117188 336.992188 264.246094 334.492188 267.546875 " fill-opacity="1" fill-rule="nonzero"/><g clip-path="url(#id3)"><path fill="rgb(14.509583%, 13.729858%, 12.939453%)" d="M 56.75 98.269531 C 57.453125 97.636719 58.84375 95.75 59.574219 94.324219 C 61.550781 90.570312 63.929688 86.382812 67.226562 82.558594 C 73.84375 73.988281 81.308594 66.074219 89.488281 59.035156 C 90.625 58.109375 91.777344 57.167969 92.851562 56.292969 C 96.480469 53.253906 100.410156 50.449219 104.53125 47.628906 C 106.523438 46.214844 108.671875 44.726562 110.570312 43.53125 C 116.414062 40.535156 122.285156 36.847656 128.480469 34.210938 C 132.746094 32.421875 136.449219 30.722656 140.105469 28.816406 C 142.773438 27.679688 145.402344 26.910156 148.03125 26.265625 C 150.433594 25.683594 153.027344 25.140625 155.519531 24.339844 C 164.035156 22.378906 172.660156 20.4375 181.25 19.367188 C 184.179688 18.917969 187.050781 18.449219 189.882812 18.289062 C 192.726562 18.257812 195.523438 18.3125 198.28125 18.4375 C 200.035156 18.515625 201.851562 18.59375 203.589844 18.671875 C 207.710938 18.796875 211.878906 19.527344 216.292969 19.582031 C 217.199219 19.632812 218.175781 19.683594 219.132812 19.738281 C 221.671875 19.828125 223.988281 20.226562 225.957031 20.851562 C 227.457031 21.296875 228.832031 21.707031 230.285156 22.140625 C 232.1875 22.699219 234.394531 23.210938 236.890625 23.648438 C 238.324219 23.847656 239.71875 24.21875 241.089844 24.582031 C 244.9375 25.554688 248.535156 26.644531 251.730469 27.910156 C 252.472656 28.195312 253.257812 28.496094 254.050781 28.804688 C 256.492188 29.972656 259.121094 31.078125 261.8125 31.980469 C 265.574219 33.25 269.34375 34.378906 272.84375 36.058594 C 274.191406 36.640625 274.660156 36.476562 273.929688 35.84375 C 272.984375 35.042969 271.496094 33.96875 269.089844 32.828125 C 267.289062 32.128906 265.4375 31.414062 263.671875 30.726562 C 259.398438 29.273438 255.664062 27.359375 251.863281 26.054688 C 250.390625 25.484375 248.363281 24.75 246.71875 24.304688 C 242.097656 22.984375 237.648438 21.710938 233.144531 20.910156 C 228.664062 20.085938 224.308594 18.71875 219.800781 18.34375 C 215.003906 17.8125 210.414062 17.136719 205.367188 17.050781 C 204.023438 17.105469 202.210938 17.113281 201.066406 17.042969 C 194.816406 16.640625 188.007812 16.621094 181.058594 17.730469 C 178.695312 18.023438 176.230469 18.207031 173.882812 18.40625 C 169.964844 18.753906 166.234375 19.820312 162.457031 20.761719 C 160.644531 21.242188 158.789062 21.730469 156.914062 22.222656 C 149.886719 24.585938 142.890625 26.699219 136.429688 28.914062 C 133.976562 29.761719 131.125 31 128.519531 32.324219 C 123.429688 34.660156 119.191406 37.464844 114.582031 39.511719 C 113.015625 40.300781 111.0625 41.28125 109.625 42.425781 C 104.65625 46.660156 98.730469 50.105469 93.484375 54.738281 C 89.789062 57.945312 85.71875 60.8125 82.359375 64.417969 L 82.359375 64.441406 C 79.585938 67.238281 76.796875 70.054688 74.039062 72.835938 C 68.601562 79.246094 63.136719 85.722656 58.925781 93.046875 C 58.1875 94.289062 57.46875 95.5 56.761719 96.699219 C 55.875 98.230469 55.890625 99.046875 56.75 98.269531 " fill-opacity="1" fill-rule="nonzero"/></g><path fill="rgb(14.509583%, 13.729858%, 12.939453%)" d="M 332.222656 234.757812 C 333.777344 230.769531 334.757812 226.402344 336.167969 221.777344 C 336.394531 221.035156 336.574219 220.207031 336.746094 219.457031 C 337.238281 217.496094 337.363281 216.054688 337.195312 215.050781 C 337.050781 214.117188 336.464844 215.464844 335.976562 217.253906 L 334.613281 221.976562 C 333.453125 226.332031 332.328125 230.699219 330.5 234.84375 C 329.609375 237.167969 328.726562 239.476562 327.855469 241.753906 C 326.832031 243.96875 325.824219 246.148438 324.835938 248.28125 C 323.347656 251.554688 321.863281 254.878906 319.648438 257.941406 C 318.046875 260.355469 316.441406 262.8125 315.121094 265.214844 C 312.851562 268.808594 310.195312 272.277344 307.554688 275.890625 C 304.742188 279.347656 301.464844 282.554688 298.28125 285.9375 C 297.515625 286.8125 296.605469 287.621094 295.800781 288.425781 C 294.523438 289.664062 294.351562 290.515625 295.621094 289.640625 C 298.554688 287.789062 301.070312 285.351562 303.824219 283.015625 C 304.59375 282.339844 305.566406 281.324219 304.902344 281.972656 C 316.050781 270.023438 323.53125 258.550781 328.089844 246.488281 C 329.863281 242.828125 330.773438 238.769531 332.222656 234.757812 " fill-opacity="1" fill-rule="nonzero"/><path fill="rgb(14.509583%, 13.729858%, 12.939453%)" d="M 318.515625 246.921875 C 317.792969 248.1875 317.003906 249.753906 316.402344 251.078125 C 314.070312 255.074219 311.59375 259.117188 308.878906 263.03125 C 306.132812 266.402344 303.59375 269.976562 300.8125 273.277344 C 299.863281 274.300781 299.054688 275.410156 298.355469 276.359375 C 297.84375 277.054688 298.453125 276.925781 299.5625 276.089844 C 301.375 274.738281 303.269531 273.34375 304.941406 271.59375 C 306.097656 270.476562 306.972656 269.746094 307.28125 269.90625 C 307.894531 270.230469 309.246094 268.558594 311.238281 265.816406 C 313.136719 263.308594 314.578125 260.292969 315.5625 258.242188 C 316.285156 256.574219 317.195312 254.792969 318.257812 252.90625 C 319.191406 250.949219 320.195312 248.835938 321.265625 246.597656 C 321.769531 245.523438 322.273438 244.453125 322.761719 243.417969 C 326.359375 234.976562 328.953125 226.210938 331.183594 216.964844 C 331.757812 215.1875 331.710938 213.367188 331.898438 211.707031 C 331.941406 211.21875 331.792969 211.089844 331.695312 210.972656 C 331.664062 210.933594 331.5 211.378906 331.433594 211.671875 C 331.058594 213.171875 330.953125 214.757812 330.082031 217.183594 C 328.472656 221.367188 327.5625 226.808594 325.320312 231.902344 L 322.40625 239.601562 C 321.207031 242.074219 319.875 244.507812 318.515625 246.921875 " fill-opacity="1" fill-rule="nonzero"/><path fill="rgb(14.509583%, 13.729858%, 12.939453%)" d="M 322.773438 124.984375 C 323.203125 125.585938 323.65625 126.246094 324 126.613281 C 325.082031 127.761719 326.390625 130.136719 327.828125 133.320312 C 329.113281 136.273438 329.933594 139.417969 331.015625 142.457031 C 332.105469 145.503906 333.058594 148.585938 333.609375 151.773438 L 335.335938 160.03125 C 335.804688 162.796875 335.933594 165.617188 336.273438 168.414062 C 336.433594 169.941406 336.675781 171.648438 336.9375 173.027344 C 337.105469 173.910156 337.429688 174.777344 337.59375 174.855469 C 337.757812 174.933594 337.84375 174.128906 337.898438 173.445312 C 337.933594 172.996094 337.886719 172.109375 337.824219 171.351562 C 337.105469 155.714844 333.023438 140.101562 325.921875 125.792969 C 325.394531 124.703125 324.871094 123.605469 324.367188 122.5625 C 322.890625 119.933594 321.667969 118.71875 320.820312 118.445312 C 320.746094 118.605469 320.492188 118.800781 320.457031 119.34375 C 320.4375 119.652344 320.726562 120.472656 320.941406 121.148438 C 321.300781 122.023438 322.339844 124.277344 322.773438 124.984375 " fill-opacity="1" fill-rule="nonzero"/><path fill="rgb(14.509583%, 13.729858%, 12.939453%)" d="M 59.105469 150.527344 C 59.371094 150.140625 59.90625 148.902344 60.207031 147.917969 C 60.8125 145.925781 61.417969 143.769531 61.882812 141.839844 C 62.503906 139.496094 62.777344 137.175781 63.542969 135.066406 C 64.484375 132.015625 65.679688 128.886719 67.078125 125.710938 C 68.128906 122.96875 69.851562 120.589844 71.421875 117.640625 C 72.191406 116.101562 73.183594 114.121094 74.09375 112.296875 C 75.613281 109.304688 77.523438 106.492188 79.289062 103.570312 C 81.007812 100.609375 83.011719 97.824219 85.226562 95.164062 C 86.5 93.472656 87.78125 91.769531 89.039062 90.097656 C 89.980469 88.78125 90.597656 87.410156 90.226562 87.410156 C 89.753906 87.339844 88.210938 88.855469 87.113281 90.289062 C 83.765625 94.757812 80.285156 99.070312 77.277344 103.882812 C 76.589844 104.886719 75.921875 106.066406 75.261719 107.160156 C 72.214844 111.773438 70.203125 117.078125 68.128906 121.640625 C 67.605469 122.839844 66.671875 124.980469 66.144531 126.199219 C 64.21875 130.398438 62.277344 134.28125 61.285156 138.9375 C 60.8125 141.113281 59.902344 143.921875 59.320312 146.296875 C 58.960938 147.761719 58.742188 149.214844 58.667969 150.164062 C 58.613281 150.789062 58.882812 150.925781 59.105469 150.527344 " fill-opacity="1" fill-rule="nonzero"/><path fill="rgb(14.509583%, 13.729858%, 12.939453%)" d="M 163.132812 47.210938 C 163.132812 46.78125 160.519531 47.1875 158.3125 47.996094 C 155.140625 49.148438 152.019531 50.175781 148.894531 51.160156 L 139.851562 54.933594 C 137.261719 55.878906 134.609375 57.371094 132.1875 58.925781 C 131.183594 59.527344 130.242188 60.191406 129.398438 60.789062 C 128.183594 61.644531 127.632812 62.207031 127.90625 62.363281 C 128.21875 62.546875 129.972656 61.933594 131.4375 61.136719 C 132.152344 60.746094 132.914062 60.324219 133.570312 59.964844 C 137.753906 57.085938 142.363281 55.664062 146.460938 54.1875 C 147.292969 53.929688 148.753906 53.296875 149.714844 52.84375 C 154.152344 51.179688 158.566406 49.476562 162.289062 47.757812 C 162.796875 47.523438 162.867188 47.394531 163.132812 47.210938 " fill-opacity="1" fill-rule="nonzero"/><path fill="rgb(14.509583%, 13.729858%, 12.939453%)" d="M 357.035156 259.964844 C 356.882812 260.210938 356.605469 260.667969 356.085938 261.53125 C 355.242188 263.324219 354.21875 265.496094 353.179688 267.710938 C 351.574219 271.367188 349.433594 274.738281 347.386719 278.167969 C 345.246094 281.53125 343.4375 285.136719 341.015625 288.257812 C 339.054688 291.050781 337.179688 293.726562 335.40625 296.261719 C 334.386719 297.738281 334.039062 298.582031 334.339844 298.636719 C 334.632812 298.691406 336.605469 296.683594 338.246094 294.640625 C 339.21875 293.429688 340.347656 292.066406 341.105469 290.988281 C 344.128906 286.996094 346.453125 282.53125 348.949219 278.242188 C 350.160156 276.074219 351.421875 273.953125 352.546875 271.769531 L 355.5625 265.070312 C 356.625 262.671875 357.304688 260.632812 357.363281 259.675781 C 357.375 259.558594 357.195312 259.734375 357.035156 259.964844 " fill-opacity="1" fill-rule="nonzero"/><path fill="rgb(14.509583%, 13.729858%, 12.939453%)" d="M 37.195312 139.296875 C 35.859375 143.914062 35.164062 148.625 34.542969 153.285156 C 34.457031 153.882812 34.527344 154.492188 34.644531 154.414062 C 34.761719 154.332031 35.019531 153.527344 35.214844 152.808594 C 35.386719 152.027344 35.617188 151 35.832031 150.0625 C 38.179688 139.765625 41.378906 129.125 45.875 120.152344 C 46.660156 118.503906 47.277344 116.574219 47.640625 115.167969 C 47.816406 114.515625 47.972656 113.941406 48.089844 113.484375 C 48.660156 111.339844 46.75 113.28125 45.261719 117.472656 C 43.492188 122.324219 41.453125 126.554688 39.832031 130.964844 C 39.390625 132.277344 38.921875 133.679688 38.359375 135.351562 C 38.035156 136.464844 37.585938 137.976562 37.195312 139.296875 " fill-opacity="1" fill-rule="nonzero"/><path fill="rgb(14.509583%, 13.729858%, 12.939453%)" d="M 107.085938 78.726562 C 109.667969 75.953125 112.554688 72.519531 116.800781 69.652344 C 117.757812 68.949219 118.695312 68.1875 119.472656 67.519531 C 119.925781 67.128906 120.042969 66.875 120.3125 66.554688 C 120.050781 66.601562 119.957031 66.460938 119.492188 66.722656 C 118.039062 67.53125 116.472656 68.367188 114.878906 69.421875 C 110.664062 72.128906 107.101562 75.824219 103.582031 79.035156 C 102.507812 79.992188 101.660156 81.148438 101.253906 81.890625 C 100.28125 83.679688 101.894531 82.980469 104.609375 80.945312 C 105.246094 80.492188 106.621094 79.253906 107.085938 78.726562 " fill-opacity="1" fill-rule="nonzero"/><path fill="rgb(14.509583%, 13.729858%, 12.939453%)" d="M 337.359375 199.011719 C 337.535156 200.167969 337.6875 201.203125 337.773438 201.773438 C 338.324219 202.644531 338.925781 201.09375 339.453125 197.96875 C 339.757812 196.195312 339.917969 193.917969 339.863281 192.316406 C 339.800781 190.542969 339.5625 189.9375 339.210938 190.359375 C 338.648438 191.027344 338.101562 192.925781 337.59375 195.683594 C 337.433594 196.535156 337.285156 198.421875 337.359375 199.011719 " fill-opacity="1" fill-rule="nonzero"/><path fill="rgb(14.509583%, 13.729858%, 12.939453%)" d="M 185.554688 43.835938 C 186.265625 43.621094 186.570312 43.382812 186.652344 43.195312 C 186.753906 42.96875 184.972656 42.972656 181.953125 43.28125 C 181.1875 43.378906 179.121094 43.636719 177.113281 43.890625 C 175.960938 44.015625 174.878906 44.488281 173.921875 44.769531 C 171.980469 45.421875 171.636719 45.972656 173.007812 46 C 174.15625 46.074219 176.386719 45.53125 178.265625 45.328125 C 181.011719 44.882812 183.65625 44.398438 185.554688 43.835938 " fill-opacity="1" fill-rule="nonzero"/><path fill="rgb(14.509583%, 13.729858%, 12.939453%)" d="M 288.539062 77.140625 C 288.875 77.273438 288.964844 77.179688 289.167969 77.191406 C 288.960938 76.898438 288.785156 76.648438 288.53125 76.289062 C 288.402344 76.132812 288.066406 75.824219 287.78125 75.582031 C 284.679688 73.039062 281.460938 70.648438 279.507812 70.265625 C 278.816406 70.078125 278.902344 70.511719 279.683594 71.1875 C 280.539062 71.832031 282.058594 73.167969 283.160156 73.925781 C 285.308594 75.40625 287.222656 76.605469 288.539062 77.140625 " fill-opacity="1" fill-rule="nonzero"/><path fill="rgb(14.509583%, 13.729858%, 12.939453%)" d="M 315.988281 109.808594 C 316.464844 110.269531 316.855469 110.414062 316.824219 110.109375 C 316.789062 109.804688 316.300781 108.8125 315.78125 108.003906 C 313.773438 104.890625 311.601562 102.246094 310.046875 100.964844 C 309.898438 100.839844 309.835938 100.867188 309.734375 100.820312 C 309.386719 100.699219 309.925781 102.027344 310.671875 103.132812 C 312.566406 105.949219 314.390625 108.257812 315.988281 109.808594 " fill-opacity="1" fill-rule="nonzero"/><path fill="rgb(14.509583%, 13.729858%, 12.939453%)" d="M 294.335938 83.800781 C 296.925781 86.53125 299.574219 88.570312 301.652344 90.351562 C 302.023438 90.667969 302.148438 90.59375 302.386719 90.699219 C 302.519531 90.605469 301.894531 89.535156 301.203125 88.742188 C 298.578125 86.15625 296.011719 83.796875 293.527344 81.851562 C 292.605469 81.128906 292.269531 81.34375 293.03125 82.285156 C 293.410156 82.757812 293.835938 83.289062 294.335938 83.800781 " fill-opacity="1" fill-rule="nonzero"/><path fill="rgb(14.509583%, 13.729858%, 12.939453%)" d="M 206.144531 43.550781 L 206.191406 43.503906 L 213.496094 44.265625 C 214.164062 44.328125 214.945312 44.304688 215.59375 44.292969 C 216.308594 44.28125 215.886719 43.929688 215.054688 43.742188 C 212.839844 43.230469 210.171875 42.859375 207.144531 42.714844 C 204.753906 42.480469 202.4375 42.945312 200.117188 43.035156 C 199.175781 43.105469 198.800781 43.222656 199.128906 43.351562 C 199.253906 43.398438 199.703125 43.449219 200.050781 43.449219 C 202.074219 43.503906 204.121094 43.375 206.144531 43.550781 " fill-opacity="1" fill-rule="nonzero"/><path fill="rgb(14.509583%, 13.729858%, 12.939453%)" d="M 50.75 133.222656 C 50.871094 132.832031 51.054688 132.417969 51.230469 132.023438 C 52.480469 128.953125 53.332031 126 53.191406 125.199219 C 53.070312 124.507812 51.957031 126.160156 50.9375 128.554688 C 49.890625 130.863281 49.203125 133.476562 49.265625 134.875 C 49.261719 136.222656 49.957031 135.445312 50.75 133.222656 " fill-opacity="1" fill-rule="nonzero"/><path fill="rgb(14.509583%, 13.729858%, 12.939453%)" d="M 32.507812 169.980469 C 32.230469 169.21875 31.683594 171.273438 31.339844 174.433594 C 31.011719 176.972656 31.054688 179.804688 31.398438 180.484375 C 31.933594 181.621094 32.191406 179.523438 32.5625 176.566406 C 32.820312 173.769531 32.800781 170.777344 32.507812 169.980469 " fill-opacity="1" fill-rule="nonzero"/><path fill="rgb(14.509583%, 13.729858%, 12.939453%)" d="M 41.289062 183.5 C 41.0625 183.914062 40.871094 185.640625 40.933594 187.417969 C 41.042969 189.628906 41.152344 191.847656 41.253906 193.976562 C 41.359375 195.589844 41.8125 195.949219 41.886719 194.535156 C 41.96875 193.144531 42.066406 191.523438 42.144531 190.234375 C 42.054688 188.433594 41.984375 187.09375 41.925781 185.835938 C 41.816406 184.136719 41.519531 183.097656 41.289062 183.5 " fill-opacity="1" fill-rule="nonzero"/><path fill="rgb(14.509583%, 13.729858%, 12.939453%)" d="M 351.023438 185.691406 C 351.074219 185.601562 351.132812 185.316406 351.148438 184.992188 C 351.191406 183.839844 351.238281 182.636719 351.300781 181.019531 C 351.238281 179.277344 351.164062 177.183594 351.089844 175.109375 C 351.046875 174.105469 350.722656 173.53125 350.617188 174.34375 C 350.503906 175.195312 350.371094 176.21875 350.359375 177.320312 C 350.320312 180.402344 350.515625 183.183594 350.851562 185.550781 C 350.882812 185.78125 350.972656 185.785156 351.023438 185.691406 " fill-opacity="1" fill-rule="nonzero"/><path fill="rgb(14.509583%, 13.729858%, 12.939453%)" d="M 107.101562 295.019531 C 106.167969 294.335938 105.171875 293.75 104.453125 293.144531 C 103.636719 292.527344 103.066406 292.257812 103.472656 292.890625 C 103.820312 293.390625 104.609375 294.355469 105.324219 294.996094 C 106.464844 295.828125 107.484375 296.570312 108.390625 297.230469 C 109.703125 298.140625 110.476562 298.355469 110.128906 297.804688 C 109.769531 297.234375 108.402344 295.953125 107.101562 295.019531 " fill-opacity="1" fill-rule="nonzero"/><path fill="rgb(14.509583%, 13.729858%, 12.939453%)" d="M 311.128906 121.914062 C 311.414062 122.25 311.617188 122.316406 311.714844 122.261719 C 311.855469 122.183594 311.367188 120.996094 310.851562 120.074219 C 309.800781 118.195312 309.027344 117.019531 308.203125 116.160156 C 307.953125 115.90625 307.757812 115.953125 307.820312 116.203125 C 307.859375 116.46875 308.128906 117.175781 308.417969 117.722656 C 309.316406 119.457031 310.269531 120.878906 311.128906 121.914062 " fill-opacity="1" fill-rule="nonzero"/><path fill="rgb(14.509583%, 13.729858%, 12.939453%)" d="M 43.234375 161.210938 C 42.765625 161.804688 42.332031 164.160156 42.285156 166.578125 C 42.253906 167.40625 42.222656 168.449219 42.277344 168.832031 C 42.371094 169.457031 42.511719 170.09375 42.679688 169.828125 C 42.847656 169.570312 43.0625 168.214844 43.21875 167.527344 C 43.320312 166.257812 43.394531 165.347656 43.460938 164.511719 C 43.546875 162.058594 43.695312 160.621094 43.234375 161.210938 " fill-opacity="1" fill-rule="nonzero"/><path fill="rgb(14.509583%, 13.729858%, 12.939453%)" d="M 249.824219 53.875 C 250.261719 53.949219 250.496094 53.910156 250.820312 53.921875 C 251.132812 53.777344 250.359375 53.191406 249.039062 52.566406 C 247.757812 51.984375 246.023438 51.34375 245.21875 51.4375 C 244.871094 51.449219 244.457031 51.472656 244.589844 51.617188 C 244.800781 51.847656 245.230469 52.144531 245.9375 52.484375 C 246.859375 53.015625 248.851562 53.714844 249.824219 53.875 " fill-opacity="1" fill-rule="nonzero"/><path fill="rgb(14.509583%, 13.729858%, 12.939453%)" d="M 267.042969 300.097656 C 265.625 300.632812 264.039062 301.460938 262.601562 302.460938 C 262.164062 302.761719 262.058594 302.988281 261.699219 303.347656 C 262.300781 303.140625 262.855469 303.015625 263.644531 302.65625 C 264.878906 302.101562 266.191406 301.332031 267.234375 300.539062 C 267.871094 300.058594 267.761719 299.828125 267.042969 300.097656 " fill-opacity="1" fill-rule="nonzero"/><path fill="rgb(14.509583%, 13.729858%, 12.939453%)" d="M 319.550781 141.195312 C 319.757812 141.722656 320.082031 142.28125 320.199219 142.3125 C 320.3125 142.347656 320.300781 141.867188 320.21875 141.378906 C 320.128906 140.871094 319.894531 140.085938 319.726562 139.421875 C 319.503906 138.730469 319.285156 137.941406 318.957031 137.40625 C 318.679688 136.898438 318.394531 136.550781 318.160156 136.269531 C 318.074219 136.164062 318.078125 136.386719 318.121094 136.597656 C 318.457031 137.808594 318.863281 139.371094 319.550781 141.195312 " fill-opacity="1" fill-rule="nonzero"/><path fill="rgb(14.509583%, 13.729858%, 12.939453%)" d="M 267.714844 62.496094 C 268.441406 62.617188 267.804688 61.976562 266.367188 61.140625 C 264.921875 60.296875 263.378906 59.636719 262.761719 59.589844 C 262.144531 59.546875 262.765625 60.191406 264.070312 60.945312 C 265.375 61.703125 266.9375 62.367188 267.714844 62.496094 " fill-opacity="1" fill-rule="nonzero"/><path fill="rgb(14.509583%, 13.729858%, 12.939453%)" d="M 31.066406 194.953125 C 31.011719 196.382812 31.429688 197.992188 31.636719 198.460938 C 31.988281 199.132812 32.105469 197.671875 31.878906 195.722656 C 31.816406 194.082031 31.660156 193.167969 31.4375 192.796875 C 31.25 192.585938 31.082031 193.5 31.066406 194.953125 " fill-opacity="1" fill-rule="nonzero"/><path fill="rgb(14.509583%, 13.729858%, 12.939453%)" d="M 146.8125 72.519531 C 146.855469 72.613281 147.375 72.539062 147.859375 72.375 C 149.214844 71.921875 150.605469 71.167969 150.992188 70.722656 C 151.265625 70.414062 150.480469 70.515625 149.488281 70.917969 C 148.054688 71.5 146.703125 72.285156 146.8125 72.519531 " fill-opacity="1" fill-rule="nonzero"/><path fill="rgb(14.509583%, 13.729858%, 12.939453%)" d="M 45.980469 147.289062 C 45.863281 148.351562 46.308594 147.585938 46.714844 146.25 C 46.914062 145.554688 47 144.84375 47.140625 144.136719 C 46.957031 144.390625 46.785156 144.429688 46.59375 144.953125 C 46.390625 145.507812 46.070312 146.738281 45.980469 147.289062 " fill-opacity="1" fill-rule="nonzero"/><path fill="rgb(14.509583%, 13.729858%, 12.939453%)" d="M 270.246094 341.601562 C 271.660156 340.976562 272.695312 340.328125 272.097656 340.410156 C 271.789062 340.453125 270.910156 340.746094 270.222656 341.035156 C 268.867188 341.601562 267.785156 342.292969 268.371094 342.21875 C 268.667969 342.179688 269.601562 341.820312 270.246094 341.601562 " fill-opacity="1" fill-rule="nonzero"/><path fill="rgb(14.509583%, 13.729858%, 12.939453%)" d="M 146.96875 36.390625 C 147.027344 36.261719 147.390625 36.003906 147.074219 36.039062 C 146.738281 36.078125 145.71875 36.359375 145.082031 36.582031 C 143.960938 36.976562 143.804688 37.339844 144.90625 37.066406 C 145.441406 36.9375 146.308594 36.609375 146.96875 36.390625 " fill-opacity="1" fill-rule="nonzero"/><path fill="rgb(14.509583%, 13.729858%, 12.939453%)" d="M 357.941406 253.027344 C 358.140625 252.734375 358.640625 251.675781 358.863281 251.074219 C 359.089844 250.460938 359.144531 249.984375 359.277344 249.449219 C 359 249.921875 358.71875 250.292969 358.453125 250.894531 C 357.914062 252.121094 357.566406 253.585938 357.941406 253.027344 " fill-opacity="1" fill-rule="nonzero"/><path fill="rgb(14.509583%, 13.729858%, 12.939453%)" d="M 273.917969 295.8125 L 274.527344 295.472656 L 274.503906 295.316406 Z M 273.917969 295.8125 " fill-opacity="1" fill-rule="nonzero"/><path fill="rgb(14.509583%, 13.729858%, 12.939453%)" d="M 66.554688 207.566406 C 66.492188 207.34375 66.484375 207.109375 66.445312 206.878906 L 66.40625 207.363281 L 66.554688 207.566406 " fill-opacity="1" fill-rule="nonzero"/><path fill="rgb(14.509583%, 13.729858%, 12.939453%)" d="M 325.941406 299.277344 L 326.339844 298.746094 L 325.695312 299.371094 Z M 325.941406 299.277344 " fill-opacity="1" fill-rule="nonzero"/><path fill="rgb(14.509583%, 13.729858%, 12.939453%)" d="M 309.445312 132.527344 C 309.578125 132.710938 309.738281 132.960938 309.949219 133.316406 C 310.546875 134.453125 311.609375 135.972656 312.929688 139.351562 C 314.15625 142.65625 315.371094 145.925781 316.585938 149.199219 C 316.480469 149.128906 316.042969 148.3125 314.746094 144.765625 C 313.113281 140.332031 312.050781 137.53125 310.609375 135.085938 C 310.199219 134.3125 309.75 133.367188 309.476562 132.71875 C 309.378906 132.480469 309.386719 132.441406 309.445312 132.527344 Z M 316.210938 151.710938 C 315.949219 151.113281 315.769531 149.90625 315.109375 148.207031 C 314.953125 147.695312 314.59375 146.597656 314.675781 146.769531 C 314.890625 147.210938 315.257812 148.078125 315.664062 149.097656 C 315.800781 149.472656 316.191406 151.148438 316.289062 151.59375 C 316.382812 152.054688 316.332031 152.058594 316.210938 151.710938 Z M 310.347656 136.777344 C 310.191406 136.4375 309.984375 135.953125 310.023438 136.007812 C 310.121094 136.175781 310.351562 136.570312 310.53125 136.875 L 311.214844 138.472656 C 311.144531 138.410156 310.835938 137.832031 310.347656 136.777344 Z M 317.355469 159.167969 L 317.519531 159.945312 L 317.199219 158.71875 Z M 293.765625 106.953125 C 292.28125 105.417969 290.621094 103.699219 288.835938 101.847656 C 287.925781 100.941406 287.078125 99.90625 286.042969 99.019531 C 285.015625 98.117188 283.960938 97.191406 282.886719 96.25 C 282.625 96.007812 282.101562 95.523438 281.855469 95.296875 C 281.628906 95.074219 281.410156 94.839844 281.53125 94.9375 C 282.714844 95.921875 284.117188 97.085938 285.710938 98.417969 C 287.34375 99.714844 288.820312 101.527344 290.617188 103.339844 C 291.757812 104.578125 293.179688 106.113281 294.488281 107.53125 C 294.292969 107.386719 294.335938 107.53125 293.765625 106.953125 Z M 277.195312 278.824219 C 277.691406 278.425781 278.261719 277.925781 278.621094 277.574219 C 280.886719 275.542969 279.257812 277.09375 278.941406 277.429688 C 278.5625 277.871094 277.878906 278.453125 277.230469 278.867188 C 277.027344 279.007812 277.199219 278.84375 277.195312 278.824219 Z M 288.996094 267.410156 C 289.285156 266.871094 291.347656 264.460938 292.972656 262.722656 C 294.941406 260.699219 295.179688 260.160156 295.402344 260.140625 C 295.464844 260.121094 295.40625 260.261719 295.402344 260.363281 C 295.203125 260.691406 295.121094 260.90625 294.570312 261.710938 C 293.992188 262.417969 292.824219 263.742188 291.945312 264.707031 C 291.066406 265.675781 289.679688 267.132812 289.46875 267.308594 C 288.980469 267.710938 288.8125 267.746094 288.996094 267.410156 Z M 294.035156 256.722656 C 294.304688 256.363281 294.761719 255.757812 294.902344 255.570312 C 295.289062 255.101562 295.847656 254.414062 295.8125 254.507812 C 295.691406 254.839844 294.90625 256.019531 293.214844 258.328125 C 292.4375 259.492188 291.132812 260.824219 291.234375 260.613281 C 291.511719 260.226562 292.433594 258.945312 294.035156 256.722656 Z M 297.753906 263.210938 C 297.855469 263.078125 298.476562 262.257812 298.523438 262.195312 C 298.742188 261.957031 299.046875 261.613281 298.914062 261.832031 C 298.761719 262.046875 298.160156 262.902344 297.757812 263.476562 C 297.476562 263.824219 297.175781 264.160156 296.84375 264.464844 C 297.171875 264.085938 297.410156 263.71875 297.753906 263.210938 Z M 301.382812 250.988281 C 301.511719 250.808594 301.785156 250.402344 301.738281 250.484375 C 301.464844 250.96875 301.128906 251.585938 300.789062 252.136719 C 300.636719 252.316406 300.324219 252.699219 300.375 252.625 C 300.714844 252.167969 301.066406 251.566406 301.382812 250.988281 Z M 308.570312 236.707031 C 308.816406 236.1875 309.386719 234.96875 309.710938 234.285156 C 310.046875 233.59375 310.480469 232.789062 310.550781 232.71875 C 310.824219 232.425781 310.320312 233.703125 309.101562 236.375 C 308.933594 236.722656 308.59375 237.433594 308.484375 237.660156 C 308.167969 238.25 307.933594 238.675781 307.664062 239.175781 C 307.59375 239.097656 307.824219 238.414062 308.570312 236.707031 Z M 311.390625 242.523438 C 311.558594 242.066406 312.617188 239.789062 313.078125 238.894531 C 313.441406 238.183594 313.789062 237.53125 313.976562 237.222656 C 314.164062 236.90625 314.285156 236.75 314.195312 237.019531 C 313.953125 237.671875 313.621094 238.574219 313.3125 239.414062 C 312.601562 240.707031 311.773438 242.21875 311.277344 243.117188 C 311.007812 243.582031 311.230469 242.972656 311.390625 242.523438 Z M 314.238281 233.714844 L 314.71875 232.769531 L 314.421875 233.484375 C 314.261719 233.796875 313.988281 234.335938 313.972656 234.363281 C 313.945312 234.386719 314.144531 233.949219 314.238281 233.714844 Z M 263.125 83.542969 C 262.878906 83.378906 262.660156 83.21875 262.734375 83.253906 C 262.988281 83.363281 263.648438 83.746094 264.402344 84.230469 C 264.65625 84.394531 264.703125 84.445312 264.847656 84.550781 C 264.484375 84.375 263.871094 84.019531 263.125 83.542969 Z M 227.160156 71.511719 C 225.121094 71.050781 223.0625 70.617188 220.984375 70.261719 L 221.777344 70.382812 C 223.425781 70.628906 225.070312 70.851562 226.664062 71.339844 C 226.976562 71.417969 227.292969 71.503906 227.609375 71.585938 C 227.457031 71.5625 227.308594 71.535156 227.160156 71.511719 Z M 209.125 68.863281 C 211.710938 68.984375 214.292969 69.125 216.835938 69.628906 L 217.140625 69.675781 C 214.496094 69.3125 211.824219 69.039062 209.125 68.863281 Z M 209.972656 310.074219 C 209.378906 310.023438 208.820312 310.011719 208.242188 309.984375 C 210.417969 309.871094 212.589844 309.707031 214.761719 309.484375 C 213.152344 309.789062 211.292969 310.074219 209.972656 310.074219 Z M 171.609375 71.402344 C 171.324219 71.535156 169.917969 71.945312 168.5 72.308594 C 166.535156 72.746094 165.085938 73.265625 165.035156 73.191406 C 165.011719 73.160156 165.476562 72.953125 166.191406 72.667969 C 166.914062 72.414062 167.917969 72.171875 168.921875 71.914062 C 170.875 71.429688 172.019531 71.210938 171.609375 71.402344 Z M 170.464844 69.859375 L 170.011719 70.007812 L 169.523438 70.097656 Z M 154.953125 74.15625 C 154.699219 74.234375 154.460938 74.34375 154.222656 74.453125 C 154.488281 74.308594 154.761719 74.1875 155.046875 74.089844 Z M 145.109375 81.722656 C 142.972656 83.027344 140.800781 84.351562 138.710938 85.628906 C 137.375 86.46875 136.046875 87.113281 134.929688 87.976562 C 134 88.652344 134.0625 88.582031 135.046875 87.828125 C 138.300781 85.636719 141.675781 83.648438 145.214844 81.511719 C 145.574219 81.320312 146.164062 81.082031 146.105469 81.113281 C 145.890625 81.246094 145.53125 81.464844 145.109375 81.722656 Z M 111.585938 109.054688 C 111.410156 109.246094 111.070312 109.617188 110.800781 109.90625 L 111.003906 109.613281 L 111.816406 108.738281 C 111.746094 108.839844 111.753906 108.863281 111.585938 109.054688 Z M 85.367188 177.675781 C 85.355469 177.886719 85.332031 178.097656 85.320312 178.3125 L 85.300781 178.296875 L 85.378906 177.257812 Z M 297.964844 107.570312 C 296.804688 105.851562 295.40625 104.457031 294.160156 102.976562 C 292.882812 101.515625 291.636719 100.085938 290.375 98.640625 C 283.085938 91.074219 274.273438 83.414062 264.167969 77.792969 C 262.859375 77.011719 261.578125 76.21875 260.253906 75.507812 L 256.175781 73.621094 C 254.589844 72.800781 252.855469 71.90625 250.894531 70.890625 C 248.8125 69.8125 246.304688 69.046875 243.570312 67.980469 C 234.117188 64.289062 224.148438 62.386719 214.152344 60.996094 L 206.574219 60.566406 C 204.050781 60.476562 201.515625 60.179688 198.980469 60.40625 C 193.910156 60.71875 188.789062 60.683594 183.738281 61.6875 C 182.121094 61.929688 180.476562 62.183594 178.839844 62.433594 C 176.105469 62.738281 173.480469 63.582031 170.8125 64.226562 C 168.171875 64.972656 165.453125 65.46875 162.882812 66.433594 C 157.734375 68.339844 152.496094 70.042969 147.640625 72.628906 L 142.140625 75.339844 L 136.890625 78.503906 L 131.644531 81.691406 L 126.714844 85.351562 C 125.367188 86.351562 124.082031 87.304688 122.832031 88.238281 C 121.566406 89.152344 120.496094 90.242188 119.324219 91.222656 C 113.878906 95.742188 108.597656 101.269531 103.761719 107.363281 C 101.386719 110.664062 99.234375 113.25 97.253906 116.175781 C 96.132812 117.9375 94.992188 119.730469 93.777344 121.632812 C 92.574219 123.542969 91.273438 125.550781 90.226562 127.941406 C 88.992188 130.492188 87.804688 132.945312 86.632812 135.371094 C 85.527344 137.828125 84.699219 140.371094 83.71875 142.910156 C 81.601562 147.957031 80.539062 153.34375 79.085938 158.636719 C 78.464844 161.304688 78.175781 164.054688 77.722656 166.777344 C 77.328125 169.511719 76.820312 172.242188 76.804688 175.039062 C 76.671875 177.640625 76.523438 180.550781 76.382812 183.285156 C 76.261719 187.394531 76.65625 191.488281 76.800781 195.59375 C 76.820312 197.648438 77.230469 199.675781 77.523438 201.71875 C 77.851562 203.757812 78.175781 205.804688 78.5 207.855469 C 78.792969 210.410156 79.699219 213.21875 80.328125 215.910156 C 80.667969 217.25 81.015625 218.617188 81.359375 219.96875 C 81.535156 220.644531 81.707031 221.3125 81.878906 221.972656 C 82.113281 222.617188 82.34375 223.246094 82.5625 223.863281 C 83.289062 225.816406 84.007812 227.765625 84.726562 229.710938 C 85.464844 231.648438 86.089844 233.628906 87.050781 235.457031 L 89.71875 241.039062 C 90.605469 242.898438 91.453125 244.785156 92.582031 246.511719 L 95.980469 252.160156 L 97.699219 254.972656 L 99.65625 257.617188 C 102.292969 261.132812 104.804688 264.769531 107.949219 267.917969 C 109.328125 269.441406 110.917969 271.195312 112.390625 272.808594 C 114.011719 274.492188 115.800781 276.007812 117.503906 277.609375 C 119.265625 279.148438 120.890625 280.851562 122.777344 282.242188 L 128.410156 286.46875 L 131.246094 288.570312 L 134.257812 290.425781 C 136.851562 291.980469 139.425781 293.605469 142.066406 295.117188 C 144.804688 296.449219 147.550781 297.785156 150.277344 299.113281 C 152.113281 300.078125 154.050781 300.800781 156 301.5 L 161.820312 303.652344 C 163.738281 304.441406 165.746094 304.9375 167.746094 305.457031 L 173.734375 307.023438 C 181.902344 308.894531 190.234375 309.925781 198.589844 310.132812 C 197.5625 310.207031 196.53125 310.289062 195.460938 310.378906 C 192.171875 310.332031 188.496094 310.28125 185.121094 310.234375 C 183.3125 310.339844 181.492188 309.777344 179.90625 309.3125 C 179.332031 309.125 178.742188 308.929688 178.226562 308.757812 C 176.074219 307.976562 173.722656 307.59375 171.203125 307.382812 L 170.242188 307.195312 C 167.082031 306.546875 163.878906 305.859375 160.578125 305.042969 C 157.296875 304.171875 154.109375 302.613281 150.710938 301.117188 C 149.566406 300.539062 147.886719 300.113281 146.644531 299.441406 C 144.667969 298.5625 142.765625 297.722656 140.839844 296.867188 C 136.019531 295.050781 131.84375 291.9375 127.605469 288.933594 C 125.242188 287.203125 123.085938 285.175781 120.597656 283.53125 C 118.46875 282.042969 116.292969 280.484375 114.777344 278.53125 C 112.519531 275.773438 109.804688 273.496094 107.125 270.777344 C 105.171875 268.636719 103.097656 266.367188 101.125 264.210938 C 98.707031 261.722656 97.089844 258.855469 95.410156 256.160156 C 94.65625 254.855469 93.824219 253.632812 92.964844 252.46875 C 92.234375 251.226562 91.46875 250.058594 90.699219 248.976562 C 89.171875 246.929688 87.816406 245.109375 86.328125 243.113281 C 86.046875 242.796875 85.515625 241.609375 85.503906 241.339844 C 85.378906 240.535156 85.394531 239.980469 85.375 239.359375 C 85.339844 238.3125 84.828125 236.609375 83.816406 234.351562 C 82.28125 231.296875 81.246094 228.082031 80.332031 224.875 C 79.425781 221.667969 78.222656 218.582031 77.851562 215.304688 C 77.613281 213.917969 77.304688 212.296875 76.949219 210.976562 C 75.382812 206.0625 75.242188 201.492188 75.351562 197.554688 C 75.339844 197.292969 75.328125 196.90625 75.316406 196.566406 C 75.277344 195.140625 75.023438 193.675781 74.863281 192.269531 C 74.648438 190.285156 74.445312 188.386719 74.234375 186.40625 C 74.050781 184.675781 73.925781 182.578125 74.066406 181.007812 C 74.660156 176.902344 75.085938 172.433594 75.347656 168.039062 C 75.519531 166.230469 75.839844 164.464844 76.074219 162.660156 C 76.417969 160.355469 76.882812 158.285156 77.457031 156.523438 C 77.644531 155.976562 77.800781 155.382812 78.011719 154.929688 C 79.683594 151.703125 80.828125 147.796875 81.703125 143.359375 C 82.007812 142.402344 82.308594 141.402344 82.691406 140.402344 C 83.203125 139.074219 83.832031 137.402344 84.335938 136.449219 C 85.132812 134.984375 85.800781 133.386719 86.585938 131.785156 C 87.441406 130.222656 88.324219 128.613281 89.214844 126.984375 C 90.773438 124.042969 92.21875 121.03125 94.21875 118.367188 C 96.871094 114.332031 99.449219 110.347656 102.371094 106.59375 C 104.371094 103.757812 106.359375 101.320312 108.601562 99.828125 C 112.261719 97.234375 113.570312 95.140625 116.179688 92.308594 C 117.417969 90.957031 118.589844 89.671875 119.851562 88.292969 C 120.714844 87.398438 121.652344 86.433594 122.621094 85.4375 C 123.972656 84.140625 125.699219 83.15625 126.949219 82.507812 C 128.648438 81.75 130.027344 81.128906 131.640625 80.410156 C 132.917969 79.691406 135.640625 77.894531 136.109375 77.273438 L 136.308594 76.957031 C 136.632812 75.980469 135.09375 75.992188 131.71875 77.921875 C 128.984375 79.640625 126.53125 80.996094 123.96875 82.4375 C 122.207031 83.320312 120.585938 84.585938 118.894531 85.933594 C 116.496094 87.945312 113.898438 89.773438 111.59375 91.949219 L 104.816406 98.679688 C 101.925781 101.71875 99.523438 105.027344 96.8125 107.8125 C 94.816406 109.820312 93.390625 112.476562 91.617188 115.046875 C 90.597656 116.65625 89.492188 118.214844 88.519531 119.859375 L 85.882812 124.9375 C 84.039062 128.285156 82.304688 131.683594 81.019531 135.285156 L 78.1875 142.152344 L 76.070312 149.261719 C 74.402344 153.945312 73.722656 158.882812 72.792969 163.78125 C 71.558594 172.074219 70.910156 180.53125 71.1875 188.945312 C 71.027344 192.617188 71.539062 196.207031 71.984375 199.789062 C 72.402344 203.378906 72.789062 206.976562 73.886719 210.457031 C 74.597656 213.339844 75.324219 216.273438 76.054688 219.21875 C 77.03125 222.089844 77.925781 224.996094 78.695312 227.933594 C 79.125 229.609375 79.730469 231.566406 80.589844 233.269531 C 84.316406 242.054688 88.585938 250.726562 94.410156 258.316406 C 96.027344 260.398438 97.421875 262.757812 99.132812 264.808594 L 106.675781 273.402344 C 109.484375 275.976562 112.257812 278.574219 114.941406 281.328125 C 115.410156 281.855469 116.101562 282.296875 116.691406 282.707031 C 120.515625 285.207031 123.707031 288.398438 127.460938 290.945312 C 131.894531 294.09375 136.414062 297.277344 141.429688 299.652344 C 146.210938 302.480469 151.496094 304.277344 156.640625 306.375 C 160.566406 307.890625 164.722656 308.746094 168.628906 309.75 C 171.125 310.480469 173.832031 310.683594 176.339844 311.390625 C 179.253906 311.992188 182.1875 312.929688 185.253906 312.929688 C 189.378906 313.027344 193.476562 313.496094 197.625 313.460938 C 201.773438 313.339844 205.953125 313.222656 210.171875 313.101562 C 223.753906 311.695312 237.167969 308.3125 249.625 302.96875 C 254.066406 300.78125 258.585938 298.976562 262.425781 296.257812 C 264.386719 294.992188 266.304688 293.753906 268.183594 292.542969 C 270.003906 291.257812 271.589844 289.722656 273.1875 288.355469 C 274.515625 287.171875 276.5 285.738281 278.1875 284.4375 C 281.042969 282.207031 283.050781 280.222656 284.78125 278.324219 C 296.949219 267.175781 306.71875 253.609375 313.257812 239.558594 L 313.242188 239.609375 C 313.285156 239.503906 313.328125 239.410156 313.375 239.304688 L 313.402344 239.246094 L 313.402344 239.253906 C 314.089844 237.714844 314.921875 235.851562 315.386719 234.820312 C 316.433594 232.464844 317.136719 229.652344 318.296875 226.472656 C 318.824219 224.863281 319.496094 223.160156 320.054688 221.261719 C 320.542969 219.34375 321.066406 217.265625 321.640625 215.015625 C 322.164062 212.996094 322.535156 211.394531 322.792969 210.179688 C 322.992188 208.949219 323.015625 208.09375 323.027344 207.601562 C 323.035156 207.035156 322.835938 207.859375 322.503906 209.621094 C 321.78125 212.257812 320.917969 215.542969 320.324219 218.21875 C 320.066406 219.40625 319.863281 220.335938 319.613281 221.472656 C 319.554688 221.804688 319.230469 222.625 319.140625 222.882812 C 318.839844 223.644531 318.4375 224.679688 318.351562 224.828125 C 317.832031 225.625 318.390625 224.132812 319.386719 220.460938 C 320.480469 215.320312 322.050781 210.121094 322.488281 204.824219 C 322.675781 203.316406 322.671875 202.644531 322.488281 203.394531 C 322.296875 204.167969 322.125 204.789062 321.886719 205.921875 C 321.625 207.144531 321.351562 208.394531 321.074219 209.703125 C 320.683594 210.984375 320.273438 212.320312 319.839844 213.738281 C 319.417969 215.160156 318.96875 216.664062 318.488281 218.277344 C 318.25 219.089844 318.007812 219.925781 317.757812 220.792969 C 317.484375 221.652344 317.09375 222.511719 316.753906 223.425781 C 315.386719 226.746094 314.238281 230.183594 312.667969 233.449219 C 311.007812 236.671875 309.414062 239.933594 307.691406 243.101562 C 306.722656 244.609375 305.726562 246.171875 304.816406 247.59375 C 303.601562 249.476562 302.777344 250.65625 302.867188 250.316406 C 303.054688 249.597656 303.433594 248.570312 303.8125 247.542969 C 303.871094 247.378906 304.253906 246.664062 304.671875 245.949219 C 306.898438 242.457031 308.367188 238.875 310.023438 235.28125 C 311.820312 231.746094 312.984375 227.835938 314.546875 223.570312 C 314.972656 222.34375 315.410156 221.230469 315.714844 220.175781 C 315.96875 219.105469 316.199219 218.128906 316.414062 217.234375 C 316.824219 215.449219 317.125 214 317.339844 212.832031 C 317.511719 211.566406 318.238281 209.367188 318.476562 206.851562 C 318.675781 205.402344 318.871094 203.9375 319.054688 202.582031 C 319.304688 200.679688 319.3125 199.652344 319.070312 200.738281 C 318.859375 201.730469 318.664062 202.632812 318.375 203.992188 C 317.957031 205.890625 317.730469 207.878906 317.140625 209.808594 C 316.566406 211.734375 315.988281 213.679688 315.414062 215.609375 C 314.695312 218.015625 314.703125 217.675781 315.5 214.15625 C 315.589844 213.761719 315.703125 213.269531 315.792969 212.878906 C 316.414062 210.125 316.574219 208.894531 315.457031 212.820312 C 315.109375 214.042969 314.675781 215.585938 314.707031 215.203125 C 314.734375 214.878906 314.972656 213.769531 315.132812 212.953125 C 315.261719 212.285156 315.222656 212.269531 314.933594 213.347656 C 314.566406 214.714844 314.171875 216.210938 313.785156 217.667969 C 313.589844 218.394531 313.390625 219.113281 313.207031 219.800781 C 312.945312 220.464844 312.695312 221.101562 312.464844 221.691406 C 311.621094 223.789062 310.671875 226.15625 309.777344 228.382812 C 309.410156 229.308594 309.640625 228.417969 310.152344 226.964844 C 310.796875 225.128906 311.441406 223.292969 312.09375 221.433594 C 312.957031 219.367188 313.324219 217.195312 313.890625 215.121094 C 314.40625 213.03125 314.914062 210.972656 315.421875 208.921875 C 316.109375 204.769531 316.660156 200.628906 317.214844 196.410156 C 317.292969 194.003906 317.363281 191.8125 317.429688 189.617188 C 317.433594 189.359375 317.433594 189.164062 317.433594 189 C 317.484375 187.621094 317.542969 186.25 317.542969 184.863281 C 317.542969 179.394531 317.136719 174.019531 316.40625 168.753906 C 316.410156 168.757812 316.414062 168.773438 316.417969 168.777344 C 316.621094 168.941406 316.457031 165.675781 315.378906 160.101562 C 315.253906 159.601562 315.125 159.097656 315.003906 158.609375 C 314.203125 155.53125 313.425781 152.566406 312.6875 149.726562 C 311.726562 146.953125 310.8125 144.304688 309.945312 141.808594 C 305.617188 130.867188 299.96875 120.433594 292.539062 111.09375 C 291.226562 109.292969 289.636719 107.730469 288.207031 106.042969 C 286.707031 104.414062 285.328125 102.667969 283.730469 101.128906 C 282.105469 99.617188 280.472656 98.097656 278.832031 96.570312 L 276.355469 94.273438 C 275.492188 93.542969 274.5625 92.886719 273.664062 92.1875 C 273.28125 91.886719 272.96875 91.640625 272.601562 91.355469 C 270.949219 90.074219 270.117188 89.273438 270.960938 89.808594 C 272.34375 90.71875 274.648438 92.226562 276.96875 94.011719 C 278.644531 95.476562 280.347656 96.96875 282.140625 98.539062 C 283.023438 99.34375 283.929688 100.167969 284.867188 101.023438 C 285.734375 101.941406 286.585938 102.9375 287.488281 103.960938 C 288.617188 105.226562 290.128906 106.917969 291.46875 108.417969 C 291.46875 108.417969 291.285156 108.226562 291.265625 108.210938 C 291.695312 108.664062 292.140625 109.128906 292.589844 109.59375 L 293.789062 111.117188 C 294.585938 112.121094 295.363281 113.097656 296.050781 113.960938 C 297.53125 115.90625 299.472656 118.035156 301.023438 120.820312 L 303.882812 125.523438 C 304.84375 127.089844 305.808594 128.652344 306.542969 130.339844 L 308.929688 135.3125 C 309.699219 136.980469 310.597656 138.589844 311.152344 140.328125 C 312.695312 144.765625 314.667969 149.011719 315.652344 153.625 C 316.292969 156.144531 316.980469 158.664062 317.578125 161.199219 C 317.976562 163.78125 318.375 166.363281 318.769531 168.933594 C 318.972656 170.234375 319.152344 171.390625 319.308594 172.40625 C 319.433594 173.433594 319.433594 174.328125 319.496094 175.09375 C 319.589844 176.632812 319.664062 177.667969 319.730469 178.285156 C 319.855469 179.527344 319.949219 179.105469 320.074219 177.695312 C 320.191406 176.367188 320.378906 176.917969 320.671875 179.601562 C 320.789062 180.734375 320.933594 182.121094 321.042969 183.171875 C 321.132812 183.953125 321.226562 184.75 321.289062 184.851562 C 321.34375 184.949219 321.375 184.375 321.386719 183.628906 C 321.375 183.371094 321.289062 181.582031 321.246094 180.753906 C 320.921875 176.285156 320.839844 173.984375 320.644531 172.0625 C 320.363281 170.152344 320.183594 168.605469 319.835938 165.636719 C 319.617188 163.816406 319.40625 162.046875 319.210938 160.394531 C 318.878906 158.773438 318.570312 157.261719 318.300781 155.945312 L 318.25 155.683594 L 318.183594 155.398438 L 318.191406 155.433594 L 318.1875 155.417969 L 318.199219 155.460938 L 316.777344 149.871094 C 317.007812 150.578125 317.246094 151.320312 317.457031 151.964844 C 318.609375 155.453125 318.761719 155.105469 317.59375 149.730469 C 316.472656 145.554688 315.160156 141.851562 313.9375 137.882812 C 313.863281 137.5625 313.523438 136.792969 313.460938 136.691406 C 313.117188 136.027344 312.6875 135.191406 312.535156 134.945312 C 311.601562 133.574219 311.722656 133.671875 313.828125 138.988281 C 315.625 144.175781 316.390625 146.855469 316.46875 147.726562 C 316.492188 147.992188 315.734375 146.179688 315.101562 144.441406 C 313.824219 140.957031 312.664062 137.425781 310.925781 134.136719 C 309.269531 130.820312 307.878906 127.363281 305.828125 124.269531 C 305.074219 122.984375 304.316406 121.691406 303.621094 120.507812 C 302.515625 118.5625 301.453125 116.695312 300.117188 114.957031 L 300.136719 114.980469 C 299.785156 114.085938 301.429688 115.445312 305.546875 122.269531 C 306.328125 123.511719 307.175781 124.867188 307.855469 125.941406 C 309.050781 127.859375 309.867188 129.671875 309.765625 129.128906 C 309.414062 127.78125 309.390625 127.121094 309.621094 126.957031 C 309.738281 126.882812 309.3125 125.792969 308.480469 124.308594 C 307.292969 122.105469 306.140625 119.972656 304.683594 117.285156 C 303.988281 115.910156 302.996094 114.542969 301.871094 112.964844 C 300.730469 111.390625 299.449219 109.617188 297.964844 107.570312 " fill-opacity="1" fill-rule="nonzero"/><path fill="rgb(14.509583%, 13.729858%, 12.939453%)" d="M 317.125 201.945312 C 316.992188 203.398438 317.023438 203.796875 317.3125 202.492188 C 317.433594 201.832031 317.703125 200.402344 317.84375 199.648438 C 317.984375 198.675781 318.121094 197.75 318.242188 196.90625 C 318.265625 196.054688 318.285156 195.285156 318.304688 194.640625 C 318.320312 193.347656 318.296875 192.542969 318.226562 192.535156 C 318.144531 192.527344 318.03125 193.433594 317.890625 195.417969 C 317.800781 197.621094 317.195312 200.496094 317.125 201.945312 " fill-opacity="1" fill-rule="nonzero"/><path fill="rgb(14.509583%, 13.729858%, 12.939453%)" d="M 320.382812 189.746094 C 320.359375 190.179688 320.328125 190.792969 320.3125 191.101562 C 320.25 193.46875 320.292969 194.273438 320.417969 193.734375 C 320.425781 193.667969 320.476562 192.984375 320.507812 192.554688 C 320.523438 192.109375 320.546875 191.5 320.558594 191.164062 C 320.589844 189.566406 320.570312 188.652344 320.472656 188.996094 C 320.453125 189.070312 320.417969 189.464844 320.382812 189.746094 " fill-opacity="1" fill-rule="nonzero"/><path fill="rgb(14.509583%, 13.729858%, 12.939453%)" d="M 324.152344 193.265625 L 324.222656 192.226562 L 324.175781 192.238281 Z M 324.152344 193.265625 " fill-opacity="1" fill-rule="nonzero"/><path fill="rgb(14.509583%, 13.729858%, 12.939453%)" d="M 304.351562 121.253906 C 304.394531 121.3125 304.40625 121.324219 304.421875 121.34375 C 304.355469 121.238281 304.289062 121.121094 304.21875 121.015625 L 304.351562 121.253906 " fill-opacity="1" fill-rule="nonzero"/><path fill="rgb(14.509583%, 13.729858%, 12.939453%)" d="M 304.621094 121.671875 C 304.769531 121.90625 304.917969 122.09375 304.84375 121.953125 C 304.367188 121.097656 304.054688 120.601562 304 120.605469 L 303.886719 120.46875 L 303.941406 120.558594 C 304.3125 121.132812 304.496094 121.433594 304.421875 121.34375 C 304.496094 121.46875 304.566406 121.585938 304.621094 121.671875 " fill-opacity="1" fill-rule="nonzero"/></svg>