<svg xmlns="http://www.w3.org/2000/svg" xmlns:xlink="http://www.w3.org/1999/xlink" width="512" zoomAndPan="magnify" viewBox="0 0 384 383.999986" height="512" preserveAspectRatio="xMidYMid meet" version="1.0"><defs><clipPath id="id1"><path d="M 119 48 L 370 48 L 370 337.507812 L 119 337.507812 Z M 119 48 " clip-rule="nonzero"/></clipPath><clipPath id="id2"><path d="M 147 288 L 221 288 L 221 337.507812 L 147 337.507812 Z M 147 288 " clip-rule="nonzero"/></clipPath><clipPath id="id3"><path d="M 90 286 L 157 286 L 157 337.507812 L 90 337.507812 Z M 90 286 " clip-rule="nonzero"/></clipPath><clipPath id="id4"><path d="M 10.417969 48 L 153 48 L 153 292 L 10.417969 292 Z M 10.417969 48 " clip-rule="nonzero"/></clipPath><clipPath id="id5"><path d="M 113 48 L 365 48 L 365 337.507812 L 113 337.507812 Z M 113 48 " clip-rule="nonzero"/></clipPath><clipPath id="id6"><path d="M 141 288 L 215 288 L 215 337.507812 L 141 337.507812 Z M 141 288 " clip-rule="nonzero"/></clipPath><clipPath id="id7"><path d="M 84 286 L 151 286 L 151 337.507812 L 84 337.507812 Z M 84 286 " clip-rule="nonzero"/></clipPath><clipPath id="id8"><path d="M 109 48 L 360 48 L 360 337.507812 L 109 337.507812 Z M 109 48 " clip-rule="nonzero"/></clipPath><clipPath id="id9"><path d="M 136 288 L 210 288 L 210 337.507812 L 136 337.507812 Z M 136 288 " clip-rule="nonzero"/></clipPath><clipPath id="id10"><path d="M 80 286 L 146 286 L 146 337.507812 L 80 337.507812 Z M 80 286 " clip-rule="nonzero"/></clipPath><clipPath id="id11"><path d="M 124 48 L 375 48 L 375 337.507812 L 124 337.507812 Z M 124 48 " clip-rule="nonzero"/></clipPath><clipPath id="id12"><path d="M 152 288 L 226 288 L 226 337.507812 L 152 337.507812 Z M 152 288 " clip-rule="nonzero"/></clipPath><clipPath id="id13"><path d="M 95 286 L 162 286 L 162 337.507812 L 95 337.507812 Z M 95 286 " clip-rule="nonzero"/></clipPath></defs><g clip-path="url(#id1)"><path fill="rgb(13.729858%, 12.159729%, 12.548828%)" d="M 197.109375 282.261719 C 204.742188 282.261719 211.808594 283.511719 216.578125 287.945312 C 222.511719 293.464844 226.957031 312.917969 229.632812 328.265625 C 229.824219 329.359375 230.769531 330.136719 231.886719 330.136719 L 327.507812 330.136719 C 328.238281 330.136719 328.902344 329.808594 329.34375 329.222656 C 329.601562 328.886719 329.984375 328.1875 329.703125 327.242188 C 326.484375 316.140625 320.914062 294.917969 319.800781 277.429688 C 319.113281 266.609375 322.265625 250.667969 329.625 241.117188 C 356.9375 205.664062 366.039062 177.738281 361.042969 144.726562 C 352.917969 90.996094 315.128906 58.480469 257.351562 55.507812 C 223.828125 53.753906 192.472656 64.671875 171.316406 85.414062 C 154.851562 101.546875 146.515625 121.746094 147.199219 143.828125 C 147.289062 146.910156 147.582031 150.617188 147.886719 154.535156 C 148.28125 159.625 148.6875 164.882812 148.675781 168.992188 C 148.628906 186.453125 138.761719 197.386719 132.222656 204.628906 C 129.644531 207.476562 126.730469 210.707031 126.652344 212.238281 C 126.4375 216.316406 127.96875 217.542969 132.4375 220.480469 C 137.050781 223.53125 143.375 227.699219 146.503906 238.40625 C 148.496094 245.207031 149.148438 252.320312 149.722656 258.59375 C 151.253906 275.191406 152.109375 285.222656 171.734375 284.207031 C 174.605469 284.097656 177.902344 283.746094 181.390625 283.375 C 186.53125 282.835938 191.945312 282.261719 197.109375 282.261719 Z M 327.507812 337.339844 L 231.886719 337.339844 C 227.261719 337.339844 223.332031 334.054688 222.542969 329.503906 C 219.226562 310.523438 214.960938 296.277344 211.671875 293.226562 C 206.082031 288.015625 192.800781 289.421875 182.144531 290.535156 C 178.53125 290.917969 175.121094 291.28125 172.070312 291.402344 C 145.636719 292.765625 144.074219 275.730469 142.554688 259.257812 C 141.980469 253.019531 141.382812 246.570312 139.59375 240.421875 C 137.195312 232.257812 132.761719 229.332031 128.464844 226.492188 C 124.039062 223.578125 119.023438 220.265625 119.460938 211.855469 C 119.675781 207.769531 122.847656 204.253906 126.875 199.796875 C 133.359375 192.613281 141.425781 183.671875 141.472656 168.96875 C 141.484375 165.140625 141.089844 160.027344 140.707031 155.097656 C 140.390625 151.089844 140.101562 147.304688 140 144.050781 C 139.253906 120.25 148.597656 97.597656 166.277344 80.269531 C 188.875 58.121094 222.207031 46.480469 257.722656 48.3125 C 319.226562 51.476562 359.480469 86.222656 368.167969 143.648438 C 373.410156 178.359375 363.597656 208.828125 335.328125 245.511719 C 329.128906 253.558594 326.40625 267.734375 326.992188 276.980469 C 328.058594 293.777344 333.484375 314.417969 336.625 325.226562 C 337.457031 328.109375 336.90625 331.148438 335.105469 333.558594 C 333.292969 335.96875 330.523438 337.339844 327.507812 337.339844 " fill-opacity="1" fill-rule="nonzero"/></g><path fill="rgb(13.729858%, 12.159729%, 12.548828%)" d="M 163.832031 246.085938 L 143.847656 246.085938 C 141.867188 246.085938 140.246094 244.472656 140.246094 242.480469 C 140.246094 240.488281 141.867188 238.878906 143.847656 238.878906 L 163.832031 238.878906 C 165.824219 238.878906 167.433594 240.488281 167.433594 242.480469 C 167.433594 244.472656 165.824219 246.085938 163.832031 246.085938 " fill-opacity="1" fill-rule="nonzero"/><path fill="rgb(13.729858%, 12.159729%, 12.548828%)" d="M 167.175781 174.183594 C 167.175781 177.402344 164.566406 180.015625 161.335938 180.015625 C 158.105469 180.015625 155.496094 177.402344 155.496094 174.183594 C 155.496094 170.949219 158.105469 168.328125 161.335938 168.328125 C 164.566406 168.328125 167.175781 170.949219 167.175781 174.183594 " fill-opacity="1" fill-rule="nonzero"/><g clip-path="url(#id2)"><path fill="rgb(13.729858%, 12.159729%, 12.548828%)" d="M 216.457031 337.339844 L 168.46875 337.339844 C 163.84375 337.339844 159.917969 334.054688 159.128906 329.503906 C 156.023438 311.75 151.65625 297.707031 148.257812 294.542969 C 146.808594 293.195312 146.726562 290.90625 148.078125 289.457031 C 149.429688 287.992188 151.714844 287.914062 153.164062 289.273438 C 159.648438 295.300781 164.125 316.285156 166.21875 328.265625 C 166.410156 329.359375 167.355469 330.136719 168.46875 330.136719 L 216.457031 330.136719 C 218.449219 330.136719 220.058594 331.757812 220.058594 333.738281 C 220.058594 335.730469 218.449219 337.339844 216.457031 337.339844 " fill-opacity="1" fill-rule="nonzero"/></g><g clip-path="url(#id3)"><path fill="rgb(13.729858%, 12.159729%, 12.548828%)" d="M 152.523438 337.339844 L 111.820312 337.339844 C 107.195312 337.339844 103.265625 334.054688 102.46875 329.503906 C 99.148438 310.523438 94.882812 296.277344 91.609375 293.226562 C 90.15625 291.875 90.066406 289.589844 91.425781 288.136719 C 92.777344 286.683594 95.050781 286.59375 96.515625 287.945312 C 102.445312 293.464844 106.878906 312.917969 109.570312 328.265625 C 109.757812 329.359375 110.703125 330.136719 111.820312 330.136719 L 152.523438 330.136719 C 154.515625 330.136719 156.125 331.757812 156.125 333.738281 C 156.125 335.730469 154.515625 337.339844 152.523438 337.339844 " fill-opacity="1" fill-rule="nonzero"/></g><path fill="rgb(13.729858%, 12.159729%, 12.548828%)" d="M 114.878906 291.480469 C 91.226562 291.480469 89.71875 275.109375 88.265625 259.257812 C 87.691406 253.007812 87.09375 246.570312 85.304688 240.421875 C 82.910156 232.257812 78.472656 229.332031 74.175781 226.492188 C 69.753906 223.578125 64.734375 220.265625 65.160156 211.855469 C 65.375 207.769531 68.558594 204.253906 72.589844 199.785156 C 79.070312 192.613281 87.140625 183.671875 87.171875 168.96875 C 87.195312 165.140625 86.789062 160.027344 86.410156 155.097656 C 86.105469 151.089844 85.8125 147.304688 85.710938 144.050781 C 84.96875 120.25 94.296875 97.597656 111.988281 80.269531 C 134.585938 58.121094 167.941406 46.5 203.4375 48.3125 C 205.417969 48.414062 206.945312 50.117188 206.84375 52.097656 C 206.746094 54.089844 205.089844 55.597656 203.0625 55.507812 C 169.515625 53.753906 138.1875 64.671875 117.03125 85.414062 C 100.566406 101.546875 92.214844 121.746094 92.902344 143.828125 C 93.003906 146.910156 93.285156 150.617188 93.589844 154.535156 C 93.992188 159.625 94.398438 164.882812 94.375 168.992188 C 94.34375 186.453125 84.460938 197.386719 77.933594 204.617188 C 75.355469 207.476562 72.441406 210.707031 72.363281 212.238281 C 72.148438 216.316406 73.679688 217.542969 78.136719 220.480469 C 82.761719 223.53125 89.085938 227.699219 92.214844 238.40625 C 94.207031 245.207031 94.859375 252.320312 95.433594 258.59375 C 96.964844 275.191406 97.832031 285.222656 117.445312 284.207031 C 120.316406 284.097656 123.613281 283.746094 127.101562 283.375 C 132.390625 282.8125 138.378906 282.191406 143.914062 282.28125 C 145.90625 282.316406 147.480469 283.949219 147.449219 285.941406 C 147.425781 287.933594 145.816406 289.535156 143.789062 289.488281 C 138.703125 289.375 133.191406 289.972656 127.855469 290.535156 C 124.242188 290.917969 120.832031 291.28125 117.785156 291.402344 C 116.78125 291.460938 115.8125 291.480469 114.878906 291.480469 " fill-opacity="1" fill-rule="nonzero"/><path fill="rgb(13.729858%, 12.159729%, 12.548828%)" d="M 112.886719 174.183594 C 112.886719 177.402344 110.277344 180.015625 107.046875 180.015625 C 103.816406 180.015625 101.207031 177.402344 101.207031 174.183594 C 101.207031 170.949219 103.816406 168.328125 107.046875 168.328125 C 110.277344 168.328125 112.886719 170.949219 112.886719 174.183594 " fill-opacity="1" fill-rule="nonzero"/><g clip-path="url(#id4)"><path fill="rgb(13.729858%, 12.159729%, 12.548828%)" d="M 60.59375 291.480469 C 36.9375 291.480469 35.429688 275.109375 33.976562 259.257812 C 33.402344 253.019531 32.808594 246.570312 31.015625 240.421875 C 28.621094 232.257812 24.1875 229.332031 19.886719 226.492188 C 15.464844 223.578125 10.433594 220.265625 10.875 211.855469 C 11.085938 207.769531 14.273438 204.253906 18.300781 199.785156 C 24.78125 192.613281 32.851562 183.671875 32.886719 168.96875 C 32.90625 165.140625 32.503906 160.027344 32.121094 155.085938 C 31.816406 151.078125 31.523438 147.304688 31.410156 144.050781 C 30.679688 120.25 40.007812 97.597656 57.699219 80.269531 C 80.285156 58.121094 113.621094 46.480469 149.148438 48.3125 C 151.128906 48.414062 152.660156 50.117188 152.558594 52.097656 C 152.445312 54.089844 150.78125 55.597656 148.765625 55.507812 C 115.242188 53.753906 83.898438 64.671875 62.742188 85.414062 C 46.265625 101.546875 37.925781 121.746094 38.613281 143.828125 C 38.714844 146.910156 38.996094 150.605469 39.300781 154.523438 C 39.707031 159.613281 40.109375 164.882812 40.089844 168.992188 C 40.054688 186.453125 30.171875 197.386719 23.644531 204.617188 C 21.070312 207.476562 18.15625 210.707031 18.074219 212.238281 C 17.863281 216.316406 19.390625 217.542969 23.847656 220.480469 C 28.460938 223.53125 34.789062 227.699219 37.925781 238.40625 C 39.917969 245.207031 40.570312 252.320312 41.144531 258.59375 C 42.675781 275.199219 43.566406 285.234375 63.15625 284.207031 C 66.027344 284.097656 69.3125 283.746094 72.8125 283.375 C 77.046875 282.925781 81.421875 282.464844 85.765625 282.316406 C 87.703125 282.214844 89.425781 283.804688 89.492188 285.796875 C 89.558594 287.789062 88.007812 289.457031 86.015625 289.523438 C 81.917969 289.65625 77.675781 290.109375 73.566406 290.535156 C 69.957031 290.917969 66.546875 291.28125 63.496094 291.402344 C 62.484375 291.460938 61.527344 291.480469 60.59375 291.480469 " fill-opacity="1" fill-rule="nonzero"/></g><path fill="rgb(13.729858%, 12.159729%, 12.548828%)" d="M 58.601562 174.183594 C 58.601562 177.402344 55.976562 180.015625 52.757812 180.015625 C 49.53125 180.015625 46.917969 177.402344 46.917969 174.183594 C 46.917969 170.949219 49.53125 168.328125 52.757812 168.328125 C 55.976562 168.328125 58.601562 170.949219 58.601562 174.183594 " fill-opacity="1" fill-rule="nonzero"/><path fill="rgb(13.729858%, 12.159729%, 12.548828%)" d="M 56.933594 252.34375 L 46.109375 252.34375 C 44.128906 252.34375 42.507812 250.734375 42.507812 248.742188 C 42.507812 246.75 44.128906 245.136719 46.109375 245.136719 L 56.933594 245.136719 C 58.238281 245.136719 58.824219 244.238281 59.027344 243.855469 C 59.21875 243.472656 59.589844 242.457031 58.824219 241.410156 C 58.386719 240.816406 57.675781 240.464844 56.933594 240.464844 L 42.621094 240.464844 C 40.640625 240.464844 39.019531 238.855469 39.019531 236.863281 C 39.019531 234.871094 40.640625 233.261719 42.621094 233.261719 L 56.933594 233.261719 C 59.960938 233.261719 62.832031 234.710938 64.621094 237.144531 C 66.769531 240.0625 67.085938 243.878906 65.453125 247.109375 C 63.820312 250.339844 60.558594 252.34375 56.933594 252.34375 " fill-opacity="1" fill-rule="nonzero"/><path fill="rgb(13.729858%, 12.159729%, 12.548828%)" d="M 91.699219 248.109375 C 90.390625 248.109375 89.625 248.019531 89.527344 248.007812 C 87.554688 247.75 86.160156 245.949219 86.410156 243.980469 C 86.667969 242.007812 88.457031 240.613281 90.414062 240.859375 C 90.570312 240.871094 97.324219 241.546875 106.664062 237.289062 C 108.476562 236.46875 110.605469 237.269531 111.425781 239.082031 C 112.257812 240.894531 111.460938 243.023438 109.648438 243.855469 C 101.523438 247.546875 94.9375 248.109375 91.699219 248.109375 " fill-opacity="1" fill-rule="nonzero"/><g clip-path="url(#id5)"><path fill="rgb(13.729858%, 12.159729%, 12.548828%)" d="M 191.632812 282.261719 C 199.261719 282.261719 206.332031 283.511719 211.101562 287.945312 C 217.03125 293.464844 221.476562 312.917969 224.15625 328.265625 C 224.347656 329.359375 225.292969 330.136719 226.40625 330.136719 L 322.03125 330.136719 C 322.761719 330.136719 323.425781 329.808594 323.863281 329.222656 C 324.125 328.886719 324.507812 328.1875 324.226562 327.242188 C 321.007812 316.140625 315.4375 294.917969 314.320312 277.429688 C 313.636719 266.609375 316.785156 250.667969 324.144531 241.117188 C 351.457031 205.664062 360.5625 177.738281 355.566406 144.726562 C 347.441406 90.996094 309.652344 58.480469 251.875 55.507812 C 218.351562 53.753906 186.996094 64.671875 165.839844 85.414062 C 149.375 101.546875 141.035156 121.746094 141.722656 143.828125 C 141.8125 146.910156 142.105469 150.617188 142.410156 154.535156 C 142.804688 159.625 143.207031 164.882812 143.199219 168.992188 C 143.152344 186.453125 133.28125 197.386719 126.746094 204.628906 C 124.167969 207.476562 121.253906 210.707031 121.175781 212.238281 C 120.960938 216.316406 122.492188 217.542969 126.957031 220.480469 C 131.574219 223.53125 137.898438 227.699219 141.027344 238.40625 C 143.015625 245.207031 143.671875 252.320312 144.242188 258.59375 C 145.773438 275.191406 146.628906 285.222656 166.257812 284.207031 C 169.125 284.097656 172.421875 283.746094 175.910156 283.375 C 181.054688 282.835938 186.46875 282.261719 191.632812 282.261719 Z M 322.03125 337.339844 L 226.40625 337.339844 C 221.78125 337.339844 217.855469 334.054688 217.066406 329.503906 C 213.746094 310.523438 209.480469 296.277344 206.195312 293.226562 C 200.601562 288.015625 187.324219 289.421875 176.664062 290.535156 C 173.054688 290.917969 169.644531 291.28125 166.59375 291.402344 C 140.160156 292.765625 138.59375 275.730469 137.074219 259.257812 C 136.5 253.019531 135.90625 246.570312 134.117188 240.421875 C 131.71875 232.257812 127.285156 229.332031 122.984375 226.492188 C 118.5625 223.578125 113.542969 220.265625 113.984375 211.855469 C 114.195312 207.769531 117.371094 204.253906 121.398438 199.796875 C 127.882812 192.613281 135.949219 183.671875 135.996094 168.96875 C 136.007812 165.140625 135.613281 160.027344 135.230469 155.097656 C 134.914062 151.089844 134.621094 147.304688 134.519531 144.050781 C 133.777344 120.25 143.117188 97.597656 160.796875 80.269531 C 183.394531 58.121094 216.730469 46.480469 252.246094 48.3125 C 313.746094 51.476562 354.003906 86.222656 362.691406 143.648438 C 367.933594 178.359375 358.121094 208.828125 329.851562 245.511719 C 323.652344 253.558594 320.925781 267.734375 321.511719 276.980469 C 322.582031 293.777344 328.007812 314.417969 331.144531 325.226562 C 331.980469 328.109375 331.425781 331.148438 329.625 333.558594 C 327.816406 335.96875 325.046875 337.339844 322.03125 337.339844 " fill-opacity="1" fill-rule="nonzero"/></g><path fill="rgb(13.729858%, 12.159729%, 12.548828%)" d="M 158.355469 246.085938 L 138.371094 246.085938 C 136.390625 246.085938 134.769531 244.472656 134.769531 242.480469 C 134.769531 240.488281 136.390625 238.878906 138.371094 238.878906 L 158.355469 238.878906 C 160.347656 238.878906 161.957031 240.488281 161.957031 242.480469 C 161.957031 244.472656 160.347656 246.085938 158.355469 246.085938 " fill-opacity="1" fill-rule="nonzero"/><path fill="rgb(13.729858%, 12.159729%, 12.548828%)" d="M 161.699219 174.183594 C 161.699219 177.402344 159.085938 180.015625 155.859375 180.015625 C 152.628906 180.015625 150.015625 177.402344 150.015625 174.183594 C 150.015625 170.949219 152.628906 168.328125 155.859375 168.328125 C 159.085938 168.328125 161.699219 170.949219 161.699219 174.183594 " fill-opacity="1" fill-rule="nonzero"/><g clip-path="url(#id6)"><path fill="rgb(13.729858%, 12.159729%, 12.548828%)" d="M 210.980469 337.339844 L 162.992188 337.339844 C 158.367188 337.339844 154.441406 334.054688 153.652344 329.503906 C 150.546875 311.75 146.179688 297.707031 142.78125 294.542969 C 141.328125 293.195312 141.25 290.90625 142.601562 289.457031 C 143.953125 287.992188 146.234375 287.914062 147.6875 289.273438 C 154.167969 295.300781 158.648438 316.285156 160.742188 328.265625 C 160.933594 329.359375 161.878906 330.136719 162.992188 330.136719 L 210.980469 330.136719 C 212.96875 330.136719 214.578125 331.757812 214.578125 333.738281 C 214.578125 335.730469 212.96875 337.339844 210.980469 337.339844 " fill-opacity="1" fill-rule="nonzero"/></g><g clip-path="url(#id7)"><path fill="rgb(13.729858%, 12.159729%, 12.548828%)" d="M 147.046875 337.339844 L 106.339844 337.339844 C 101.714844 337.339844 97.789062 334.054688 96.988281 329.503906 C 93.667969 310.523438 89.40625 296.277344 86.128906 293.226562 C 84.679688 291.875 84.589844 289.589844 85.949219 288.136719 C 87.300781 286.683594 89.574219 286.59375 91.035156 287.945312 C 96.96875 293.464844 101.402344 312.917969 104.089844 328.265625 C 104.28125 329.359375 105.226562 330.136719 106.339844 330.136719 L 147.046875 330.136719 C 149.039062 330.136719 150.648438 331.757812 150.648438 333.738281 C 150.648438 335.730469 149.039062 337.339844 147.046875 337.339844 " fill-opacity="1" fill-rule="nonzero"/></g><path fill="rgb(13.729858%, 12.159729%, 12.548828%)" d="M 109.402344 291.480469 C 85.746094 291.480469 84.238281 275.109375 82.789062 259.257812 C 82.214844 253.007812 81.617188 246.570312 79.828125 240.421875 C 77.429688 232.257812 72.996094 229.332031 68.699219 226.492188 C 64.273438 223.578125 59.257812 220.265625 59.683594 211.855469 C 59.898438 207.769531 63.082031 204.253906 67.109375 199.785156 C 73.59375 192.613281 81.660156 183.671875 81.695312 168.96875 C 81.71875 165.140625 81.3125 160.027344 80.929688 155.097656 C 80.625 151.089844 80.335938 147.304688 80.234375 144.050781 C 79.488281 120.25 88.820312 97.597656 106.511719 80.269531 C 129.109375 58.121094 162.464844 46.5 197.957031 48.3125 C 199.9375 48.414062 201.46875 50.117188 201.367188 52.097656 C 201.265625 54.089844 199.613281 55.597656 197.585938 55.507812 C 164.039062 53.753906 132.707031 64.671875 111.550781 85.414062 C 95.085938 101.546875 86.738281 121.746094 87.425781 143.828125 C 87.523438 146.910156 87.804688 150.617188 88.109375 154.535156 C 88.515625 159.625 88.921875 164.882812 88.898438 168.992188 C 88.863281 186.453125 78.984375 197.386719 72.457031 204.617188 C 69.878906 207.476562 66.964844 210.707031 66.886719 212.238281 C 66.671875 216.316406 68.203125 217.542969 72.660156 220.480469 C 77.285156 223.53125 83.609375 227.699219 86.738281 238.40625 C 88.730469 245.207031 89.382812 252.320312 89.957031 258.59375 C 91.488281 275.191406 92.351562 285.222656 111.96875 284.207031 C 114.839844 284.097656 118.136719 283.746094 121.625 283.375 C 126.914062 282.8125 132.898438 282.191406 138.4375 282.28125 C 140.429688 282.316406 142.003906 283.949219 141.972656 285.941406 C 141.949219 287.933594 140.339844 289.535156 138.3125 289.488281 C 133.226562 289.375 127.710938 289.972656 122.378906 290.535156 C 118.765625 290.917969 115.355469 291.28125 112.304688 291.402344 C 111.304688 291.460938 110.335938 291.480469 109.402344 291.480469 " fill-opacity="1" fill-rule="nonzero"/><path fill="rgb(13.729858%, 12.159729%, 12.548828%)" d="M 107.410156 174.183594 C 107.410156 177.402344 104.800781 180.015625 101.570312 180.015625 C 98.339844 180.015625 95.730469 177.402344 95.730469 174.183594 C 95.730469 170.949219 98.339844 168.328125 101.570312 168.328125 C 104.800781 168.328125 107.410156 170.949219 107.410156 174.183594 " fill-opacity="1" fill-rule="nonzero"/><path fill="rgb(13.729858%, 12.159729%, 12.548828%)" d="M 55.113281 291.480469 C 31.460938 291.480469 29.953125 275.109375 28.5 259.257812 C 27.925781 253.019531 27.328125 246.570312 25.539062 240.421875 C 23.144531 232.257812 18.707031 229.332031 14.410156 226.492188 C 9.988281 223.578125 4.957031 220.265625 5.394531 211.855469 C 5.609375 207.769531 8.792969 204.253906 12.824219 199.785156 C 19.304688 192.613281 27.375 183.671875 27.40625 168.96875 C 27.429688 165.140625 27.023438 160.027344 26.644531 155.085938 C 26.339844 151.078125 26.046875 147.304688 25.933594 144.050781 C 25.203125 120.25 34.53125 97.597656 52.222656 80.269531 C 74.808594 58.121094 108.140625 46.480469 143.671875 48.3125 C 145.652344 48.414062 147.179688 50.117188 147.078125 52.097656 C 146.96875 54.089844 145.300781 55.597656 143.289062 55.507812 C 109.761719 53.753906 78.421875 64.671875 57.265625 85.414062 C 40.789062 101.546875 32.449219 121.746094 33.136719 143.828125 C 33.238281 146.910156 33.519531 150.605469 33.824219 154.523438 C 34.226562 159.613281 34.632812 164.882812 34.609375 168.992188 C 34.578125 186.453125 24.695312 197.386719 18.167969 204.617188 C 15.589844 207.476562 12.675781 210.707031 12.597656 212.238281 C 12.382812 216.316406 13.914062 217.542969 18.371094 220.480469 C 22.984375 223.53125 29.308594 227.699219 32.449219 238.40625 C 34.441406 245.207031 35.09375 252.320312 35.667969 258.59375 C 37.199219 275.199219 38.085938 285.234375 57.679688 284.207031 C 60.550781 284.097656 63.835938 283.746094 67.335938 283.375 C 71.566406 282.925781 75.945312 282.464844 80.289062 282.316406 C 82.226562 282.214844 83.945312 283.804688 84.015625 285.796875 C 84.082031 287.789062 82.527344 289.457031 80.535156 289.523438 C 76.441406 289.65625 72.199219 290.109375 68.089844 290.535156 C 64.476562 290.917969 61.066406 291.28125 58.019531 291.402344 C 57.003906 291.460938 56.046875 291.480469 55.113281 291.480469 " fill-opacity="1" fill-rule="nonzero"/><path fill="rgb(13.729858%, 12.159729%, 12.548828%)" d="M 53.121094 174.183594 C 53.121094 177.402344 50.5 180.015625 47.28125 180.015625 C 44.050781 180.015625 41.441406 177.402344 41.441406 174.183594 C 41.441406 170.949219 44.050781 168.328125 47.28125 168.328125 C 50.5 168.328125 53.121094 170.949219 53.121094 174.183594 " fill-opacity="1" fill-rule="nonzero"/><path fill="rgb(13.729858%, 12.159729%, 12.548828%)" d="M 51.457031 252.34375 L 40.632812 252.34375 C 38.648438 252.34375 37.03125 250.734375 37.03125 248.742188 C 37.03125 246.75 38.648438 245.136719 40.632812 245.136719 L 51.457031 245.136719 C 52.761719 245.136719 53.347656 244.238281 53.550781 243.855469 C 53.742188 243.472656 54.113281 242.457031 53.347656 241.410156 C 52.910156 240.816406 52.199219 240.464844 51.457031 240.464844 L 37.140625 240.464844 C 35.160156 240.464844 33.542969 238.855469 33.542969 236.863281 C 33.542969 234.871094 35.160156 233.261719 37.140625 233.261719 L 51.457031 233.261719 C 54.484375 233.261719 57.355469 234.710938 59.144531 237.144531 C 61.292969 240.0625 61.609375 243.878906 59.976562 247.109375 C 58.34375 250.339844 55.082031 252.34375 51.457031 252.34375 " fill-opacity="1" fill-rule="nonzero"/><path fill="rgb(13.729858%, 12.159729%, 12.548828%)" d="M 86.21875 248.109375 C 84.914062 248.109375 84.148438 248.019531 84.046875 248.007812 C 82.078125 247.75 80.683594 245.949219 80.929688 243.980469 C 81.1875 242.007812 82.980469 240.613281 84.9375 240.859375 C 85.09375 240.871094 91.847656 241.546875 101.1875 237.289062 C 103 236.46875 105.125 237.269531 105.949219 239.082031 C 106.78125 240.894531 105.980469 243.023438 104.167969 243.855469 C 96.042969 247.546875 89.460938 248.109375 86.21875 248.109375 " fill-opacity="1" fill-rule="nonzero"/><g clip-path="url(#id8)"><path fill="rgb(13.729858%, 12.159729%, 12.548828%)" d="M 186.691406 282.261719 C 194.324219 282.261719 201.390625 283.511719 206.160156 287.945312 C 212.09375 293.464844 216.539062 312.917969 219.214844 328.265625 C 219.40625 329.359375 220.351562 330.136719 221.464844 330.136719 L 317.089844 330.136719 C 317.820312 330.136719 318.484375 329.808594 318.921875 329.222656 C 319.183594 328.886719 319.566406 328.1875 319.285156 327.242188 C 316.066406 316.140625 310.496094 294.917969 309.378906 277.429688 C 308.695312 266.609375 311.84375 250.667969 319.203125 241.117188 C 346.519531 205.664062 355.621094 177.738281 350.625 144.726562 C 342.5 90.996094 304.710938 58.480469 246.933594 55.507812 C 213.410156 53.753906 182.054688 64.671875 160.898438 85.414062 C 144.433594 101.546875 136.097656 121.746094 136.78125 143.828125 C 136.871094 146.910156 137.164062 150.617188 137.46875 154.535156 C 137.863281 159.625 138.269531 164.882812 138.257812 168.992188 C 138.210938 186.453125 128.34375 197.386719 121.804688 204.628906 C 119.226562 207.476562 116.3125 210.707031 116.234375 212.238281 C 116.019531 216.316406 117.550781 217.542969 122.015625 220.480469 C 126.632812 223.53125 132.957031 227.699219 136.085938 238.40625 C 138.078125 245.207031 138.730469 252.320312 139.304688 258.59375 C 140.832031 275.191406 141.6875 285.222656 161.316406 284.207031 C 164.183594 284.097656 167.480469 283.746094 170.972656 283.375 C 176.113281 282.835938 181.527344 282.261719 186.691406 282.261719 Z M 317.089844 337.339844 L 221.464844 337.339844 C 216.839844 337.339844 212.914062 334.054688 212.125 329.503906 C 208.804688 310.523438 204.539062 296.277344 201.253906 293.226562 C 195.660156 288.015625 182.382812 289.421875 171.726562 290.535156 C 168.113281 290.917969 164.703125 291.28125 161.652344 291.402344 C 135.21875 292.765625 133.652344 275.730469 132.132812 259.257812 C 131.558594 253.019531 130.964844 246.570312 129.175781 240.421875 C 126.777344 232.257812 122.34375 229.332031 118.042969 226.492188 C 113.621094 223.578125 108.601562 220.265625 109.042969 211.855469 C 109.253906 207.769531 112.429688 204.253906 116.457031 199.796875 C 122.941406 192.613281 131.007812 183.671875 131.054688 168.96875 C 131.066406 165.140625 130.671875 160.027344 130.289062 155.097656 C 129.972656 151.089844 129.679688 147.304688 129.578125 144.050781 C 128.835938 120.25 138.175781 97.597656 155.855469 80.269531 C 178.453125 58.121094 211.789062 46.480469 247.304688 48.3125 C 308.804688 51.476562 349.0625 86.222656 357.75 143.648438 C 362.992188 178.359375 353.179688 208.828125 324.910156 245.511719 C 318.710938 253.558594 315.988281 267.734375 316.570312 276.980469 C 317.640625 293.777344 323.066406 314.417969 326.203125 325.226562 C 327.039062 328.109375 326.484375 331.148438 324.6875 333.558594 C 322.875 335.96875 320.105469 337.339844 317.089844 337.339844 " fill-opacity="1" fill-rule="nonzero"/></g><path fill="rgb(13.729858%, 12.159729%, 12.548828%)" d="M 153.414062 246.085938 L 133.429688 246.085938 C 131.449219 246.085938 129.828125 244.472656 129.828125 242.480469 C 129.828125 240.488281 131.449219 238.878906 133.429688 238.878906 L 153.414062 238.878906 C 155.40625 238.878906 157.015625 240.488281 157.015625 242.480469 C 157.015625 244.472656 155.40625 246.085938 153.414062 246.085938 " fill-opacity="1" fill-rule="nonzero"/><path fill="rgb(13.729858%, 12.159729%, 12.548828%)" d="M 156.757812 174.183594 C 156.757812 177.402344 154.148438 180.015625 150.917969 180.015625 C 147.6875 180.015625 145.078125 177.402344 145.078125 174.183594 C 145.078125 170.949219 147.6875 168.328125 150.917969 168.328125 C 154.148438 168.328125 156.757812 170.949219 156.757812 174.183594 " fill-opacity="1" fill-rule="nonzero"/><g clip-path="url(#id9)"><path fill="rgb(13.729858%, 12.159729%, 12.548828%)" d="M 206.039062 337.339844 L 158.050781 337.339844 C 153.425781 337.339844 149.5 334.054688 148.710938 329.503906 C 145.605469 311.75 141.238281 297.707031 137.839844 294.542969 C 136.386719 293.195312 136.308594 290.90625 137.660156 289.457031 C 139.011719 287.992188 141.296875 287.914062 142.746094 289.273438 C 149.230469 295.300781 153.707031 316.285156 155.800781 328.265625 C 155.992188 329.359375 156.9375 330.136719 158.050781 330.136719 L 206.039062 330.136719 C 208.03125 330.136719 209.640625 331.757812 209.640625 333.738281 C 209.640625 335.730469 208.03125 337.339844 206.039062 337.339844 " fill-opacity="1" fill-rule="nonzero"/></g><g clip-path="url(#id10)"><path fill="rgb(13.729858%, 12.159729%, 12.548828%)" d="M 142.105469 337.339844 L 101.402344 337.339844 C 96.773438 337.339844 92.847656 334.054688 92.046875 329.503906 C 88.730469 310.523438 84.464844 296.277344 81.1875 293.226562 C 79.738281 291.875 79.648438 289.589844 81.007812 288.136719 C 82.359375 286.683594 84.632812 286.59375 86.09375 287.945312 C 92.027344 293.464844 96.460938 312.917969 99.148438 328.265625 C 99.339844 329.359375 100.285156 330.136719 101.402344 330.136719 L 142.105469 330.136719 C 144.097656 330.136719 145.707031 331.757812 145.707031 333.738281 C 145.707031 335.730469 144.097656 337.339844 142.105469 337.339844 " fill-opacity="1" fill-rule="nonzero"/></g><path fill="rgb(13.729858%, 12.159729%, 12.548828%)" d="M 104.460938 291.480469 C 80.804688 291.480469 79.296875 275.109375 77.847656 259.257812 C 77.273438 253.007812 76.675781 246.570312 74.886719 240.421875 C 72.488281 232.257812 68.054688 229.332031 63.757812 226.492188 C 59.335938 223.578125 54.316406 220.265625 54.742188 211.855469 C 54.957031 207.769531 58.140625 204.253906 62.171875 199.785156 C 68.652344 192.613281 76.722656 183.671875 76.753906 168.96875 C 76.777344 165.140625 76.371094 160.027344 75.988281 155.097656 C 75.6875 151.089844 75.394531 147.304688 75.292969 144.050781 C 74.550781 120.25 83.878906 97.597656 101.570312 80.269531 C 124.167969 58.121094 157.523438 46.5 193.015625 48.3125 C 194.996094 48.414062 196.527344 50.117188 196.425781 52.097656 C 196.324219 54.089844 194.671875 55.597656 192.644531 55.507812 C 159.097656 53.753906 127.769531 64.671875 106.609375 85.414062 C 90.148438 101.546875 81.796875 121.746094 82.484375 143.828125 C 82.585938 146.910156 82.867188 150.617188 83.167969 154.535156 C 83.574219 159.625 83.980469 164.882812 83.957031 168.992188 C 83.921875 186.453125 74.042969 197.386719 67.515625 204.617188 C 64.9375 207.476562 62.023438 210.707031 61.945312 212.238281 C 61.730469 216.316406 63.261719 217.542969 67.71875 220.480469 C 72.34375 223.53125 78.667969 227.699219 81.796875 238.40625 C 83.789062 245.207031 84.441406 252.320312 85.015625 258.59375 C 86.546875 275.191406 87.414062 285.222656 107.027344 284.207031 C 109.898438 284.097656 113.195312 283.746094 116.683594 283.375 C 121.972656 282.8125 127.960938 282.191406 133.496094 282.28125 C 135.488281 282.316406 137.0625 283.949219 137.03125 285.941406 C 137.007812 287.933594 135.398438 289.535156 133.371094 289.488281 C 128.285156 289.375 122.769531 289.972656 117.4375 290.535156 C 113.824219 290.917969 110.414062 291.28125 107.363281 291.402344 C 106.363281 291.460938 105.394531 291.480469 104.460938 291.480469 " fill-opacity="1" fill-rule="nonzero"/><path fill="rgb(13.729858%, 12.159729%, 12.548828%)" d="M 102.46875 174.183594 C 102.46875 177.402344 99.859375 180.015625 96.628906 180.015625 C 93.398438 180.015625 90.789062 177.402344 90.789062 174.183594 C 90.789062 170.949219 93.398438 168.328125 96.628906 168.328125 C 99.859375 168.328125 102.46875 170.949219 102.46875 174.183594 " fill-opacity="1" fill-rule="nonzero"/><path fill="rgb(13.729858%, 12.159729%, 12.548828%)" d="M 50.171875 291.480469 C 26.519531 291.480469 25.011719 275.109375 23.558594 259.257812 C 22.984375 253.019531 22.386719 246.570312 20.597656 240.421875 C 18.203125 232.257812 13.769531 229.332031 9.46875 226.492188 C 5.046875 223.578125 0.015625 220.265625 0.453125 211.855469 C 0.667969 207.769531 3.851562 204.253906 7.882812 199.785156 C 14.363281 192.613281 22.433594 183.671875 22.46875 168.96875 C 22.488281 165.140625 22.085938 160.027344 21.703125 155.085938 C 21.398438 151.078125 21.105469 147.304688 20.992188 144.050781 C 20.261719 120.25 29.589844 97.597656 47.28125 80.269531 C 69.867188 58.121094 103.199219 46.480469 138.730469 48.3125 C 140.710938 48.414062 142.242188 50.117188 142.140625 52.097656 C 142.027344 54.089844 140.359375 55.597656 138.347656 55.507812 C 104.820312 53.753906 73.480469 64.671875 52.324219 85.414062 C 35.847656 101.546875 27.507812 121.746094 28.195312 143.828125 C 28.296875 146.910156 28.578125 150.605469 28.882812 154.523438 C 29.285156 159.613281 29.691406 164.882812 29.667969 168.992188 C 29.636719 186.453125 19.753906 197.386719 13.226562 204.617188 C 10.652344 207.476562 7.734375 210.707031 7.65625 212.238281 C 7.441406 216.316406 8.972656 217.542969 13.429688 220.480469 C 18.042969 223.53125 24.367188 227.699219 27.507812 238.40625 C 29.5 245.207031 30.152344 252.320312 30.726562 258.59375 C 32.257812 275.199219 33.148438 285.234375 52.738281 284.207031 C 55.609375 284.097656 58.894531 283.746094 62.394531 283.375 C 66.625 282.925781 71.003906 282.464844 75.347656 282.316406 C 77.285156 282.214844 79.003906 283.804688 79.074219 285.796875 C 79.140625 287.789062 77.585938 289.457031 75.597656 289.523438 C 71.5 289.65625 67.257812 290.109375 63.148438 290.535156 C 59.535156 290.917969 56.125 291.28125 53.078125 291.402344 C 52.0625 291.460938 51.109375 291.480469 50.171875 291.480469 " fill-opacity="1" fill-rule="nonzero"/><path fill="rgb(13.729858%, 12.159729%, 12.548828%)" d="M 48.183594 174.183594 C 48.183594 177.402344 45.558594 180.015625 42.339844 180.015625 C 39.109375 180.015625 36.5 177.402344 36.5 174.183594 C 36.5 170.949219 39.109375 168.328125 42.339844 168.328125 C 45.558594 168.328125 48.183594 170.949219 48.183594 174.183594 " fill-opacity="1" fill-rule="nonzero"/><path fill="rgb(13.729858%, 12.159729%, 12.548828%)" d="M 46.515625 252.34375 L 35.691406 252.34375 C 33.710938 252.34375 32.089844 250.734375 32.089844 248.742188 C 32.089844 246.75 33.710938 245.136719 35.691406 245.136719 L 46.515625 245.136719 C 47.820312 245.136719 48.40625 244.238281 48.609375 243.855469 C 48.800781 243.472656 49.171875 242.457031 48.40625 241.410156 C 47.96875 240.816406 47.257812 240.464844 46.515625 240.464844 L 32.203125 240.464844 C 30.222656 240.464844 28.601562 238.855469 28.601562 236.863281 C 28.601562 234.871094 30.222656 233.261719 32.203125 233.261719 L 46.515625 233.261719 C 49.542969 233.261719 52.414062 234.710938 54.203125 237.144531 C 56.351562 240.0625 56.667969 243.878906 55.035156 247.109375 C 53.402344 250.339844 50.140625 252.34375 46.515625 252.34375 " fill-opacity="1" fill-rule="nonzero"/><path fill="rgb(13.729858%, 12.159729%, 12.548828%)" d="M 81.277344 248.109375 C 79.972656 248.109375 79.207031 248.019531 79.105469 248.007812 C 77.136719 247.75 75.742188 245.949219 75.988281 243.980469 C 76.25 242.007812 78.039062 240.613281 79.996094 240.859375 C 80.152344 240.871094 86.90625 241.546875 96.246094 237.289062 C 98.058594 236.46875 100.183594 237.269531 101.007812 239.082031 C 101.839844 240.894531 101.039062 243.023438 99.230469 243.855469 C 91.101562 247.546875 84.519531 248.109375 81.277344 248.109375 " fill-opacity="1" fill-rule="nonzero"/><g clip-path="url(#id11)"><path fill="rgb(13.729858%, 12.159729%, 12.548828%)" d="M 202.476562 282.261719 C 210.105469 282.261719 217.171875 283.511719 221.945312 287.945312 C 227.875 293.464844 232.320312 312.917969 235 328.265625 C 235.191406 329.359375 236.136719 330.136719 237.25 330.136719 L 332.871094 330.136719 C 333.601562 330.136719 334.265625 329.808594 334.707031 329.222656 C 334.964844 328.886719 335.347656 328.1875 335.066406 327.242188 C 331.847656 316.140625 326.277344 294.917969 325.164062 277.429688 C 324.476562 266.609375 327.628906 250.667969 334.988281 241.117188 C 362.300781 205.664062 371.40625 177.738281 366.40625 144.726562 C 358.28125 90.996094 320.492188 58.480469 262.714844 55.507812 C 229.191406 53.753906 197.839844 64.671875 176.679688 85.414062 C 160.21875 101.546875 151.878906 121.746094 152.566406 143.828125 C 152.65625 146.910156 152.949219 150.617188 153.25 154.535156 C 153.644531 159.625 154.050781 164.882812 154.039062 168.992188 C 153.992188 186.453125 144.125 197.386719 137.585938 204.628906 C 135.007812 207.476562 132.09375 210.707031 132.015625 212.238281 C 131.800781 216.316406 133.332031 217.542969 137.800781 220.480469 C 142.414062 223.53125 148.738281 227.699219 151.867188 238.40625 C 153.859375 245.207031 154.511719 252.320312 155.085938 258.59375 C 156.617188 275.191406 157.472656 285.222656 177.097656 284.207031 C 179.96875 284.097656 183.265625 283.746094 186.753906 283.375 C 191.894531 282.835938 197.308594 282.261719 202.476562 282.261719 Z M 332.871094 337.339844 L 237.25 337.339844 C 232.625 337.339844 228.695312 334.054688 227.910156 329.503906 C 224.589844 310.523438 220.324219 296.277344 217.039062 293.226562 C 211.445312 288.015625 198.164062 289.421875 187.507812 290.535156 C 183.894531 290.917969 180.484375 291.28125 177.433594 291.402344 C 151 292.765625 149.4375 275.730469 147.917969 259.257812 C 147.34375 253.019531 146.746094 246.570312 144.957031 240.421875 C 142.558594 232.257812 138.125 229.332031 133.828125 226.492188 C 129.40625 223.578125 124.386719 220.265625 124.824219 211.855469 C 125.039062 207.769531 128.210938 204.253906 132.242188 199.796875 C 138.722656 192.613281 146.792969 183.671875 146.835938 168.96875 C 146.847656 165.140625 146.453125 160.027344 146.070312 155.097656 C 145.757812 151.089844 145.464844 147.304688 145.363281 144.050781 C 144.621094 120.25 153.960938 97.597656 171.640625 80.269531 C 194.238281 58.121094 227.570312 46.480469 263.085938 48.3125 C 324.589844 51.476562 364.84375 86.222656 373.53125 143.648438 C 378.777344 178.359375 368.960938 208.828125 340.691406 245.511719 C 334.492188 253.558594 331.769531 267.734375 332.355469 276.980469 C 333.421875 293.777344 338.847656 314.417969 341.988281 325.226562 C 342.820312 328.109375 342.269531 331.148438 340.46875 333.558594 C 338.65625 335.96875 335.886719 337.339844 332.871094 337.339844 " fill-opacity="1" fill-rule="nonzero"/></g><path fill="rgb(13.729858%, 12.159729%, 12.548828%)" d="M 169.199219 246.085938 L 149.210938 246.085938 C 147.230469 246.085938 145.609375 244.472656 145.609375 242.480469 C 145.609375 240.488281 147.230469 238.878906 149.210938 238.878906 L 169.199219 238.878906 C 171.191406 238.878906 172.800781 240.488281 172.800781 242.480469 C 172.800781 244.472656 171.191406 246.085938 169.199219 246.085938 " fill-opacity="1" fill-rule="nonzero"/><path fill="rgb(13.729858%, 12.159729%, 12.548828%)" d="M 172.539062 174.183594 C 172.539062 177.402344 169.929688 180.015625 166.699219 180.015625 C 163.46875 180.015625 160.859375 177.402344 160.859375 174.183594 C 160.859375 170.949219 163.46875 168.328125 166.699219 168.328125 C 169.929688 168.328125 172.539062 170.949219 172.539062 174.183594 " fill-opacity="1" fill-rule="nonzero"/><g clip-path="url(#id12)"><path fill="rgb(13.729858%, 12.159729%, 12.548828%)" d="M 221.820312 337.339844 L 173.835938 337.339844 C 169.207031 337.339844 165.28125 334.054688 164.492188 329.503906 C 161.386719 311.75 157.019531 297.707031 153.621094 294.542969 C 152.171875 293.195312 152.09375 290.90625 153.441406 289.457031 C 154.792969 287.992188 157.078125 287.914062 158.527344 289.273438 C 165.011719 295.300781 169.492188 316.285156 171.582031 328.265625 C 171.773438 329.359375 172.71875 330.136719 173.835938 330.136719 L 221.820312 330.136719 C 223.8125 330.136719 225.421875 331.757812 225.421875 333.738281 C 225.421875 335.730469 223.8125 337.339844 221.820312 337.339844 " fill-opacity="1" fill-rule="nonzero"/></g><g clip-path="url(#id13)"><path fill="rgb(13.729858%, 12.159729%, 12.548828%)" d="M 157.886719 337.339844 L 117.183594 337.339844 C 112.558594 337.339844 108.628906 334.054688 107.832031 329.503906 C 104.511719 310.523438 100.246094 296.277344 96.972656 293.226562 C 95.519531 291.875 95.429688 289.589844 96.792969 288.136719 C 98.140625 286.683594 100.414062 286.59375 101.878906 287.945312 C 107.808594 293.464844 112.242188 312.917969 114.933594 328.265625 C 115.125 329.359375 116.070312 330.136719 117.183594 330.136719 L 157.886719 330.136719 C 159.878906 330.136719 161.488281 331.757812 161.488281 333.738281 C 161.488281 335.730469 159.878906 337.339844 157.886719 337.339844 " fill-opacity="1" fill-rule="nonzero"/></g><path fill="rgb(13.729858%, 12.159729%, 12.548828%)" d="M 120.242188 291.480469 C 96.589844 291.480469 95.082031 275.109375 93.628906 259.257812 C 93.054688 253.007812 92.457031 246.570312 90.667969 240.421875 C 88.273438 232.257812 83.839844 229.332031 79.539062 226.492188 C 75.117188 223.578125 70.097656 220.265625 70.523438 211.855469 C 70.738281 207.769531 73.921875 204.253906 77.953125 199.785156 C 84.433594 192.613281 92.503906 183.671875 92.539062 168.96875 C 92.558594 165.140625 92.15625 160.027344 91.773438 155.097656 C 91.46875 151.089844 91.175781 147.304688 91.074219 144.050781 C 90.332031 120.25 99.660156 97.597656 117.351562 80.269531 C 139.949219 58.121094 173.304688 46.5 208.800781 48.3125 C 210.78125 48.414062 212.3125 50.117188 212.210938 52.097656 C 212.109375 54.089844 210.453125 55.597656 208.429688 55.507812 C 174.878906 53.753906 143.550781 64.671875 122.394531 85.414062 C 105.929688 101.546875 97.578125 121.746094 98.265625 143.828125 C 98.367188 146.910156 98.648438 150.617188 98.953125 154.535156 C 99.355469 159.625 99.761719 164.882812 99.738281 168.992188 C 99.707031 186.453125 89.824219 197.386719 83.296875 204.617188 C 80.722656 207.476562 77.804688 210.707031 77.726562 212.238281 C 77.515625 216.316406 79.042969 217.542969 83.5 220.480469 C 88.125 223.53125 94.449219 227.699219 97.578125 238.40625 C 99.570312 245.207031 100.222656 252.320312 100.796875 258.59375 C 102.328125 275.191406 103.195312 285.222656 122.808594 284.207031 C 125.679688 284.097656 128.976562 283.746094 132.464844 283.375 C 137.753906 282.8125 143.742188 282.191406 149.277344 282.28125 C 151.269531 282.316406 152.847656 283.949219 152.8125 285.941406 C 152.789062 287.933594 151.179688 289.535156 149.15625 289.488281 C 144.066406 289.375 138.554688 289.972656 133.21875 290.535156 C 129.605469 290.917969 126.195312 291.28125 123.148438 291.402344 C 122.144531 291.460938 121.179688 291.480469 120.242188 291.480469 " fill-opacity="1" fill-rule="nonzero"/><path fill="rgb(13.729858%, 12.159729%, 12.548828%)" d="M 118.253906 174.183594 C 118.253906 177.402344 115.640625 180.015625 112.410156 180.015625 C 109.183594 180.015625 106.570312 177.402344 106.570312 174.183594 C 106.570312 170.949219 109.183594 168.328125 112.410156 168.328125 C 115.640625 168.328125 118.253906 170.949219 118.253906 174.183594 " fill-opacity="1" fill-rule="nonzero"/><path fill="rgb(13.729858%, 12.159729%, 12.548828%)" d="M 65.957031 291.480469 C 42.300781 291.480469 40.792969 275.109375 39.339844 259.257812 C 38.765625 253.019531 38.171875 246.570312 36.382812 240.421875 C 33.984375 232.257812 29.550781 229.332031 25.25 226.492188 C 20.828125 223.578125 15.796875 220.265625 16.238281 211.855469 C 16.449219 207.769531 19.636719 204.253906 23.664062 199.785156 C 30.148438 192.613281 38.214844 183.671875 38.25 168.96875 C 38.273438 165.140625 37.867188 160.027344 37.484375 155.085938 C 37.179688 151.078125 36.886719 147.304688 36.773438 144.050781 C 36.042969 120.25 45.375 97.597656 63.0625 80.269531 C 85.648438 58.121094 118.984375 46.480469 154.511719 48.3125 C 156.492188 48.414062 158.023438 50.117188 157.921875 52.097656 C 157.808594 54.089844 156.144531 55.597656 154.128906 55.507812 C 120.605469 53.753906 89.261719 64.671875 68.105469 85.414062 C 51.628906 101.546875 43.292969 121.746094 43.976562 143.828125 C 44.078125 146.910156 44.359375 150.605469 44.664062 154.523438 C 45.070312 159.613281 45.472656 164.882812 45.453125 168.992188 C 45.417969 186.453125 35.539062 197.386719 29.011719 204.617188 C 26.433594 207.476562 23.519531 210.707031 23.441406 212.238281 C 23.226562 216.316406 24.757812 217.542969 29.210938 220.480469 C 33.828125 223.53125 40.152344 227.699219 43.292969 238.40625 C 45.28125 245.207031 45.9375 252.320312 46.507812 258.59375 C 48.039062 275.199219 48.929688 285.234375 68.523438 284.207031 C 71.390625 284.097656 74.679688 283.746094 78.175781 283.375 C 82.410156 282.925781 86.785156 282.464844 91.128906 282.316406 C 93.066406 282.214844 94.789062 283.804688 94.855469 285.796875 C 94.921875 287.789062 93.371094 289.457031 91.378906 289.523438 C 87.28125 289.65625 83.039062 290.109375 78.933594 290.535156 C 75.320312 290.917969 71.910156 291.28125 68.859375 291.402344 C 67.847656 291.460938 66.890625 291.480469 65.957031 291.480469 " fill-opacity="1" fill-rule="nonzero"/><path fill="rgb(13.729858%, 12.159729%, 12.548828%)" d="M 63.964844 174.183594 C 63.964844 177.402344 61.34375 180.015625 58.125 180.015625 C 54.894531 180.015625 52.28125 177.402344 52.28125 174.183594 C 52.28125 170.949219 54.894531 168.328125 58.125 168.328125 C 61.34375 168.328125 63.964844 170.949219 63.964844 174.183594 " fill-opacity="1" fill-rule="nonzero"/><path fill="rgb(13.729858%, 12.159729%, 12.548828%)" d="M 62.296875 252.34375 L 51.472656 252.34375 C 49.492188 252.34375 47.871094 250.734375 47.871094 248.742188 C 47.871094 246.75 49.492188 245.136719 51.472656 245.136719 L 62.296875 245.136719 C 63.605469 245.136719 64.1875 244.238281 64.390625 243.855469 C 64.582031 243.472656 64.953125 242.457031 64.1875 241.410156 C 63.75 240.816406 63.042969 240.464844 62.296875 240.464844 L 47.984375 240.464844 C 46.003906 240.464844 44.382812 238.855469 44.382812 236.863281 C 44.382812 234.871094 46.003906 233.261719 47.984375 233.261719 L 62.296875 233.261719 C 65.324219 233.261719 68.195312 234.710938 69.984375 237.144531 C 72.132812 240.0625 72.449219 243.878906 70.816406 247.109375 C 69.1875 250.339844 65.921875 252.34375 62.296875 252.34375 " fill-opacity="1" fill-rule="nonzero"/><path fill="rgb(13.729858%, 12.159729%, 12.548828%)" d="M 97.0625 248.109375 C 95.757812 248.109375 94.992188 248.019531 94.890625 248.007812 C 92.921875 247.75 91.523438 245.949219 91.773438 243.980469 C 92.03125 242.007812 93.820312 240.613281 95.777344 240.859375 C 95.9375 240.871094 102.6875 241.546875 112.027344 237.289062 C 113.839844 236.46875 115.96875 237.269531 116.789062 239.082031 C 117.621094 240.894531 116.824219 243.023438 115.011719 243.855469 C 106.886719 247.546875 100.300781 248.109375 97.0625 248.109375 " fill-opacity="1" fill-rule="nonzero"/></svg>