<svg xmlns="http://www.w3.org/2000/svg" xmlns:xlink="http://www.w3.org/1999/xlink" width="154" zoomAndPan="magnify" viewBox="0 0 115.5 115.499996" height="154" preserveAspectRatio="xMidYMid meet" version="1.0"><defs><clipPath id="id1"><path d="M 27 31 L 91 31 L 91 88.546875 L 27 88.546875 Z M 27 31 " clip-rule="nonzero"/></clipPath><clipPath id="id2"><path d="M 41 27.046875 L 68 27.046875 L 68 33 L 41 33 Z M 41 27.046875 " clip-rule="nonzero"/></clipPath><clipPath id="id3"><path d="M 90 55 L 91.886719 55 L 91.886719 61 L 90 61 Z M 90 55 " clip-rule="nonzero"/></clipPath><clipPath id="id4"><path d="M 91 63 L 91.886719 63 L 91.886719 68 L 91 68 Z M 91 63 " clip-rule="nonzero"/></clipPath><clipPath id="id5"><path d="M 82 86 L 85 86 L 85 88.546875 L 82 88.546875 Z M 82 86 " clip-rule="nonzero"/></clipPath><clipPath id="id6"><path d="M 90 52 L 91.886719 52 L 91.886719 55 L 90 55 Z M 90 52 " clip-rule="nonzero"/></clipPath><clipPath id="id7"><path d="M 23.636719 62 L 24 62 L 24 66 L 23.636719 66 Z M 23.636719 62 " clip-rule="nonzero"/></clipPath><clipPath id="id8"><path d="M 44.96875 41.289062 L 72.71875 41.289062 L 72.71875 84.789062 L 44.96875 84.789062 Z M 44.96875 41.289062 " clip-rule="nonzero"/></clipPath><clipPath id="id9"><path d="M 27 33 L 91 33 L 91 89.597656 L 27 89.597656 Z M 27 33 " clip-rule="nonzero"/></clipPath><clipPath id="id10"><path d="M 41 28.097656 L 68 28.097656 L 68 34 L 41 34 Z M 41 28.097656 " clip-rule="nonzero"/></clipPath><clipPath id="id11"><path d="M 90 56 L 91.886719 56 L 91.886719 62 L 90 62 Z M 90 56 " clip-rule="nonzero"/></clipPath><clipPath id="id12"><path d="M 91 64 L 91.886719 64 L 91.886719 69 L 91 69 Z M 91 64 " clip-rule="nonzero"/></clipPath><clipPath id="id13"><path d="M 82 87 L 85 87 L 85 89.597656 L 82 89.597656 Z M 82 87 " clip-rule="nonzero"/></clipPath><clipPath id="id14"><path d="M 90 53 L 91.886719 53 L 91.886719 56 L 90 56 Z M 90 53 " clip-rule="nonzero"/></clipPath><clipPath id="id15"><path d="M 23.636719 63 L 24 63 L 24 67 L 23.636719 67 Z M 23.636719 63 " clip-rule="nonzero"/></clipPath><clipPath id="id16"><path d="M 44.96875 42.339844 L 72.71875 42.339844 L 72.71875 85.839844 L 44.96875 85.839844 Z M 44.96875 42.339844 " clip-rule="nonzero"/></clipPath><clipPath id="id17"><path d="M 91 54 L 92.859375 54 L 92.859375 60 L 91 60 Z M 91 54 " clip-rule="nonzero"/></clipPath><clipPath id="id18"><path d="M 92 62 L 92.859375 62 L 92.859375 67 L 92 67 Z M 92 62 " clip-rule="nonzero"/></clipPath><clipPath id="id19"><path d="M 83 85 L 86 85 L 86 87.347656 L 83 87.347656 Z M 83 85 " clip-rule="nonzero"/></clipPath><clipPath id="id20"><path d="M 91 51 L 92.859375 51 L 92.859375 54 L 91 54 Z M 91 51 " clip-rule="nonzero"/></clipPath><clipPath id="id21"><path d="M 24.609375 61 L 25 61 L 25 65 L 24.609375 65 Z M 24.609375 61 " clip-rule="nonzero"/></clipPath><clipPath id="id22"><path d="M 45.945312 40.089844 L 73.695312 40.089844 L 73.695312 83.589844 L 45.945312 83.589844 Z M 45.945312 40.089844 " clip-rule="nonzero"/></clipPath></defs><g clip-path="url(#id1)"><path fill="rgb(13.729858%, 12.159729%, 12.548828%)" d="M 29.226562 54.238281 C 29.210938 54.167969 29.023438 54.554688 28.902344 54.996094 C 28.804688 55.453125 28.765625 55.808594 28.832031 55.6875 C 28.871094 55.625 28.945312 55.347656 29.007812 55.167969 C 29.109375 54.726562 29.257812 54.316406 29.226562 54.238281 Z M 28.363281 57.722656 C 28.355469 57.738281 28.3125 57.890625 28.285156 57.984375 C 28.289062 58.042969 28.28125 58.164062 28.292969 58.148438 C 28.300781 58.132812 28.320312 57.976562 28.355469 57.886719 C 28.359375 57.828125 28.375 57.707031 28.363281 57.722656 Z M 89.292969 72.5625 C 89.21875 72.75 89.136719 72.96875 89.054688 73.179688 C 89.234375 72.480469 89.433594 71.703125 89.644531 70.628906 C 89.882812 69.617188 90.109375 68.625 90.152344 67.636719 C 90.503906 64.597656 90.398438 61.339844 89.828125 58.15625 C 89.449219 55.636719 88.597656 53.328125 87.671875 51.246094 C 87.234375 50.40625 86.765625 49.535156 86.328125 48.585938 C 85.636719 47.460938 85.039062 46.324219 84.207031 45.3125 C 83.714844 44.699219 83.25 44.050781 82.734375 43.445312 L 81.101562 41.691406 C 78.335938 38.898438 75.035156 36.644531 71.417969 35.089844 C 70.800781 34.773438 70.148438 34.542969 69.488281 34.332031 L 67.519531 33.664062 C 66.164062 33.398438 64.839844 32.941406 63.453125 32.839844 C 58.835938 32.199219 54.085938 32.578125 49.628906 33.992188 C 46.019531 35.140625 42.632812 37.023438 39.691406 39.417969 C 39.328125 39.667969 39.023438 39.996094 38.699219 40.277344 C 36.421875 42.128906 34.644531 44.503906 33.070312 46.921875 C 30.863281 50.523438 29.367188 54.550781 28.699219 58.734375 C 28.601562 59.667969 28.417969 60.605469 28.390625 61.550781 C 28.386719 62.5 28.328125 63.449219 28.359375 64.398438 C 28.476562 67.382812 29.0625 70.332031 29.96875 73.171875 C 30.925781 76 32.332031 78.65625 34.003906 81.117188 C 34.183594 81.347656 34.359375 81.582031 34.535156 81.804688 L 35.644531 83.285156 L 36.898438 84.644531 C 37.691406 85.59375 38.691406 86.328125 39.59375 87.167969 C 39.859375 87.425781 40.1875 87.675781 40.464844 87.902344 C 40.703125 88.097656 40.652344 88.082031 40.378906 87.890625 C 39.644531 87.425781 39.054688 86.785156 38.382812 86.238281 C 37.707031 85.695312 37.113281 85.066406 36.53125 84.425781 C 36.042969 83.890625 35.496094 83.367188 35.089844 82.792969 C 33.703125 81.164062 32.582031 79.375 31.757812 78.328125 C 31.53125 77.996094 31.167969 77.308594 30.832031 76.59375 C 30.730469 76.375 30.652344 76.167969 30.589844 76 C 30.570312 75.941406 30.605469 75.964844 30.648438 76.03125 C 30.742188 76.1875 30.863281 76.386719 30.972656 76.566406 C 31.082031 76.742188 31.203125 76.933594 31.292969 77.078125 C 31.332031 77.140625 31.34375 77.125 31.332031 77.074219 C 31.320312 77.023438 31.265625 76.875 31.222656 76.789062 C 30.804688 76.027344 30.488281 75.214844 30.183594 74.40625 C 29.902344 73.6875 29.65625 73.195312 29.503906 72.945312 C 29.425781 72.804688 29.355469 72.695312 29.261719 72.484375 C 29.128906 72.183594 28.964844 71.667969 28.800781 71.058594 C 28.730469 70.777344 28.652344 70.480469 28.585938 70.214844 C 28.460938 69.335938 28.335938 68.472656 28.183594 67.632812 C 28.027344 66.792969 28.011719 65.949219 27.882812 65.128906 C 27.769531 64.464844 27.765625 63.734375 27.816406 62.980469 C 27.84375 62.308594 27.820312 61.855469 27.777344 61.53125 C 27.753906 61.304688 27.695312 61.113281 27.707031 60.855469 C 27.707031 60.59375 27.691406 60.320312 27.730469 59.960938 C 27.796875 59.128906 27.859375 58.429688 27.910156 57.785156 C 28.007812 57.140625 28.09375 56.554688 28.183594 55.953125 C 28.226562 55.648438 28.320312 55.164062 28.445312 54.699219 C 28.605469 54.242188 28.773438 53.800781 28.886719 53.558594 C 29.058594 53.210938 29.179688 52.96875 29.339844 52.644531 C 29.59375 52.046875 29.917969 51.269531 30.132812 50.625 C 30.210938 50.378906 30.230469 50.230469 30.324219 49.949219 C 30.417969 49.675781 30.554688 49.28125 30.703125 48.953125 C 31.367188 47.714844 31.917969 46.640625 32.585938 45.539062 C 32.652344 45.441406 32.796875 45.253906 32.839844 45.210938 C 32.941406 45.109375 33.082031 44.964844 33.074219 45.011719 C 33.0625 45.097656 32.941406 45.328125 32.886719 45.46875 C 32.617188 46.042969 32.328125 46.9375 31.230469 48.804688 C 30.878906 49.566406 30.601562 50.328125 30.296875 51.074219 C 30.144531 51.449219 30.082031 51.75 30.195312 51.542969 C 30.304688 51.34375 30.441406 51.09375 30.539062 50.871094 L 31.308594 49.152344 C 31.578125 48.585938 31.921875 48.058594 32.222656 47.507812 C 32.800781 46.390625 33.550781 45.382812 34.289062 44.363281 C 34.730469 43.679688 35.304688 43.097656 35.835938 42.480469 C 36.371094 41.867188 36.902344 41.25 37.523438 40.71875 C 37.953125 40.316406 38.425781 39.875 38.8125 39.515625 C 40.242188 38.25 41.773438 37.15625 43.453125 36.238281 C 44.300781 35.695312 45.304688 35.332031 46.210938 34.847656 C 49.445312 33.375 52.925781 32.488281 56.460938 32.136719 C 57.5625 32.046875 58.667969 31.929688 59.78125 32.003906 L 61.449219 32.042969 C 62 32.085938 62.550781 32.175781 63.101562 32.238281 C 64.660156 32.355469 66.160156 32.792969 67.683594 33.121094 C 69.148438 33.640625 70.671875 34.027344 72.0625 34.742188 C 72.863281 35.121094 73.726562 35.449219 74.445312 35.898438 C 76.277344 36.84375 78 38.035156 79.558594 39.390625 C 82.574219 42.007812 85.15625 45.167969 87.007812 48.722656 C 87.382812 49.523438 87.808594 50.304688 88.171875 51.117188 L 89.132812 53.613281 C 89.644531 55.316406 90.117188 57.042969 90.363281 58.8125 C 90.488281 59.398438 90.542969 60.039062 90.582031 60.574219 C 90.730469 61.808594 90.835938 63.054688 90.753906 64.308594 C 90.773438 65.5625 90.578125 66.808594 90.398438 68.050781 C 90.359375 68.34375 90.316406 68.664062 90.285156 68.933594 C 89.964844 70.355469 89.738281 71.488281 89.292969 72.5625 " fill-opacity="1" fill-rule="nonzero"/></g><path fill="rgb(13.729858%, 12.159729%, 12.548828%)" d="M 27.234375 75.621094 C 27.011719 75.019531 26.753906 74.429688 26.550781 73.820312 C 26.378906 73.203125 26.210938 72.589844 26.042969 71.984375 C 25.636719 70.667969 25.507812 69.300781 25.25 67.960938 C 25.082031 66.609375 24.992188 65.242188 24.941406 63.878906 C 24.878906 60.300781 25.453125 56.796875 26.371094 53.425781 C 26.800781 52.1875 27.101562 50.957031 27.703125 49.902344 C 28.324219 48.671875 28.886719 47.359375 29.632812 46.125 C 29.859375 45.714844 30.082031 45.316406 30.308594 44.902344 C 30.613281 44.351562 31.035156 43.867188 31.058594 43.8125 C 31.589844 43.105469 31.78125 42.851562 31.964844 42.609375 C 32.136719 42.371094 32.339844 42.070312 32.433594 41.910156 C 33.113281 40.996094 32.527344 41.222656 31.582031 42.503906 C 31.023438 43.269531 30.382812 44 29.914062 44.863281 C 29.386719 45.851562 28.777344 46.800781 28.289062 47.816406 C 27.835938 48.851562 27.324219 49.871094 26.898438 50.9375 C 25.675781 54.132812 24.960938 57.511719 24.660156 60.917969 C 24.636719 62.046875 24.609375 63.253906 24.628906 64.269531 C 24.722656 65.269531 24.820312 66.285156 24.917969 67.316406 C 25.054688 68.335938 25.265625 69.363281 25.4375 70.410156 C 25.875 72.296875 26.386719 74.171875 27.136719 75.945312 C 27.316406 76.402344 27.460938 76.675781 27.519531 76.695312 C 27.585938 76.714844 27.425781 76.113281 27.234375 75.621094 " fill-opacity="1" fill-rule="nonzero"/><path fill="rgb(13.729858%, 12.159729%, 12.548828%)" d="M 35.695312 40.121094 C 36.542969 39.386719 37.273438 38.726562 37.921875 38.105469 C 38.617188 37.539062 39.242188 37.027344 39.800781 36.503906 C 40.246094 36.066406 40.648438 35.71875 41.0625 35.398438 C 41.773438 34.824219 41.566406 34.824219 40.421875 35.40625 C 39.800781 35.734375 39.183594 36.191406 38.378906 36.773438 C 38.128906 36.964844 37.847656 37.183594 37.640625 37.34375 C 37.109375 37.828125 36.609375 38.359375 36.066406 38.875 C 35.523438 39.386719 34.972656 39.921875 34.460938 40.546875 C 34.003906 41.066406 33.582031 41.667969 33.632812 41.703125 C 33.6875 41.738281 33.78125 41.738281 33.882812 41.726562 C 34.089844 41.707031 34.65625 41.179688 35.695312 40.121094 " fill-opacity="1" fill-rule="nonzero"/><g clip-path="url(#id2)"><path fill="rgb(13.729858%, 12.159729%, 12.548828%)" d="M 55.335938 28.035156 C 55.496094 28.023438 55.667969 28.011719 55.835938 27.996094 C 58 27.753906 60.179688 27.78125 62.355469 27.960938 C 63.496094 28.132812 64.6875 28.210938 65.832031 28.4375 C 66.28125 28.527344 66.714844 28.617188 67.324219 28.738281 C 66.863281 28.617188 66.601562 28.550781 66.324219 28.476562 C 60.308594 27.066406 53.832031 27.636719 47.941406 29.503906 C 47.007812 29.859375 46.066406 30.214844 45.125 30.570312 L 42.414062 31.914062 L 41.976562 32.136719 C 41.539062 32.410156 41.058594 32.78125 41.300781 32.652344 C 41.515625 32.542969 41.785156 32.40625 42.015625 32.265625 C 46.113281 29.992188 50.660156 28.503906 55.335938 28.035156 " fill-opacity="1" fill-rule="nonzero"/></g><path fill="rgb(13.729858%, 12.159729%, 12.548828%)" d="M 84.761719 82.121094 C 85.277344 81.421875 85.746094 80.878906 86.058594 80.214844 C 86.296875 79.765625 86.535156 79.226562 86.40625 79.371094 C 86.292969 79.496094 86.109375 79.714844 85.941406 79.992188 C 85.355469 81.035156 84.523438 81.917969 83.828125 82.898438 C 83.054688 83.8125 82.21875 84.683594 81.386719 85.550781 C 81.003906 85.890625 80.578125 86.320312 80.183594 86.707031 C 79.917969 86.964844 79.863281 87.113281 80.109375 86.917969 C 80.550781 86.5625 80.976562 86.21875 81.476562 85.816406 C 82.617188 84.683594 83.851562 83.46875 84.761719 82.121094 " fill-opacity="1" fill-rule="nonzero"/><g clip-path="url(#id3)"><path fill="rgb(13.729858%, 12.159729%, 12.548828%)" d="M 91.449219 59.332031 C 91.613281 60.257812 91.703125 60.695312 91.855469 60.722656 C 91.855469 60.722656 91.894531 60.285156 91.878906 59.75 C 91.8125 58.878906 91.632812 57.976562 91.46875 57.078125 C 91.316406 56.132812 91.015625 55.546875 90.90625 55.394531 C 90.757812 55.230469 90.699219 55.394531 90.910156 56.386719 C 91.035156 57.394531 91.234375 58.433594 91.449219 59.332031 " fill-opacity="1" fill-rule="nonzero"/></g><path fill="rgb(13.729858%, 12.159729%, 12.548828%)" d="M 46.800781 31.09375 C 46.75 31.097656 46.59375 31.140625 46.480469 31.183594 C 45.882812 31.398438 45.289062 31.625 44.726562 31.925781 L 44.726562 31.933594 L 43 32.785156 C 40.785156 34.03125 40.421875 34.414062 40.800781 34.40625 C 40.875 34.40625 40.953125 34.40625 41.125 34.34375 C 41.21875 34.3125 41.5 34.15625 41.722656 34.03125 C 41.796875 33.992188 42.015625 33.847656 42.054688 33.8125 C 42.429688 33.460938 42.988281 33.097656 43.683594 32.710938 C 44.378906 32.335938 45.15625 31.816406 46.09375 31.453125 C 46.355469 31.347656 46.574219 31.242188 46.765625 31.148438 C 46.84375 31.109375 46.847656 31.085938 46.800781 31.09375 " fill-opacity="1" fill-rule="nonzero"/><g clip-path="url(#id4)"><path fill="rgb(13.729858%, 12.159729%, 12.548828%)" d="M 91.296875 64.738281 C 91.269531 65.414062 91.214844 66.121094 91.085938 66.824219 C 91.0625 66.996094 91.0625 67.242188 91.050781 67.453125 C 91.082031 67.417969 91.109375 67.488281 91.144531 67.335938 C 91.375 66.324219 91.578125 65.800781 91.703125 65.785156 C 91.726562 65.785156 91.757812 65.589844 91.785156 65.484375 C 91.832031 65.308594 91.878906 64.363281 91.855469 63.929688 C 91.839844 63.613281 91.808594 63.21875 91.777344 63.234375 C 91.667969 63.292969 91.554688 63.5 91.445312 63.683594 C 91.386719 63.78125 91.332031 64.175781 91.296875 64.738281 " fill-opacity="1" fill-rule="nonzero"/></g><path fill="rgb(13.729858%, 12.159729%, 12.548828%)" d="M 35.777344 38.253906 C 36.644531 37.445312 37.316406 36.730469 37.390625 36.574219 C 37.25 36.660156 37.09375 36.699219 36.828125 36.910156 C 36.203125 37.417969 35.355469 38.21875 34.894531 38.730469 C 34.535156 39.121094 34.496094 39.261719 34.910156 38.972656 C 35.09375 38.84375 35.496094 38.515625 35.777344 38.253906 " fill-opacity="1" fill-rule="nonzero"/><path fill="rgb(13.729858%, 12.159729%, 12.548828%)" d="M 83.953125 85.476562 C 83.875 85.554688 83.652344 85.84375 83.496094 86.035156 C 83.515625 86.054688 83.476562 86.144531 83.5625 86.082031 C 83.957031 85.773438 84.722656 85.113281 85.554688 84.015625 C 85.699219 83.820312 85.898438 83.507812 85.929688 83.433594 C 85.960938 83.363281 85.839844 83.46875 85.714844 83.613281 C 85.210938 84.265625 84.582031 84.855469 83.953125 85.476562 " fill-opacity="1" fill-rule="nonzero"/><g clip-path="url(#id5)"><path fill="rgb(13.729858%, 12.159729%, 12.548828%)" d="M 83.050781 87.59375 C 82.597656 88.03125 82.207031 88.464844 82.257812 88.484375 C 82.308594 88.53125 82.664062 88.28125 83.042969 88.007812 C 83.113281 87.957031 83.269531 87.832031 83.324219 87.777344 C 83.507812 87.605469 83.75 87.347656 83.777344 87.273438 C 83.90625 87.035156 83.992188 86.839844 84.039062 86.6875 C 84.058594 86.5625 83.503906 87.203125 83.050781 87.59375 " fill-opacity="1" fill-rule="nonzero"/></g><path fill="rgb(13.729858%, 12.159729%, 12.548828%)" d="M 36.230469 41.40625 C 36.183594 41.488281 36.214844 41.503906 36.3125 41.425781 C 36.40625 41.339844 36.628906 41.097656 36.820312 40.953125 C 37.417969 40.398438 37.796875 39.996094 37.863281 39.835938 C 37.886719 39.785156 37.78125 39.835938 37.644531 39.941406 C 37.511719 40.046875 37.246094 40.277344 37.066406 40.449219 C 36.628906 40.851562 36.324219 41.195312 36.230469 41.40625 " fill-opacity="1" fill-rule="nonzero"/><path fill="rgb(13.729858%, 12.159729%, 12.548828%)" d="M 45.207031 32.703125 C 45.15625 32.726562 45 32.789062 44.894531 32.832031 C 44.761719 32.898438 44.613281 32.96875 44.5 33.023438 C 43.359375 33.632812 43.054688 33.925781 43.910156 33.597656 C 44.054688 33.542969 44.488281 33.339844 44.652344 33.246094 C 45.445312 32.800781 45.671875 32.570312 45.207031 32.703125 " fill-opacity="1" fill-rule="nonzero"/><path fill="rgb(13.729858%, 12.159729%, 12.548828%)" d="M 25.460938 52.546875 C 25.492188 52.433594 25.507812 52.335938 25.496094 52.335938 C 25.484375 52.339844 25.421875 52.484375 25.378906 52.574219 C 24.898438 53.777344 24.652344 55.066406 24.414062 56.292969 C 24.394531 56.402344 24.394531 56.492188 24.40625 56.484375 C 24.417969 56.476562 24.464844 56.359375 24.492188 56.242188 C 24.824219 54.988281 25.070312 53.722656 25.460938 52.546875 " fill-opacity="1" fill-rule="nonzero"/><path fill="rgb(13.729858%, 12.159729%, 12.548828%)" d="M 30.761719 42.148438 C 31.015625 41.789062 31.097656 41.640625 30.972656 41.773438 C 30.921875 41.828125 30.785156 42.007812 30.699219 42.128906 C 30.226562 42.8125 29.707031 43.464844 29.277344 44.175781 L 28.039062 46.339844 C 27.988281 46.429688 27.964844 46.503906 27.933594 46.585938 C 27.988281 46.507812 28.058594 46.429688 28.097656 46.355469 L 29.339844 44.195312 C 29.773438 43.484375 30.289062 42.828125 30.761719 42.148438 " fill-opacity="1" fill-rule="nonzero"/><g clip-path="url(#id6)"><path fill="rgb(13.729858%, 12.159729%, 12.548828%)" d="M 91.246094 54.882812 C 91.339844 55.035156 91.296875 54.675781 91.148438 54.042969 C 91.023438 53.433594 90.777344 52.792969 90.664062 52.6875 C 90.554688 52.582031 90.664062 52.921875 90.808594 53.5 C 90.945312 54.074219 91.152344 54.722656 91.246094 54.882812 " fill-opacity="1" fill-rule="nonzero"/></g><path fill="rgb(13.729858%, 12.159729%, 12.548828%)" d="M 87.929688 77.714844 C 87.90625 77.679688 87.835938 77.734375 87.738281 77.867188 C 87.691406 77.9375 87.535156 78.277344 87.390625 78.476562 C 87.148438 78.914062 87.015625 79.230469 87.03125 79.328125 C 87.042969 79.394531 87.167969 79.25 87.410156 78.867188 C 87.738281 78.394531 87.96875 77.769531 87.929688 77.714844 " fill-opacity="1" fill-rule="nonzero"/><path fill="rgb(13.729858%, 12.159729%, 12.548828%)" d="M 55.992188 30.640625 C 55.9375 30.636719 55.683594 30.648438 55.574219 30.660156 C 54.730469 30.78125 54.324219 30.992188 54.75 30.976562 C 54.835938 30.984375 55.304688 30.886719 55.507812 30.882812 C 56.117188 30.816406 56.28125 30.75 56.324219 30.691406 C 56.21875 30.671875 56.140625 30.652344 55.992188 30.640625 " fill-opacity="1" fill-rule="nonzero"/><path fill="rgb(13.729858%, 12.159729%, 12.548828%)" d="M 44.984375 34.019531 C 45.273438 33.824219 45.304688 33.757812 45.023438 33.839844 C 44.960938 33.855469 44.824219 33.90625 44.746094 33.945312 C 44.519531 34.0625 44.210938 34.214844 44.105469 34.285156 C 43.898438 34.421875 43.800781 34.511719 43.675781 34.605469 C 43.789062 34.582031 43.839844 34.585938 43.988281 34.535156 C 44.183594 34.46875 44.777344 34.160156 44.984375 34.019531 " fill-opacity="1" fill-rule="nonzero"/><path fill="rgb(13.729858%, 12.159729%, 12.548828%)" d="M 83.804688 83.941406 C 83.855469 83.847656 83.835938 83.824219 83.757812 83.875 C 83.6875 83.921875 83.480469 84.109375 83.359375 84.246094 C 83.222656 84.398438 83.113281 84.566406 82.992188 84.726562 C 83.007812 84.75 82.976562 84.832031 83.054688 84.777344 C 83.125 84.734375 83.328125 84.546875 83.460938 84.398438 C 83.589844 84.253906 83.757812 84.023438 83.804688 83.941406 " fill-opacity="1" fill-rule="nonzero"/><path fill="rgb(13.729858%, 12.159729%, 12.548828%)" d="M 37.960938 34.855469 C 38.15625 34.695312 38.140625 34.691406 37.84375 34.910156 C 36.957031 35.554688 36.113281 36.199219 35.441406 36.933594 C 35.203125 37.175781 35.214844 37.171875 35.507812 36.917969 C 36.332031 36.144531 37.15625 35.542969 37.960938 34.855469 " fill-opacity="1" fill-rule="nonzero"/><path fill="rgb(13.729858%, 12.159729%, 12.548828%)" d="M 76.09375 32.191406 C 76.515625 32.441406 76.972656 32.65625 76.832031 32.535156 C 76.742188 32.460938 76.4375 32.257812 76.257812 32.15625 C 75.894531 31.945312 75.550781 31.769531 75.175781 31.628906 C 75.265625 31.695312 75.277344 31.71875 75.371094 31.765625 C 75.605469 31.875 75.84375 32.046875 76.09375 32.191406 " fill-opacity="1" fill-rule="nonzero"/><g clip-path="url(#id7)"><path fill="rgb(13.729858%, 12.159729%, 12.548828%)" d="M 23.742188 63.8125 C 23.738281 63.515625 23.734375 63.210938 23.730469 62.96875 C 23.714844 62.574219 23.683594 63.011719 23.660156 63.976562 C 23.640625 64.300781 23.6875 64.628906 23.707031 64.949219 C 23.722656 65.089844 23.738281 65.21875 23.753906 65.351562 C 23.757812 65.160156 23.769531 65.003906 23.761719 64.769531 C 23.746094 64.484375 23.726562 64.121094 23.742188 63.8125 " fill-opacity="1" fill-rule="nonzero"/></g><path fill="rgb(13.729858%, 12.159729%, 12.548828%)" d="M 51.898438 30.53125 C 51.695312 30.59375 51.488281 30.675781 51.464844 30.703125 C 51.421875 30.769531 51.882812 30.636719 52.300781 30.5625 C 52.507812 30.519531 52.617188 30.472656 52.769531 30.429688 C 52.746094 30.394531 52.304688 30.425781 51.898438 30.53125 " fill-opacity="1" fill-rule="nonzero"/><path fill="rgb(13.729858%, 12.159729%, 12.548828%)" d="M 89.351562 75.527344 C 89.429688 75.289062 89.355469 75.386719 89.199219 75.703125 C 89.144531 75.816406 89.046875 76.03125 89.027344 76.089844 C 88.972656 76.257812 88.941406 76.386719 88.921875 76.484375 C 88.917969 76.503906 89.019531 76.3125 89.074219 76.214844 C 89.167969 75.980469 89.289062 75.679688 89.351562 75.527344 " fill-opacity="1" fill-rule="nonzero"/><path fill="rgb(13.729858%, 12.159729%, 12.548828%)" d="M 88.628906 74.886719 C 88.636719 74.863281 88.714844 74.628906 88.753906 74.515625 C 88.941406 73.894531 88.945312 73.707031 88.96875 73.476562 C 88.78125 74.050781 88.578125 74.660156 88.515625 75.023438 C 88.5 75.113281 88.578125 74.976562 88.628906 74.886719 " fill-opacity="1" fill-rule="nonzero"/><path fill="rgb(13.729858%, 12.159729%, 12.548828%)" d="M 88.96875 73.476562 C 88.992188 73.390625 89.011719 73.332031 89.035156 73.25 C 89.039062 73.230469 89.050781 73.199219 89.054688 73.179688 L 89 73.324219 C 88.992188 73.359375 88.976562 73.441406 88.96875 73.476562 " fill-opacity="1" fill-rule="nonzero"/><path fill="rgb(13.729858%, 12.159729%, 12.548828%)" d="M 51.683594 31.808594 C 51.617188 31.820312 51.421875 31.871094 51.335938 31.898438 C 51.046875 31.992188 51.007812 32.027344 51.234375 31.988281 C 51.296875 31.972656 51.464844 31.929688 51.574219 31.902344 C 51.863281 31.804688 51.910156 31.769531 51.683594 31.808594 " fill-opacity="1" fill-rule="nonzero"/><path fill="rgb(13.729858%, 12.159729%, 12.548828%)" d="M 46.902344 33.84375 C 47.039062 33.769531 47.148438 33.710938 47.269531 33.648438 L 46.953125 33.746094 L 46.601562 33.9375 C 46.707031 33.902344 46.894531 33.84375 46.902344 33.84375 " fill-opacity="1" fill-rule="nonzero"/><path fill="rgb(13.729858%, 12.159729%, 12.548828%)" d="M 89.734375 52.480469 C 89.597656 52.175781 89.589844 52.226562 89.71875 52.597656 C 89.757812 52.691406 89.816406 52.835938 89.867188 52.957031 C 89.871094 52.929688 89.894531 52.941406 89.871094 52.863281 C 89.847656 52.777344 89.769531 52.554688 89.734375 52.480469 " fill-opacity="1" fill-rule="nonzero"/><path fill="rgb(13.729858%, 12.159729%, 12.548828%)" d="M 54.925781 31.6875 L 54.953125 31.65625 L 54.703125 31.710938 Z M 54.925781 31.6875 " fill-opacity="1" fill-rule="nonzero"/><path fill="rgb(13.729858%, 12.159729%, 12.548828%)" d="M 35.125 41.578125 L 34.984375 41.710938 L 34.949219 41.789062 Z M 35.125 41.578125 " fill-opacity="1" fill-rule="nonzero"/><path fill="rgb(13.729858%, 12.159729%, 12.548828%)" d="M 71.269531 33.242188 L 71.234375 33.195312 C 71.167969 33.167969 71.09375 33.15625 71.023438 33.136719 C 71.105469 33.167969 71.191406 33.199219 71.269531 33.242188 " fill-opacity="1" fill-rule="nonzero"/><path fill="rgb(13.729858%, 12.159729%, 12.548828%)" d="M 81.304688 37.386719 L 81.070312 37.183594 L 81.238281 37.355469 Z M 81.304688 37.386719 " fill-opacity="1" fill-rule="nonzero"/><g clip-path="url(#id8)"><path fill="rgb(14.509583%, 13.729858%, 12.939453%)" d="M 72.625 70.761719 C 72.671875 71.003906 72.695312 71.257812 72.695312 71.515625 C 72.695312 71.691406 72.683594 71.867188 72.660156 72.039062 C 72.550781 72.886719 72.164062 73.648438 71.597656 74.238281 C 71.59375 74.242188 71.589844 74.246094 71.582031 74.25 L 70.597656 74.808594 L 70.136719 75.066406 L 69.640625 75.347656 L 68.03125 76.257812 L 64.726562 78.125 L 63.25 78.957031 L 54.394531 83.960938 L 52.976562 84.761719 C 52.929688 84.789062 52.867188 84.753906 52.867188 84.695312 L 52.867188 81.964844 C 52.867188 81.9375 52.882812 81.914062 52.90625 81.902344 L 54.394531 81.0625 L 63.25 76.058594 L 64.726562 75.226562 L 65.460938 74.808594 L 66.125 74.433594 L 68.03125 73.359375 L 70.101562 72.1875 C 70.628906 71.761719 70.628906 71.023438 70.101562 70.589844 L 68.15625 69.492188 C 68.132812 69.480469 68.105469 69.480469 68.082031 69.492188 L 64.828125 71.332031 L 64.726562 71.390625 L 64.632812 71.441406 L 63.25 72.222656 L 62.066406 72.890625 L 54.503906 77.164062 C 54.453125 77.191406 54.390625 77.15625 54.390625 77.101562 L 54.390625 74.371094 C 54.390625 74.34375 54.40625 74.320312 54.429688 74.304688 L 59.5 71.441406 L 62.066406 69.992188 L 63.25 69.324219 L 64.726562 68.488281 L 65.4375 68.085938 C 65.488281 68.058594 65.488281 67.988281 65.4375 67.957031 L 64.726562 67.554688 L 63.25 66.71875 L 62.855469 66.496094 L 54.390625 61.714844 L 52.867188 60.855469 L 52.847656 60.84375 L 52.714844 60.769531 L 49.96875 59.21875 C 49.945312 59.203125 49.917969 59.203125 49.894531 59.21875 L 47.589844 60.519531 C 46.863281 60.945312 47.257812 61.730469 47.589844 61.8125 L 49.230469 62.738281 L 51.636719 64.097656 L 52.867188 64.792969 L 54.390625 65.652344 L 59.253906 68.402344 C 59.304688 68.429688 59.304688 68.5 59.253906 68.53125 L 56.839844 69.894531 C 56.816406 69.90625 56.789062 69.90625 56.765625 69.894531 L 54.390625 68.554688 L 52.867188 67.691406 L 48.324219 65.125 L 47.554688 64.691406 L 46.664062 64.1875 L 45.914062 63.765625 L 45.914062 63.761719 C 45.484375 63.253906 45.183594 62.632812 45.058594 61.949219 C 45.019531 61.71875 44.996094 61.480469 44.996094 61.238281 C 44.996094 60.949219 45.027344 60.667969 45.089844 60.398438 C 45.257812 59.621094 45.65625 58.933594 46.207031 58.402344 L 47.066406 57.917969 L 47.253906 57.8125 C 47.300781 57.785156 47.300781 57.710938 47.253906 57.683594 L 45.835938 56.882812 C 45.46875 56.414062 45.203125 55.859375 45.078125 55.253906 C 45.027344 54.996094 44.996094 54.730469 44.996094 54.453125 C 44.996094 54.148438 45.03125 53.851562 45.097656 53.566406 C 45.25 52.910156 45.566406 52.320312 46 51.835938 C 46 51.835938 46 51.832031 46 51.832031 L 47.0625 51.234375 L 47.554688 50.953125 L 48.199219 50.589844 L 49.628906 49.78125 L 52.867188 47.953125 L 54.394531 47.089844 L 63.25 42.085938 L 64.617188 41.316406 C 64.664062 41.289062 64.726562 41.324219 64.726562 41.378906 L 64.726562 44.109375 C 64.726562 44.136719 64.710938 44.164062 64.6875 44.175781 L 63.25 44.988281 L 54.394531 49.992188 L 52.867188 50.851562 L 52.195312 51.230469 L 51.605469 51.566406 L 49.628906 52.683594 L 47.59375 53.832031 C 47.015625 54.308594 47.457031 54.898438 47.59375 54.972656 L 49.894531 56.277344 C 49.917969 56.289062 49.945312 56.289062 49.96875 56.277344 L 52.863281 54.640625 L 52.867188 54.640625 L 52.976562 54.578125 L 54.394531 53.777344 L 55.546875 53.125 L 63.140625 48.835938 C 63.1875 48.808594 63.25 48.84375 63.25 48.902344 L 63.25 51.632812 C 63.25 51.660156 63.234375 51.683594 63.210938 51.695312 L 58.113281 54.578125 L 55.542969 56.027344 L 54.390625 56.679688 L 52.867188 57.539062 L 52.613281 57.683594 C 52.5625 57.710938 52.5625 57.785156 52.613281 57.8125 L 52.867188 57.957031 L 54.390625 58.816406 L 55.28125 59.320312 L 63.25 63.820312 L 64.726562 64.65625 L 64.824219 64.710938 L 65.421875 65.046875 L 68.082031 66.550781 C 68.105469 66.566406 68.132812 66.566406 68.15625 66.550781 L 70.101562 65.453125 C 70.433594 65.222656 70.578125 64.632812 70.101562 64.25 L 68.46875 63.328125 L 65.996094 61.929688 L 64.726562 61.214844 L 63.25 60.378906 L 58.445312 57.664062 C 58.394531 57.636719 58.394531 57.566406 58.445312 57.535156 L 60.859375 56.171875 C 60.882812 56.160156 60.910156 56.160156 60.933594 56.171875 L 63.25 57.480469 L 64.726562 58.3125 L 69.160156 60.820312 L 70.136719 61.371094 L 71.035156 61.878906 L 71.894531 62.363281 C 71.90625 62.371094 71.914062 62.378906 71.917969 62.386719 C 72.273438 62.859375 72.523438 63.417969 72.632812 64.023438 C 72.675781 64.253906 72.695312 64.492188 72.695312 64.734375 C 72.695312 65.050781 72.65625 65.359375 72.585938 65.65625 C 72.40625 66.402344 72.015625 67.066406 71.476562 67.578125 C 71.273438 67.773438 71.050781 67.945312 70.808594 68.09375 C 70.789062 68.105469 70.769531 68.113281 70.753906 68.125 C 71.707031 68.683594 72.40625 69.636719 72.625 70.761719 Z M 72.625 70.761719 " fill-opacity="1" fill-rule="nonzero"/></g><g clip-path="url(#id9)"><path fill="rgb(13.729858%, 12.159729%, 12.548828%)" d="M 29.226562 55.289062 C 29.210938 55.21875 29.023438 55.605469 28.902344 56.046875 C 28.804688 56.5 28.765625 56.859375 28.832031 56.738281 C 28.871094 56.675781 28.945312 56.398438 29.007812 56.21875 C 29.109375 55.777344 29.257812 55.367188 29.226562 55.289062 Z M 28.363281 58.773438 C 28.355469 58.789062 28.3125 58.941406 28.285156 59.035156 C 28.289062 59.09375 28.28125 59.214844 28.292969 59.199219 C 28.300781 59.183594 28.320312 59.027344 28.355469 58.9375 C 28.359375 58.875 28.375 58.757812 28.363281 58.773438 Z M 89.292969 73.613281 C 89.21875 73.800781 89.136719 74.019531 89.054688 74.230469 C 89.234375 73.53125 89.433594 72.753906 89.644531 71.679688 C 89.882812 70.667969 90.109375 69.675781 90.152344 68.6875 C 90.503906 65.648438 90.398438 62.390625 89.828125 59.207031 C 89.449219 56.6875 88.597656 54.378906 87.671875 52.296875 C 87.234375 51.457031 86.765625 50.582031 86.328125 49.636719 C 85.636719 48.511719 85.039062 47.375 84.207031 46.363281 C 83.714844 45.75 83.25 45.101562 82.734375 44.496094 L 81.101562 42.742188 C 78.335938 39.945312 75.035156 37.695312 71.417969 36.140625 C 70.800781 35.824219 70.148438 35.59375 69.488281 35.382812 L 67.519531 34.714844 C 66.164062 34.449219 64.839844 33.992188 63.453125 33.890625 C 58.835938 33.25 54.085938 33.628906 49.628906 35.042969 C 46.019531 36.191406 42.632812 38.070312 39.691406 40.46875 C 39.328125 40.714844 39.023438 41.046875 38.699219 41.328125 C 36.421875 43.179688 34.644531 45.554688 33.070312 47.972656 C 30.863281 51.574219 29.367188 55.601562 28.699219 59.78125 C 28.601562 60.71875 28.417969 61.65625 28.390625 62.601562 C 28.386719 63.550781 28.328125 64.5 28.359375 65.445312 C 28.476562 68.433594 29.0625 71.382812 29.96875 74.222656 C 30.925781 77.050781 32.332031 79.707031 34.003906 82.167969 C 34.183594 82.398438 34.359375 82.628906 34.535156 82.855469 L 35.644531 84.335938 L 36.898438 85.695312 C 37.691406 86.644531 38.691406 87.378906 39.59375 88.214844 C 39.859375 88.476562 40.1875 88.722656 40.464844 88.953125 C 40.703125 89.144531 40.652344 89.132812 40.378906 88.9375 C 39.644531 88.476562 39.054688 87.832031 38.382812 87.289062 C 37.707031 86.746094 37.113281 86.117188 36.53125 85.476562 C 36.042969 84.941406 35.496094 84.414062 35.089844 83.84375 C 33.703125 82.214844 32.582031 80.421875 31.757812 79.375 C 31.53125 79.046875 31.167969 78.355469 30.832031 77.644531 C 30.730469 77.425781 30.652344 77.21875 30.589844 77.050781 C 30.570312 76.992188 30.605469 77.015625 30.648438 77.082031 C 30.742188 77.238281 30.863281 77.4375 30.972656 77.613281 C 31.082031 77.792969 31.203125 77.984375 31.292969 78.128906 C 31.332031 78.1875 31.34375 78.175781 31.332031 78.125 C 31.320312 78.074219 31.265625 77.925781 31.222656 77.839844 C 30.804688 77.074219 30.488281 76.261719 30.183594 75.457031 C 29.902344 74.734375 29.65625 74.246094 29.503906 73.992188 C 29.425781 73.855469 29.355469 73.746094 29.261719 73.535156 C 29.128906 73.230469 28.964844 72.714844 28.800781 72.109375 C 28.730469 71.824219 28.652344 71.53125 28.585938 71.265625 C 28.460938 70.386719 28.335938 69.523438 28.183594 68.683594 C 28.027344 67.839844 28.011719 67 27.882812 66.179688 C 27.769531 65.515625 27.765625 64.785156 27.816406 64.027344 C 27.84375 63.359375 27.820312 62.90625 27.777344 62.582031 C 27.753906 62.351562 27.695312 62.160156 27.707031 61.902344 C 27.707031 61.644531 27.691406 61.371094 27.730469 61.011719 C 27.796875 60.179688 27.859375 59.480469 27.910156 58.832031 C 28.007812 58.191406 28.09375 57.605469 28.183594 57 C 28.226562 56.699219 28.320312 56.214844 28.445312 55.75 C 28.605469 55.292969 28.773438 54.851562 28.886719 54.605469 C 29.058594 54.261719 29.179688 54.019531 29.339844 53.695312 C 29.59375 53.09375 29.917969 52.316406 30.132812 51.675781 C 30.210938 51.425781 30.230469 51.28125 30.324219 50.996094 C 30.417969 50.722656 30.554688 50.328125 30.703125 50.003906 C 31.367188 48.761719 31.917969 47.691406 32.585938 46.585938 C 32.652344 46.488281 32.796875 46.304688 32.839844 46.261719 C 32.941406 46.15625 33.082031 46.015625 33.074219 46.0625 C 33.0625 46.148438 32.941406 46.378906 32.886719 46.519531 C 32.617188 47.09375 32.328125 47.988281 31.230469 49.855469 C 30.878906 50.617188 30.601562 51.375 30.296875 52.125 C 30.144531 52.496094 30.082031 52.800781 30.195312 52.589844 C 30.304688 52.394531 30.441406 52.144531 30.539062 51.921875 L 31.308594 50.199219 C 31.578125 49.636719 31.921875 49.109375 32.222656 48.558594 C 32.800781 47.441406 33.550781 46.433594 34.289062 45.414062 C 34.730469 44.730469 35.304688 44.148438 35.835938 43.53125 C 36.371094 42.917969 36.902344 42.300781 37.523438 41.769531 C 37.953125 41.367188 38.425781 40.925781 38.8125 40.5625 C 40.242188 39.300781 41.773438 38.207031 43.453125 37.289062 C 44.300781 36.746094 45.304688 36.382812 46.210938 35.898438 C 49.445312 34.425781 52.925781 33.539062 56.460938 33.1875 C 57.5625 33.097656 58.667969 32.980469 59.78125 33.054688 L 61.449219 33.089844 C 62 33.136719 62.550781 33.222656 63.101562 33.285156 C 64.660156 33.40625 66.160156 33.84375 67.683594 34.167969 C 69.148438 34.691406 70.671875 35.078125 72.0625 35.792969 C 72.863281 36.171875 73.726562 36.5 74.445312 36.945312 C 76.277344 37.894531 78 39.085938 79.558594 40.4375 C 82.574219 43.054688 85.15625 46.21875 87.007812 49.773438 C 87.382812 50.574219 87.808594 51.355469 88.171875 52.167969 L 89.132812 54.664062 C 89.644531 56.367188 90.117188 58.09375 90.363281 59.863281 C 90.488281 60.449219 90.542969 61.089844 90.582031 61.621094 C 90.730469 62.859375 90.835938 64.105469 90.753906 65.359375 C 90.773438 66.613281 90.578125 67.855469 90.398438 69.101562 C 90.359375 69.390625 90.316406 69.710938 90.285156 69.984375 C 89.964844 71.402344 89.738281 72.535156 89.292969 73.613281 " fill-opacity="1" fill-rule="nonzero"/></g><path fill="rgb(13.729858%, 12.159729%, 12.548828%)" d="M 27.234375 76.667969 C 27.011719 76.070312 26.753906 75.480469 26.550781 74.871094 C 26.378906 74.253906 26.210938 73.640625 26.042969 73.035156 C 25.636719 71.71875 25.507812 70.351562 25.25 69.011719 C 25.082031 67.660156 24.992188 66.292969 24.941406 64.929688 C 24.878906 61.351562 25.453125 57.847656 26.371094 54.476562 C 26.800781 53.238281 27.101562 52.007812 27.703125 50.953125 C 28.324219 49.71875 28.886719 48.410156 29.632812 47.175781 C 29.859375 46.765625 30.082031 46.367188 30.308594 45.949219 C 30.613281 45.402344 31.035156 44.917969 31.058594 44.859375 C 31.589844 44.15625 31.78125 43.902344 31.964844 43.660156 C 32.136719 43.421875 32.339844 43.121094 32.433594 42.960938 C 33.113281 42.046875 32.527344 42.273438 31.582031 43.550781 C 31.023438 44.320312 30.382812 45.050781 29.914062 45.910156 C 29.386719 46.902344 28.777344 47.851562 28.289062 48.867188 C 27.835938 49.902344 27.324219 50.921875 26.898438 51.988281 C 25.675781 55.183594 24.960938 58.5625 24.660156 61.96875 C 24.636719 63.097656 24.609375 64.304688 24.628906 65.316406 C 24.722656 66.320312 24.820312 67.335938 24.917969 68.363281 C 25.054688 69.386719 25.265625 70.414062 25.4375 71.460938 C 25.875 73.347656 26.386719 75.21875 27.136719 76.996094 C 27.316406 77.453125 27.460938 77.722656 27.519531 77.742188 C 27.585938 77.765625 27.425781 77.164062 27.234375 76.667969 " fill-opacity="1" fill-rule="nonzero"/><path fill="rgb(13.729858%, 12.159729%, 12.548828%)" d="M 35.695312 41.167969 C 36.542969 40.4375 37.273438 39.777344 37.921875 39.15625 C 38.617188 38.589844 39.242188 38.078125 39.800781 37.554688 C 40.246094 37.117188 40.648438 36.769531 41.0625 36.449219 C 41.773438 35.871094 41.566406 35.875 40.421875 36.457031 C 39.800781 36.785156 39.183594 37.242188 38.378906 37.824219 C 38.128906 38.015625 37.847656 38.234375 37.640625 38.394531 C 37.109375 38.878906 36.609375 39.410156 36.066406 39.925781 C 35.523438 40.433594 34.972656 40.972656 34.460938 41.597656 C 34.003906 42.117188 33.582031 42.71875 33.632812 42.75 C 33.6875 42.789062 33.78125 42.789062 33.882812 42.777344 C 34.089844 42.757812 34.65625 42.230469 35.695312 41.167969 " fill-opacity="1" fill-rule="nonzero"/><g clip-path="url(#id10)"><path fill="rgb(13.729858%, 12.159729%, 12.548828%)" d="M 55.335938 29.085938 C 55.496094 29.074219 55.667969 29.058594 55.835938 29.046875 C 58 28.804688 60.179688 28.828125 62.355469 29.011719 C 63.496094 29.183594 64.6875 29.261719 65.832031 29.488281 C 66.28125 29.578125 66.714844 29.667969 67.324219 29.789062 C 66.863281 29.667969 66.601562 29.601562 66.324219 29.527344 C 60.308594 28.117188 53.832031 28.6875 47.941406 30.554688 C 47.007812 30.90625 46.066406 31.265625 45.125 31.621094 L 42.414062 32.964844 L 41.976562 33.1875 C 41.539062 33.460938 41.058594 33.828125 41.300781 33.703125 C 41.515625 33.59375 41.785156 33.457031 42.015625 33.316406 C 46.113281 31.042969 50.660156 29.550781 55.335938 29.085938 " fill-opacity="1" fill-rule="nonzero"/></g><path fill="rgb(13.729858%, 12.159729%, 12.548828%)" d="M 84.761719 83.171875 C 85.277344 82.472656 85.746094 81.929688 86.058594 81.265625 C 86.296875 80.816406 86.535156 80.277344 86.40625 80.421875 C 86.292969 80.546875 86.109375 80.765625 85.941406 81.042969 C 85.355469 82.085938 84.523438 82.96875 83.828125 83.949219 C 83.054688 84.863281 82.21875 85.734375 81.386719 86.601562 C 81.003906 86.941406 80.578125 87.371094 80.183594 87.757812 C 79.917969 88.015625 79.863281 88.164062 80.109375 87.96875 C 80.550781 87.613281 80.976562 87.269531 81.476562 86.867188 C 82.617188 85.734375 83.851562 84.519531 84.761719 83.171875 " fill-opacity="1" fill-rule="nonzero"/><g clip-path="url(#id11)"><path fill="rgb(13.729858%, 12.159729%, 12.548828%)" d="M 91.449219 60.382812 C 91.613281 61.308594 91.703125 61.746094 91.855469 61.773438 C 91.855469 61.773438 91.894531 61.332031 91.878906 60.800781 C 91.8125 59.925781 91.632812 59.027344 91.46875 58.128906 C 91.316406 57.183594 91.015625 56.597656 90.90625 56.445312 C 90.757812 56.28125 90.699219 56.445312 90.910156 57.433594 C 91.035156 58.445312 91.234375 59.484375 91.449219 60.382812 " fill-opacity="1" fill-rule="nonzero"/></g><path fill="rgb(13.729858%, 12.159729%, 12.548828%)" d="M 46.800781 32.144531 C 46.75 32.148438 46.59375 32.191406 46.480469 32.234375 C 45.882812 32.449219 45.289062 32.675781 44.726562 32.976562 L 44.726562 32.980469 L 43 33.835938 C 40.785156 35.082031 40.421875 35.464844 40.800781 35.453125 C 40.875 35.457031 40.953125 35.457031 41.125 35.394531 C 41.21875 35.359375 41.5 35.207031 41.722656 35.082031 C 41.796875 35.042969 42.015625 34.894531 42.054688 34.863281 C 42.429688 34.507812 42.988281 34.148438 43.683594 33.761719 C 44.378906 33.386719 45.15625 32.867188 46.09375 32.503906 C 46.355469 32.394531 46.574219 32.289062 46.765625 32.199219 C 46.84375 32.160156 46.847656 32.136719 46.800781 32.144531 " fill-opacity="1" fill-rule="nonzero"/><g clip-path="url(#id12)"><path fill="rgb(13.729858%, 12.159729%, 12.548828%)" d="M 91.296875 65.789062 C 91.269531 66.464844 91.214844 67.171875 91.085938 67.875 C 91.0625 68.042969 91.0625 68.292969 91.050781 68.503906 C 91.082031 68.46875 91.109375 68.539062 91.144531 68.386719 C 91.375 67.375 91.578125 66.851562 91.703125 66.835938 C 91.726562 66.835938 91.757812 66.640625 91.785156 66.535156 C 91.832031 66.359375 91.878906 65.410156 91.855469 64.976562 C 91.839844 64.660156 91.808594 64.269531 91.777344 64.285156 C 91.667969 64.34375 91.554688 64.550781 91.445312 64.734375 C 91.386719 64.832031 91.332031 65.226562 91.296875 65.789062 " fill-opacity="1" fill-rule="nonzero"/></g><path fill="rgb(13.729858%, 12.159729%, 12.548828%)" d="M 35.777344 39.300781 C 36.644531 38.492188 37.316406 37.777344 37.390625 37.621094 C 37.25 37.707031 37.09375 37.746094 36.828125 37.960938 C 36.203125 38.46875 35.355469 39.269531 34.894531 39.777344 C 34.535156 40.167969 34.496094 40.3125 34.910156 40.019531 C 35.09375 39.890625 35.496094 39.566406 35.777344 39.300781 " fill-opacity="1" fill-rule="nonzero"/><path fill="rgb(13.729858%, 12.159729%, 12.548828%)" d="M 83.953125 86.527344 C 83.875 86.605469 83.652344 86.894531 83.496094 87.085938 C 83.515625 87.105469 83.476562 87.195312 83.5625 87.132812 C 83.957031 86.824219 84.722656 86.164062 85.554688 85.066406 C 85.699219 84.871094 85.898438 84.558594 85.929688 84.484375 C 85.960938 84.414062 85.839844 84.519531 85.714844 84.664062 C 85.210938 85.316406 84.582031 85.90625 83.953125 86.527344 " fill-opacity="1" fill-rule="nonzero"/><g clip-path="url(#id13)"><path fill="rgb(13.729858%, 12.159729%, 12.548828%)" d="M 83.050781 88.644531 C 82.597656 89.082031 82.207031 89.515625 82.257812 89.53125 C 82.308594 89.582031 82.664062 89.332031 83.042969 89.058594 C 83.113281 89.007812 83.269531 88.882812 83.324219 88.828125 C 83.507812 88.65625 83.75 88.398438 83.777344 88.324219 C 83.90625 88.085938 83.992188 87.890625 84.039062 87.738281 C 84.058594 87.613281 83.503906 88.25 83.050781 88.644531 " fill-opacity="1" fill-rule="nonzero"/></g><path fill="rgb(13.729858%, 12.159729%, 12.548828%)" d="M 36.230469 42.457031 C 36.183594 42.539062 36.214844 42.554688 36.3125 42.472656 C 36.40625 42.390625 36.628906 42.148438 36.820312 42.003906 C 37.417969 41.449219 37.796875 41.046875 37.863281 40.882812 C 37.886719 40.835938 37.78125 40.886719 37.644531 40.992188 C 37.511719 41.09375 37.246094 41.328125 37.066406 41.5 C 36.628906 41.902344 36.324219 42.246094 36.230469 42.457031 " fill-opacity="1" fill-rule="nonzero"/><path fill="rgb(13.729858%, 12.159729%, 12.548828%)" d="M 45.207031 33.753906 C 45.15625 33.777344 45 33.839844 44.894531 33.882812 C 44.761719 33.949219 44.613281 34.019531 44.5 34.074219 C 43.359375 34.683594 43.054688 34.972656 43.910156 34.648438 C 44.054688 34.59375 44.488281 34.386719 44.652344 34.296875 C 45.445312 33.851562 45.671875 33.621094 45.207031 33.753906 " fill-opacity="1" fill-rule="nonzero"/><path fill="rgb(13.729858%, 12.159729%, 12.548828%)" d="M 25.460938 53.597656 C 25.492188 53.484375 25.507812 53.382812 25.496094 53.386719 C 25.484375 53.390625 25.421875 53.535156 25.378906 53.625 C 24.898438 54.824219 24.652344 56.117188 24.414062 57.34375 C 24.394531 57.453125 24.394531 57.542969 24.40625 57.535156 C 24.417969 57.527344 24.464844 57.40625 24.492188 57.292969 C 24.824219 56.039062 25.070312 54.773438 25.460938 53.597656 " fill-opacity="1" fill-rule="nonzero"/><path fill="rgb(13.729858%, 12.159729%, 12.548828%)" d="M 30.761719 43.195312 C 31.015625 42.835938 31.097656 42.6875 30.972656 42.824219 C 30.921875 42.878906 30.785156 43.058594 30.699219 43.179688 C 30.226562 43.863281 29.707031 44.515625 29.277344 45.226562 L 28.039062 47.390625 C 27.988281 47.480469 27.964844 47.554688 27.933594 47.636719 C 27.988281 47.558594 28.058594 47.480469 28.097656 47.40625 L 29.339844 45.242188 C 29.773438 44.535156 30.289062 43.878906 30.761719 43.195312 " fill-opacity="1" fill-rule="nonzero"/><g clip-path="url(#id14)"><path fill="rgb(13.729858%, 12.159729%, 12.548828%)" d="M 91.246094 55.933594 C 91.339844 56.085938 91.296875 55.726562 91.148438 55.09375 C 91.023438 54.480469 90.777344 53.839844 90.664062 53.738281 C 90.554688 53.632812 90.664062 53.972656 90.808594 54.550781 C 90.945312 55.125 91.152344 55.773438 91.246094 55.933594 " fill-opacity="1" fill-rule="nonzero"/></g><path fill="rgb(13.729858%, 12.159729%, 12.548828%)" d="M 87.929688 78.765625 C 87.90625 78.730469 87.835938 78.78125 87.738281 78.917969 C 87.691406 78.988281 87.535156 79.328125 87.390625 79.523438 C 87.148438 79.964844 87.015625 80.28125 87.03125 80.378906 C 87.042969 80.445312 87.167969 80.300781 87.410156 79.914062 C 87.738281 79.445312 87.96875 78.820312 87.929688 78.765625 " fill-opacity="1" fill-rule="nonzero"/><path fill="rgb(13.729858%, 12.159729%, 12.548828%)" d="M 55.992188 31.691406 C 55.9375 31.6875 55.683594 31.699219 55.574219 31.710938 C 54.730469 31.832031 54.324219 32.039062 54.75 32.027344 C 54.835938 32.035156 55.304688 31.9375 55.507812 31.933594 C 56.117188 31.863281 56.28125 31.800781 56.324219 31.742188 C 56.21875 31.722656 56.140625 31.703125 55.992188 31.691406 " fill-opacity="1" fill-rule="nonzero"/><path fill="rgb(13.729858%, 12.159729%, 12.548828%)" d="M 44.984375 35.070312 C 45.273438 34.875 45.304688 34.804688 45.023438 34.886719 C 44.960938 34.90625 44.824219 34.957031 44.746094 34.996094 C 44.519531 35.109375 44.210938 35.265625 44.105469 35.332031 C 43.898438 35.46875 43.800781 35.558594 43.675781 35.65625 C 43.789062 35.632812 43.839844 35.636719 43.988281 35.585938 C 44.183594 35.519531 44.777344 35.210938 44.984375 35.070312 " fill-opacity="1" fill-rule="nonzero"/><path fill="rgb(13.729858%, 12.159729%, 12.548828%)" d="M 83.804688 84.988281 C 83.855469 84.898438 83.835938 84.871094 83.757812 84.925781 C 83.6875 84.972656 83.480469 85.160156 83.359375 85.296875 C 83.222656 85.449219 83.113281 85.617188 82.992188 85.777344 C 83.007812 85.800781 82.976562 85.882812 83.054688 85.828125 C 83.125 85.78125 83.328125 85.597656 83.460938 85.449219 C 83.589844 85.304688 83.757812 85.074219 83.804688 84.988281 " fill-opacity="1" fill-rule="nonzero"/><path fill="rgb(13.729858%, 12.159729%, 12.548828%)" d="M 37.960938 35.90625 C 38.15625 35.746094 38.140625 35.742188 37.84375 35.960938 C 36.957031 36.605469 36.113281 37.25 35.441406 37.984375 C 35.203125 38.226562 35.214844 38.222656 35.507812 37.96875 C 36.332031 37.195312 37.15625 36.59375 37.960938 35.90625 " fill-opacity="1" fill-rule="nonzero"/><path fill="rgb(13.729858%, 12.159729%, 12.548828%)" d="M 76.09375 33.242188 C 76.515625 33.492188 76.972656 33.707031 76.832031 33.585938 C 76.742188 33.511719 76.4375 33.308594 76.257812 33.207031 C 75.894531 32.996094 75.550781 32.820312 75.175781 32.679688 C 75.265625 32.742188 75.277344 32.769531 75.371094 32.816406 C 75.605469 32.925781 75.84375 33.097656 76.09375 33.242188 " fill-opacity="1" fill-rule="nonzero"/><g clip-path="url(#id15)"><path fill="rgb(13.729858%, 12.159729%, 12.548828%)" d="M 23.742188 64.863281 C 23.738281 64.5625 23.734375 64.261719 23.730469 64.019531 C 23.714844 63.621094 23.683594 64.0625 23.660156 65.023438 C 23.640625 65.351562 23.6875 65.679688 23.707031 66 C 23.722656 66.140625 23.738281 66.265625 23.753906 66.398438 C 23.757812 66.210938 23.769531 66.054688 23.761719 65.816406 C 23.746094 65.535156 23.726562 65.171875 23.742188 64.863281 " fill-opacity="1" fill-rule="nonzero"/></g><path fill="rgb(13.729858%, 12.159729%, 12.548828%)" d="M 51.898438 31.578125 C 51.695312 31.644531 51.488281 31.726562 51.464844 31.753906 C 51.421875 31.820312 51.882812 31.6875 52.300781 31.613281 C 52.507812 31.570312 52.617188 31.523438 52.769531 31.476562 C 52.746094 31.445312 52.304688 31.472656 51.898438 31.578125 " fill-opacity="1" fill-rule="nonzero"/><path fill="rgb(13.729858%, 12.159729%, 12.548828%)" d="M 89.351562 76.578125 C 89.429688 76.339844 89.355469 76.4375 89.199219 76.753906 C 89.144531 76.867188 89.046875 77.078125 89.027344 77.140625 C 88.972656 77.308594 88.941406 77.4375 88.921875 77.535156 C 88.917969 77.554688 89.019531 77.359375 89.074219 77.265625 C 89.167969 77.027344 89.289062 76.730469 89.351562 76.578125 " fill-opacity="1" fill-rule="nonzero"/><path fill="rgb(13.729858%, 12.159729%, 12.548828%)" d="M 88.628906 75.9375 C 88.636719 75.914062 88.714844 75.679688 88.753906 75.566406 C 88.941406 74.945312 88.945312 74.757812 88.96875 74.527344 C 88.78125 75.101562 88.578125 75.710938 88.515625 76.070312 C 88.5 76.164062 88.578125 76.023438 88.628906 75.9375 " fill-opacity="1" fill-rule="nonzero"/><path fill="rgb(13.729858%, 12.159729%, 12.548828%)" d="M 88.96875 74.527344 C 88.992188 74.441406 89.011719 74.382812 89.035156 74.300781 C 89.039062 74.28125 89.050781 74.25 89.054688 74.230469 L 89 74.375 C 88.992188 74.410156 88.976562 74.492188 88.96875 74.527344 " fill-opacity="1" fill-rule="nonzero"/><path fill="rgb(13.729858%, 12.159729%, 12.548828%)" d="M 51.683594 32.859375 C 51.617188 32.871094 51.421875 32.921875 51.335938 32.949219 C 51.046875 33.042969 51.007812 33.078125 51.234375 33.039062 C 51.296875 33.023438 51.464844 32.980469 51.574219 32.953125 C 51.863281 32.855469 51.910156 32.820312 51.683594 32.859375 " fill-opacity="1" fill-rule="nonzero"/><path fill="rgb(13.729858%, 12.159729%, 12.548828%)" d="M 46.902344 34.890625 C 47.039062 34.820312 47.148438 34.761719 47.269531 34.699219 L 46.953125 34.796875 L 46.601562 34.988281 C 46.707031 34.953125 46.894531 34.894531 46.902344 34.890625 " fill-opacity="1" fill-rule="nonzero"/><path fill="rgb(13.729858%, 12.159729%, 12.548828%)" d="M 89.734375 53.53125 C 89.597656 53.226562 89.589844 53.273438 89.71875 53.648438 C 89.757812 53.738281 89.816406 53.886719 89.867188 54.007812 C 89.871094 53.976562 89.894531 53.992188 89.871094 53.914062 C 89.847656 53.828125 89.769531 53.605469 89.734375 53.53125 " fill-opacity="1" fill-rule="nonzero"/><path fill="rgb(13.729858%, 12.159729%, 12.548828%)" d="M 54.925781 32.738281 L 54.953125 32.707031 L 54.703125 32.761719 Z M 54.925781 32.738281 " fill-opacity="1" fill-rule="nonzero"/><path fill="rgb(13.729858%, 12.159729%, 12.548828%)" d="M 35.125 42.628906 L 34.984375 42.761719 L 34.949219 42.839844 Z M 35.125 42.628906 " fill-opacity="1" fill-rule="nonzero"/><path fill="rgb(13.729858%, 12.159729%, 12.548828%)" d="M 71.269531 34.292969 L 71.234375 34.242188 C 71.167969 34.21875 71.09375 34.207031 71.023438 34.1875 C 71.105469 34.21875 71.191406 34.25 71.269531 34.292969 " fill-opacity="1" fill-rule="nonzero"/><path fill="rgb(13.729858%, 12.159729%, 12.548828%)" d="M 81.304688 38.4375 L 81.070312 38.234375 L 81.238281 38.40625 Z M 81.304688 38.4375 " fill-opacity="1" fill-rule="nonzero"/><g clip-path="url(#id16)"><path fill="rgb(14.509583%, 13.729858%, 12.939453%)" d="M 72.625 71.8125 C 72.671875 72.054688 72.695312 72.308594 72.695312 72.5625 C 72.695312 72.742188 72.683594 72.914062 72.660156 73.085938 C 72.550781 73.9375 72.164062 74.699219 71.597656 75.289062 C 71.59375 75.292969 71.589844 75.296875 71.582031 75.300781 L 70.597656 75.859375 L 70.136719 76.117188 L 69.640625 76.398438 L 68.03125 77.308594 L 64.726562 79.175781 L 63.25 80.007812 L 54.394531 85.011719 L 52.976562 85.8125 C 52.929688 85.839844 52.867188 85.800781 52.867188 85.746094 L 52.867188 83.015625 C 52.867188 82.988281 52.882812 82.964844 52.90625 82.953125 L 54.394531 82.113281 L 63.25 77.109375 L 64.726562 76.273438 L 65.460938 75.859375 L 66.125 75.484375 L 68.03125 74.40625 L 70.101562 73.238281 C 70.628906 72.8125 70.628906 72.074219 70.101562 71.640625 L 68.15625 70.542969 C 68.132812 70.53125 68.105469 70.53125 68.082031 70.542969 L 64.828125 72.382812 L 64.726562 72.441406 L 64.632812 72.492188 L 63.25 73.273438 L 62.066406 73.941406 L 54.503906 78.214844 C 54.453125 78.242188 54.390625 78.207031 54.390625 78.152344 L 54.390625 75.421875 C 54.390625 75.394531 54.40625 75.367188 54.429688 75.355469 L 59.5 72.492188 L 62.066406 71.042969 L 63.25 70.375 L 64.726562 69.539062 L 65.4375 69.136719 C 65.488281 69.109375 65.488281 69.035156 65.4375 69.007812 L 64.726562 68.605469 L 63.25 67.769531 L 62.855469 67.546875 L 54.390625 62.765625 L 52.867188 61.90625 L 52.847656 61.894531 L 52.714844 61.820312 L 49.96875 60.265625 C 49.945312 60.253906 49.917969 60.253906 49.894531 60.265625 L 47.589844 61.570312 C 46.863281 61.992188 47.257812 62.78125 47.589844 62.863281 L 49.230469 63.789062 L 51.636719 65.144531 L 52.867188 65.839844 L 54.390625 66.703125 L 59.253906 69.453125 C 59.304688 69.480469 59.304688 69.550781 59.253906 69.582031 L 56.839844 70.945312 C 56.816406 70.957031 56.789062 70.957031 56.765625 70.945312 L 54.390625 69.605469 L 52.867188 68.742188 L 48.324219 66.175781 L 47.554688 65.742188 L 46.664062 65.238281 L 45.914062 64.816406 L 45.914062 64.8125 C 45.484375 64.304688 45.183594 63.679688 45.058594 63 C 45.019531 62.769531 44.996094 62.53125 44.996094 62.289062 C 44.996094 62 45.027344 61.71875 45.089844 61.449219 C 45.257812 60.671875 45.65625 59.984375 46.207031 59.453125 L 47.066406 58.96875 L 47.253906 58.863281 C 47.300781 58.835938 47.300781 58.761719 47.253906 58.734375 L 45.835938 57.933594 L 45.835938 57.929688 C 45.46875 57.460938 45.203125 56.910156 45.078125 56.304688 C 45.027344 56.046875 44.996094 55.777344 44.996094 55.503906 C 44.996094 55.199219 45.03125 54.902344 45.097656 54.613281 C 45.25 53.960938 45.566406 53.367188 46 52.882812 L 47.0625 52.28125 L 47.554688 52.003906 L 48.199219 51.640625 L 49.628906 50.832031 L 52.867188 49.003906 L 54.394531 48.140625 L 63.25 43.136719 L 64.617188 42.367188 C 64.664062 42.339844 64.726562 42.375 64.726562 42.429688 L 64.726562 45.160156 C 64.726562 45.1875 64.710938 45.210938 64.6875 45.226562 L 63.25 46.039062 L 54.394531 51.039062 L 52.867188 51.902344 L 52.195312 52.28125 L 51.605469 52.617188 L 49.628906 53.734375 L 47.59375 54.882812 C 47.015625 55.359375 47.457031 55.949219 47.59375 56.023438 L 49.894531 57.328125 C 49.917969 57.339844 49.945312 57.339844 49.96875 57.328125 L 52.863281 55.691406 L 52.867188 55.6875 L 52.976562 55.625 L 54.394531 54.828125 L 55.546875 54.175781 L 63.140625 49.886719 C 63.1875 49.859375 63.25 49.894531 63.25 49.949219 L 63.25 52.679688 C 63.25 52.707031 63.234375 52.734375 63.210938 52.746094 L 58.113281 55.625 L 55.542969 57.078125 L 54.390625 57.726562 L 52.867188 58.589844 L 52.613281 58.734375 C 52.5625 58.761719 52.5625 58.832031 52.613281 58.863281 L 52.867188 59.003906 L 54.390625 59.867188 L 55.28125 60.371094 L 63.25 64.871094 L 64.726562 65.703125 L 64.824219 65.761719 L 65.421875 66.097656 L 68.082031 67.601562 C 68.105469 67.613281 68.132812 67.613281 68.15625 67.601562 L 70.101562 66.503906 C 70.433594 66.273438 70.578125 65.683594 70.101562 65.300781 L 68.46875 64.378906 L 65.996094 62.980469 L 64.726562 62.261719 L 63.25 61.429688 L 58.445312 58.714844 C 58.394531 58.6875 58.394531 58.613281 58.445312 58.585938 L 60.859375 57.222656 C 60.882812 57.207031 60.910156 57.207031 60.933594 57.222656 L 63.25 58.53125 L 64.726562 59.363281 L 69.160156 61.867188 L 69.160156 61.871094 L 70.136719 62.421875 L 71.035156 62.929688 L 71.894531 63.414062 C 71.90625 63.421875 71.914062 63.425781 71.917969 63.4375 C 72.273438 63.910156 72.523438 64.46875 72.632812 65.074219 C 72.675781 65.304688 72.695312 65.542969 72.695312 65.78125 C 72.695312 66.101562 72.65625 66.410156 72.585938 66.707031 C 72.40625 67.453125 72.015625 68.113281 71.476562 68.628906 C 71.273438 68.820312 71.050781 68.996094 70.808594 69.144531 C 70.789062 69.152344 70.769531 69.164062 70.753906 69.175781 C 71.707031 69.734375 72.40625 70.6875 72.625 71.8125 Z M 72.625 71.8125 " fill-opacity="1" fill-rule="nonzero"/></g><path fill="rgb(13.729858%, 12.159729%, 12.548828%)" d="M 30.203125 53.039062 C 30.1875 52.96875 30 53.355469 29.878906 53.796875 C 29.78125 54.25 29.738281 54.609375 29.808594 54.488281 C 29.84375 54.425781 29.921875 54.148438 29.980469 53.96875 C 30.085938 53.527344 30.230469 53.117188 30.203125 53.039062 Z M 29.339844 56.523438 C 29.328125 56.535156 29.289062 56.691406 29.261719 56.785156 C 29.261719 56.84375 29.257812 56.964844 29.269531 56.949219 C 29.277344 56.933594 29.296875 56.777344 29.328125 56.6875 C 29.335938 56.625 29.351562 56.507812 29.339844 56.523438 Z M 90.269531 71.359375 C 90.195312 71.550781 90.113281 71.769531 90.03125 71.980469 C 90.210938 71.28125 90.410156 70.503906 90.617188 69.429688 C 90.859375 68.417969 91.085938 67.425781 91.128906 66.4375 C 91.480469 63.398438 91.375 60.140625 90.804688 56.957031 C 90.425781 54.4375 89.574219 52.128906 88.648438 50.046875 C 88.210938 49.207031 87.742188 48.332031 87.300781 47.386719 C 86.613281 46.261719 86.011719 45.121094 85.183594 44.109375 C 84.691406 43.5 84.226562 42.851562 83.707031 42.246094 L 82.074219 40.488281 C 79.3125 37.695312 76.011719 35.445312 72.394531 33.890625 C 71.777344 33.574219 71.121094 33.339844 70.460938 33.132812 L 68.496094 32.464844 C 67.136719 32.199219 65.816406 31.742188 64.429688 31.640625 C 59.8125 31 55.058594 31.378906 50.605469 32.792969 C 46.996094 33.941406 43.605469 35.820312 40.667969 38.21875 C 40.304688 38.464844 39.996094 38.796875 39.675781 39.078125 C 37.398438 40.929688 35.621094 43.304688 34.046875 45.722656 C 31.839844 49.324219 30.34375 53.347656 29.675781 57.53125 C 29.578125 58.46875 29.390625 59.40625 29.367188 60.351562 C 29.363281 61.300781 29.304688 62.25 29.332031 63.195312 C 29.449219 66.183594 30.039062 69.132812 30.941406 71.972656 C 31.902344 74.800781 33.308594 77.457031 34.980469 79.917969 C 35.15625 80.148438 35.335938 80.378906 35.511719 80.605469 L 36.621094 82.085938 L 37.875 83.445312 C 38.667969 84.394531 39.667969 85.128906 40.566406 85.964844 C 40.832031 86.226562 41.164062 86.472656 41.441406 86.703125 C 41.679688 86.894531 41.628906 86.882812 41.355469 86.6875 C 40.621094 86.226562 40.03125 85.582031 39.359375 85.039062 C 38.683594 84.496094 38.089844 83.867188 37.503906 83.226562 C 37.019531 82.691406 36.472656 82.164062 36.0625 81.59375 C 34.675781 79.964844 33.554688 78.171875 32.730469 77.125 C 32.503906 76.796875 32.140625 76.105469 31.808594 75.394531 C 31.707031 75.175781 31.628906 74.96875 31.566406 74.800781 C 31.542969 74.742188 31.582031 74.765625 31.621094 74.832031 C 31.71875 74.988281 31.839844 75.1875 31.949219 75.363281 C 32.058594 75.539062 32.175781 75.734375 32.269531 75.878906 C 32.308594 75.9375 32.320312 75.925781 32.308594 75.875 C 32.296875 75.824219 32.242188 75.675781 32.199219 75.589844 C 31.777344 74.824219 31.464844 74.011719 31.160156 73.207031 C 30.878906 72.484375 30.628906 71.992188 30.480469 71.742188 C 30.402344 71.605469 30.332031 71.496094 30.238281 71.285156 C 30.105469 70.980469 29.941406 70.464844 29.777344 69.859375 C 29.703125 69.574219 29.628906 69.28125 29.5625 69.015625 C 29.4375 68.136719 29.308594 67.273438 29.15625 66.433594 C 29 65.589844 28.984375 64.75 28.859375 63.929688 C 28.746094 63.265625 28.742188 62.53125 28.792969 61.777344 C 28.820312 61.109375 28.796875 60.65625 28.75 60.332031 C 28.726562 60.101562 28.671875 59.910156 28.683594 59.652344 C 28.679688 59.394531 28.667969 59.121094 28.703125 58.761719 C 28.773438 57.929688 28.832031 57.230469 28.886719 56.582031 C 28.980469 55.941406 29.070312 55.355469 29.15625 54.75 C 29.203125 54.449219 29.296875 53.964844 29.417969 53.5 C 29.578125 53.042969 29.75 52.601562 29.863281 52.355469 C 30.035156 52.011719 30.15625 51.765625 30.316406 51.445312 C 30.570312 50.84375 30.894531 50.066406 31.109375 49.425781 C 31.183594 49.175781 31.207031 49.027344 31.300781 48.746094 C 31.394531 48.472656 31.527344 48.078125 31.675781 47.753906 C 32.34375 46.511719 32.890625 45.441406 33.5625 44.335938 C 33.628906 44.238281 33.773438 44.054688 33.8125 44.011719 C 33.917969 43.90625 34.058594 43.765625 34.050781 43.8125 C 34.039062 43.898438 33.914062 44.128906 33.863281 44.269531 C 33.589844 44.84375 33.304688 45.738281 32.203125 47.605469 C 31.855469 48.367188 31.578125 49.125 31.273438 49.875 C 31.121094 50.246094 31.058594 50.550781 31.171875 50.339844 C 31.28125 50.144531 31.417969 49.890625 31.515625 49.671875 L 32.28125 47.949219 C 32.554688 47.386719 32.898438 46.859375 33.199219 46.308594 C 33.777344 45.191406 34.527344 44.179688 35.261719 43.164062 C 35.707031 42.480469 36.277344 41.898438 36.8125 41.28125 C 37.347656 40.667969 37.875 40.046875 38.496094 39.519531 C 38.929688 39.113281 39.402344 38.675781 39.785156 38.3125 C 41.21875 37.050781 42.746094 35.957031 44.425781 35.039062 C 45.277344 34.496094 46.28125 34.132812 47.183594 33.648438 C 50.417969 32.175781 53.902344 31.289062 57.433594 30.9375 C 58.535156 30.847656 59.644531 30.730469 60.753906 30.804688 L 62.421875 30.839844 C 62.976562 30.882812 63.527344 30.972656 64.078125 31.035156 C 65.636719 31.15625 67.136719 31.59375 68.660156 31.917969 C 70.125 32.441406 71.644531 32.828125 73.035156 33.542969 C 73.839844 33.921875 74.703125 34.25 75.421875 34.695312 C 77.25 35.644531 78.976562 36.835938 80.53125 38.1875 C 83.550781 40.804688 86.132812 43.96875 87.984375 47.523438 C 88.359375 48.324219 88.785156 49.105469 89.144531 49.917969 L 90.109375 52.414062 C 90.621094 54.117188 91.09375 55.84375 91.335938 57.613281 C 91.460938 58.195312 91.519531 58.839844 91.558594 59.371094 C 91.707031 60.609375 91.8125 61.855469 91.726562 63.109375 C 91.746094 64.363281 91.554688 65.605469 91.375 66.851562 C 91.335938 67.140625 91.292969 67.460938 91.257812 67.734375 C 90.9375 69.152344 90.710938 70.285156 90.269531 71.359375 " fill-opacity="1" fill-rule="nonzero"/><path fill="rgb(13.729858%, 12.159729%, 12.548828%)" d="M 28.210938 74.417969 C 27.984375 73.820312 27.726562 73.230469 27.527344 72.621094 C 27.355469 72.003906 27.1875 71.390625 27.019531 70.785156 C 26.613281 69.46875 26.480469 68.101562 26.226562 66.761719 C 26.058594 65.410156 25.964844 64.042969 25.917969 62.679688 C 25.855469 59.101562 26.429688 55.59375 27.347656 52.226562 C 27.777344 50.988281 28.078125 49.757812 28.679688 48.703125 C 29.300781 47.46875 29.863281 46.160156 30.609375 44.925781 C 30.835938 44.515625 31.054688 44.117188 31.285156 43.699219 C 31.589844 43.152344 32.011719 42.667969 32.03125 42.609375 C 32.566406 41.90625 32.757812 41.652344 32.941406 41.410156 C 33.113281 41.171875 33.316406 40.871094 33.410156 40.710938 C 34.089844 39.796875 33.503906 40.023438 32.558594 41.300781 C 32 42.070312 31.355469 42.800781 30.890625 43.660156 C 30.363281 44.652344 29.753906 45.601562 29.265625 46.617188 C 28.8125 47.652344 28.296875 48.671875 27.875 49.738281 C 26.652344 52.933594 25.933594 56.3125 25.636719 59.71875 C 25.609375 60.847656 25.582031 62.054688 25.605469 63.066406 C 25.699219 64.070312 25.796875 65.085938 25.894531 66.113281 C 26.03125 67.136719 26.242188 68.164062 26.414062 69.210938 C 26.851562 71.097656 27.359375 72.96875 28.113281 74.746094 C 28.292969 75.203125 28.4375 75.472656 28.492188 75.492188 C 28.558594 75.515625 28.402344 74.914062 28.210938 74.417969 " fill-opacity="1" fill-rule="nonzero"/><path fill="rgb(13.729858%, 12.159729%, 12.548828%)" d="M 36.671875 38.917969 C 37.519531 38.1875 38.25 37.527344 38.898438 36.90625 C 39.59375 36.339844 40.21875 35.828125 40.773438 35.304688 C 41.21875 34.867188 41.625 34.519531 42.039062 34.199219 C 42.75 33.621094 42.539062 33.621094 41.398438 34.207031 C 40.777344 34.535156 40.160156 34.992188 39.351562 35.574219 C 39.105469 35.765625 38.824219 35.984375 38.613281 36.144531 C 38.085938 36.628906 37.585938 37.15625 37.042969 37.671875 C 36.496094 38.183594 35.949219 38.722656 35.4375 39.347656 C 34.980469 39.867188 34.558594 40.46875 34.609375 40.5 C 34.664062 40.539062 34.757812 40.539062 34.859375 40.527344 C 35.066406 40.507812 35.632812 39.976562 36.671875 38.917969 " fill-opacity="1" fill-rule="nonzero"/><path fill="rgb(13.729858%, 12.159729%, 12.548828%)" d="M 56.308594 26.835938 C 56.472656 26.824219 56.644531 26.808594 56.808594 26.796875 C 58.976562 26.550781 61.152344 26.578125 63.332031 26.761719 C 64.46875 26.933594 65.664062 27.011719 66.808594 27.238281 C 67.257812 27.328125 67.691406 27.417969 68.300781 27.539062 C 67.835938 27.417969 67.578125 27.351562 67.300781 27.277344 C 61.28125 25.867188 54.808594 26.4375 48.914062 28.304688 C 47.984375 28.65625 47.042969 29.015625 46.101562 29.371094 L 43.386719 30.714844 L 42.953125 30.9375 C 42.511719 31.210938 42.035156 31.578125 42.277344 31.453125 C 42.492188 31.34375 42.761719 31.207031 42.992188 31.066406 C 47.089844 28.792969 51.632812 27.300781 56.308594 26.835938 " fill-opacity="1" fill-rule="nonzero"/><path fill="rgb(13.729858%, 12.159729%, 12.548828%)" d="M 85.734375 80.921875 C 86.253906 80.222656 86.71875 79.679688 87.035156 79.015625 C 87.273438 78.566406 87.511719 78.027344 87.382812 78.171875 C 87.269531 78.296875 87.085938 78.515625 86.917969 78.792969 C 86.328125 79.835938 85.496094 80.71875 84.804688 81.699219 C 84.03125 82.613281 83.195312 83.484375 82.359375 84.351562 C 81.976562 84.691406 81.554688 85.121094 81.160156 85.507812 C 80.894531 85.765625 80.839844 85.914062 81.085938 85.71875 C 81.527344 85.363281 81.949219 85.019531 82.453125 84.617188 C 83.59375 83.484375 84.824219 82.269531 85.734375 80.921875 " fill-opacity="1" fill-rule="nonzero"/><g clip-path="url(#id17)"><path fill="rgb(13.729858%, 12.159729%, 12.548828%)" d="M 92.421875 58.132812 C 92.589844 59.058594 92.675781 59.496094 92.828125 59.523438 C 92.828125 59.523438 92.871094 59.082031 92.851562 58.550781 C 92.789062 57.675781 92.609375 56.777344 92.445312 55.878906 C 92.292969 54.933594 91.992188 54.347656 91.882812 54.195312 C 91.734375 54.03125 91.675781 54.195312 91.886719 55.183594 C 92.011719 56.195312 92.207031 57.234375 92.421875 58.132812 " fill-opacity="1" fill-rule="nonzero"/></g><path fill="rgb(13.729858%, 12.159729%, 12.548828%)" d="M 47.773438 29.894531 C 47.726562 29.898438 47.570312 29.941406 47.457031 29.984375 C 46.859375 30.199219 46.265625 30.425781 45.703125 30.722656 L 45.703125 30.730469 L 43.976562 31.585938 C 41.757812 32.832031 41.398438 33.214844 41.777344 33.203125 C 41.851562 33.207031 41.929688 33.207031 42.101562 33.144531 C 42.195312 33.109375 42.476562 32.957031 42.695312 32.832031 C 42.769531 32.792969 42.992188 32.644531 43.03125 32.613281 C 43.40625 32.257812 43.964844 31.898438 44.65625 31.511719 C 45.355469 31.136719 46.132812 30.617188 47.070312 30.253906 C 47.332031 30.144531 47.550781 30.039062 47.742188 29.945312 C 47.820312 29.910156 47.824219 29.886719 47.773438 29.894531 " fill-opacity="1" fill-rule="nonzero"/><g clip-path="url(#id18)"><path fill="rgb(13.729858%, 12.159729%, 12.548828%)" d="M 92.269531 63.539062 C 92.246094 64.214844 92.191406 64.921875 92.0625 65.625 C 92.035156 65.792969 92.039062 66.042969 92.027344 66.253906 C 92.058594 66.21875 92.082031 66.289062 92.117188 66.136719 C 92.347656 65.125 92.550781 64.601562 92.675781 64.585938 C 92.703125 64.585938 92.730469 64.390625 92.757812 64.285156 C 92.804688 64.109375 92.855469 63.160156 92.832031 62.726562 C 92.8125 62.410156 92.785156 62.019531 92.753906 62.035156 C 92.644531 62.09375 92.53125 62.300781 92.421875 62.484375 C 92.359375 62.582031 92.304688 62.976562 92.269531 63.539062 " fill-opacity="1" fill-rule="nonzero"/></g><path fill="rgb(13.729858%, 12.159729%, 12.548828%)" d="M 36.753906 37.050781 C 37.621094 36.242188 38.292969 35.527344 38.367188 35.371094 C 38.226562 35.457031 38.066406 35.496094 37.804688 35.710938 C 37.179688 36.214844 36.332031 37.019531 35.867188 37.527344 C 35.511719 37.917969 35.472656 38.0625 35.886719 37.769531 C 36.066406 37.640625 36.46875 37.3125 36.753906 37.050781 " fill-opacity="1" fill-rule="nonzero"/><path fill="rgb(13.729858%, 12.159729%, 12.548828%)" d="M 84.929688 84.277344 C 84.847656 84.355469 84.628906 84.644531 84.472656 84.835938 C 84.488281 84.855469 84.453125 84.941406 84.535156 84.882812 C 84.933594 84.574219 85.699219 83.914062 86.53125 82.816406 C 86.675781 82.617188 86.875 82.308594 86.90625 82.234375 C 86.933594 82.164062 86.8125 82.269531 86.691406 82.410156 C 86.1875 83.0625 85.558594 83.65625 84.929688 84.277344 " fill-opacity="1" fill-rule="nonzero"/><g clip-path="url(#id19)"><path fill="rgb(13.729858%, 12.159729%, 12.548828%)" d="M 84.027344 86.390625 C 83.574219 86.832031 83.183594 87.265625 83.230469 87.28125 C 83.285156 87.332031 83.640625 87.082031 84.019531 86.808594 C 84.085938 86.757812 84.246094 86.632812 84.300781 86.578125 C 84.484375 86.40625 84.726562 86.148438 84.753906 86.074219 C 84.882812 85.835938 84.964844 85.640625 85.011719 85.488281 C 85.035156 85.363281 84.476562 86 84.027344 86.390625 " fill-opacity="1" fill-rule="nonzero"/></g><path fill="rgb(13.729858%, 12.159729%, 12.548828%)" d="M 37.203125 40.207031 C 37.160156 40.289062 37.191406 40.304688 37.285156 40.222656 C 37.382812 40.140625 37.601562 39.898438 37.796875 39.753906 C 38.390625 39.199219 38.769531 38.796875 38.839844 38.632812 C 38.859375 38.585938 38.757812 38.636719 38.621094 38.742188 C 38.484375 38.84375 38.222656 39.078125 38.042969 39.25 C 37.601562 39.652344 37.300781 39.996094 37.203125 40.207031 " fill-opacity="1" fill-rule="nonzero"/><path fill="rgb(13.729858%, 12.159729%, 12.548828%)" d="M 46.183594 31.503906 C 46.132812 31.527344 45.976562 31.589844 45.867188 31.632812 C 45.738281 31.699219 45.589844 31.769531 45.476562 31.824219 C 44.335938 32.433594 44.03125 32.722656 44.882812 32.398438 C 45.03125 32.34375 45.460938 32.136719 45.625 32.046875 C 46.421875 31.601562 46.648438 31.371094 46.183594 31.503906 " fill-opacity="1" fill-rule="nonzero"/><path fill="rgb(13.729858%, 12.159729%, 12.548828%)" d="M 26.4375 51.347656 C 26.46875 51.234375 26.484375 51.132812 26.472656 51.136719 C 26.457031 51.140625 26.398438 51.285156 26.355469 51.375 C 25.871094 52.574219 25.628906 53.867188 25.390625 55.09375 C 25.371094 55.203125 25.367188 55.292969 25.382812 55.285156 C 25.394531 55.277344 25.441406 55.15625 25.46875 55.042969 C 25.796875 53.789062 26.046875 52.523438 26.4375 51.347656 " fill-opacity="1" fill-rule="nonzero"/><path fill="rgb(13.729858%, 12.159729%, 12.548828%)" d="M 31.734375 40.945312 C 31.992188 40.585938 32.074219 40.4375 31.949219 40.574219 C 31.898438 40.628906 31.761719 40.808594 31.675781 40.929688 C 31.203125 41.613281 30.683594 42.265625 30.253906 42.976562 L 29.015625 45.140625 C 28.964844 45.230469 28.941406 45.304688 28.90625 45.386719 C 28.964844 45.308594 29.03125 45.230469 29.074219 45.15625 L 30.316406 42.992188 C 30.75 42.285156 31.265625 41.628906 31.734375 40.945312 " fill-opacity="1" fill-rule="nonzero"/><g clip-path="url(#id20)"><path fill="rgb(13.729858%, 12.159729%, 12.548828%)" d="M 92.222656 53.683594 C 92.316406 53.835938 92.273438 53.476562 92.125 52.84375 C 92 52.230469 91.75 51.589844 91.640625 51.488281 C 91.53125 51.382812 91.640625 51.722656 91.785156 52.300781 C 91.921875 52.875 92.125 53.523438 92.222656 53.683594 " fill-opacity="1" fill-rule="nonzero"/></g><path fill="rgb(13.729858%, 12.159729%, 12.548828%)" d="M 88.90625 76.515625 C 88.882812 76.480469 88.8125 76.53125 88.714844 76.667969 C 88.667969 76.738281 88.507812 77.078125 88.363281 77.273438 C 88.125 77.714844 87.988281 78.03125 88.007812 78.128906 C 88.015625 78.195312 88.140625 78.050781 88.386719 77.664062 C 88.714844 77.195312 88.945312 76.570312 88.90625 76.515625 " fill-opacity="1" fill-rule="nonzero"/><path fill="rgb(13.729858%, 12.159729%, 12.548828%)" d="M 56.964844 29.441406 C 56.914062 29.4375 56.660156 29.449219 56.550781 29.460938 C 55.707031 29.582031 55.300781 29.789062 55.726562 29.777344 C 55.8125 29.785156 56.28125 29.6875 56.480469 29.683594 C 57.09375 29.613281 57.257812 29.550781 57.296875 29.492188 C 57.195312 29.472656 57.117188 29.453125 56.964844 29.441406 " fill-opacity="1" fill-rule="nonzero"/><path fill="rgb(13.729858%, 12.159729%, 12.548828%)" d="M 45.960938 32.820312 C 46.25 32.625 46.277344 32.554688 45.996094 32.636719 C 45.9375 32.65625 45.800781 32.707031 45.71875 32.746094 C 45.496094 32.859375 45.1875 33.015625 45.082031 33.082031 C 44.871094 33.21875 44.777344 33.308594 44.648438 33.40625 C 44.765625 33.382812 44.816406 33.386719 44.960938 33.335938 C 45.160156 33.269531 45.75 32.960938 45.960938 32.820312 " fill-opacity="1" fill-rule="nonzero"/><path fill="rgb(13.729858%, 12.159729%, 12.548828%)" d="M 84.78125 82.738281 C 84.832031 82.648438 84.8125 82.621094 84.730469 82.675781 C 84.664062 82.722656 84.457031 82.910156 84.332031 83.046875 C 84.199219 83.199219 84.089844 83.367188 83.96875 83.527344 C 83.984375 83.550781 83.949219 83.632812 84.03125 83.578125 C 84.101562 83.53125 84.304688 83.34375 84.4375 83.199219 C 84.566406 83.054688 84.734375 82.824219 84.78125 82.738281 " fill-opacity="1" fill-rule="nonzero"/><path fill="rgb(13.729858%, 12.159729%, 12.548828%)" d="M 38.9375 33.65625 C 39.132812 33.496094 39.117188 33.492188 38.820312 33.710938 C 37.933594 34.355469 37.085938 35 36.417969 35.734375 C 36.179688 35.976562 36.191406 35.972656 36.480469 35.71875 C 37.308594 34.945312 38.132812 34.34375 38.9375 33.65625 " fill-opacity="1" fill-rule="nonzero"/><path fill="rgb(13.729858%, 12.159729%, 12.548828%)" d="M 77.070312 30.992188 C 77.492188 31.242188 77.949219 31.453125 77.804688 31.335938 C 77.71875 31.261719 77.414062 31.058594 77.230469 30.957031 C 76.871094 30.746094 76.527344 30.570312 76.152344 30.429688 C 76.242188 30.492188 76.253906 30.515625 76.34375 30.566406 C 76.578125 30.675781 76.820312 30.847656 77.070312 30.992188 " fill-opacity="1" fill-rule="nonzero"/><g clip-path="url(#id21)"><path fill="rgb(13.729858%, 12.159729%, 12.548828%)" d="M 24.71875 62.613281 C 24.714844 62.3125 24.710938 62.011719 24.707031 61.769531 C 24.691406 61.371094 24.65625 61.8125 24.636719 62.773438 C 24.613281 63.101562 24.664062 63.429688 24.683594 63.75 C 24.699219 63.890625 24.714844 64.015625 24.730469 64.148438 C 24.734375 63.960938 24.746094 63.804688 24.738281 63.566406 C 24.722656 63.285156 24.703125 62.921875 24.71875 62.613281 " fill-opacity="1" fill-rule="nonzero"/></g><path fill="rgb(13.729858%, 12.159729%, 12.548828%)" d="M 52.875 29.328125 C 52.671875 29.394531 52.464844 29.476562 52.441406 29.503906 C 52.398438 29.570312 52.859375 29.4375 53.277344 29.363281 C 53.484375 29.320312 53.589844 29.273438 53.746094 29.226562 C 53.71875 29.195312 53.28125 29.222656 52.875 29.328125 " fill-opacity="1" fill-rule="nonzero"/><path fill="rgb(13.729858%, 12.159729%, 12.548828%)" d="M 90.328125 74.328125 C 90.40625 74.089844 90.332031 74.1875 90.175781 74.503906 C 90.121094 74.613281 90.023438 74.828125 90.003906 74.890625 C 89.949219 75.058594 89.917969 75.1875 89.898438 75.285156 C 89.894531 75.304688 89.996094 75.109375 90.050781 75.015625 C 90.144531 74.777344 90.265625 74.480469 90.328125 74.328125 " fill-opacity="1" fill-rule="nonzero"/><path fill="rgb(13.729858%, 12.159729%, 12.548828%)" d="M 89.605469 73.6875 C 89.613281 73.664062 89.691406 73.429688 89.730469 73.316406 C 89.914062 72.695312 89.921875 72.507812 89.941406 72.277344 C 89.757812 72.851562 89.554688 73.460938 89.488281 73.820312 C 89.472656 73.914062 89.554688 73.773438 89.605469 73.6875 " fill-opacity="1" fill-rule="nonzero"/><path fill="rgb(13.729858%, 12.159729%, 12.548828%)" d="M 89.941406 72.277344 C 89.96875 72.191406 89.984375 72.132812 90.011719 72.050781 C 90.015625 72.03125 90.023438 71.996094 90.03125 71.980469 L 89.976562 72.125 C 89.96875 72.160156 89.949219 72.242188 89.941406 72.277344 " fill-opacity="1" fill-rule="nonzero"/><path fill="rgb(13.729858%, 12.159729%, 12.548828%)" d="M 52.65625 30.609375 C 52.59375 30.621094 52.398438 30.671875 52.3125 30.699219 C 52.023438 30.792969 51.984375 30.828125 52.210938 30.789062 C 52.273438 30.773438 52.441406 30.730469 52.550781 30.703125 C 52.839844 30.605469 52.886719 30.570312 52.65625 30.609375 " fill-opacity="1" fill-rule="nonzero"/><path fill="rgb(13.729858%, 12.159729%, 12.548828%)" d="M 47.878906 32.640625 C 48.011719 32.570312 48.125 32.511719 48.242188 32.449219 L 47.925781 32.546875 L 47.578125 32.738281 C 47.683594 32.703125 47.867188 32.644531 47.878906 32.640625 " fill-opacity="1" fill-rule="nonzero"/><path fill="rgb(13.729858%, 12.159729%, 12.548828%)" d="M 90.710938 51.28125 C 90.574219 50.976562 90.566406 51.023438 90.695312 51.398438 C 90.730469 51.488281 90.792969 51.636719 90.84375 51.753906 C 90.847656 51.726562 90.871094 51.742188 90.847656 51.664062 C 90.824219 51.578125 90.742188 51.355469 90.710938 51.28125 " fill-opacity="1" fill-rule="nonzero"/><path fill="rgb(13.729858%, 12.159729%, 12.548828%)" d="M 55.898438 30.488281 L 55.929688 30.457031 L 55.675781 30.511719 Z M 55.898438 30.488281 " fill-opacity="1" fill-rule="nonzero"/><path fill="rgb(13.729858%, 12.159729%, 12.548828%)" d="M 36.101562 40.378906 L 35.960938 40.511719 L 35.921875 40.589844 Z M 36.101562 40.378906 " fill-opacity="1" fill-rule="nonzero"/><path fill="rgb(13.729858%, 12.159729%, 12.548828%)" d="M 72.242188 32.042969 L 72.210938 31.992188 C 72.144531 31.964844 72.070312 31.957031 72 31.9375 C 72.082031 31.96875 72.164062 32 72.242188 32.042969 " fill-opacity="1" fill-rule="nonzero"/><path fill="rgb(13.729858%, 12.159729%, 12.548828%)" d="M 82.277344 36.1875 L 82.042969 35.984375 L 82.210938 36.15625 Z M 82.277344 36.1875 " fill-opacity="1" fill-rule="nonzero"/><g clip-path="url(#id22)"><path fill="rgb(14.509583%, 13.729858%, 12.939453%)" d="M 73.597656 69.5625 C 73.648438 69.804688 73.671875 70.058594 73.671875 70.3125 C 73.671875 70.492188 73.660156 70.664062 73.636719 70.835938 C 73.523438 71.683594 73.140625 72.449219 72.574219 73.039062 C 72.570312 73.042969 72.5625 73.046875 72.558594 73.050781 L 71.570312 73.609375 L 71.113281 73.867188 L 70.617188 74.148438 L 69.003906 75.058594 L 65.699219 76.925781 L 64.226562 77.757812 L 55.367188 82.761719 L 53.953125 83.558594 C 53.902344 83.589844 53.84375 83.550781 53.84375 83.496094 L 53.84375 80.765625 C 53.84375 80.738281 53.859375 80.714844 53.882812 80.703125 L 55.367188 79.863281 L 64.226562 74.859375 L 65.699219 74.023438 L 66.4375 73.609375 L 67.097656 73.234375 L 69.003906 72.15625 L 71.074219 70.988281 C 71.605469 70.5625 71.605469 69.824219 71.074219 69.390625 L 69.132812 68.292969 C 69.109375 68.28125 69.082031 68.28125 69.058594 68.292969 L 65.804688 70.132812 L 65.699219 70.191406 L 65.609375 70.242188 L 64.222656 71.023438 L 63.042969 71.691406 L 55.476562 75.964844 C 55.429688 75.992188 55.367188 75.957031 55.367188 75.898438 L 55.367188 73.167969 C 55.367188 73.144531 55.382812 73.117188 55.40625 73.105469 L 60.476562 70.242188 L 63.042969 68.789062 L 64.222656 68.125 L 65.699219 67.289062 L 66.414062 66.886719 C 66.464844 66.859375 66.464844 66.785156 66.414062 66.757812 L 65.699219 66.355469 L 64.222656 65.519531 L 63.828125 65.296875 L 55.367188 60.515625 L 53.84375 59.65625 L 53.820312 59.644531 L 53.691406 59.570312 L 50.941406 58.015625 C 50.921875 58.003906 50.894531 58.003906 50.871094 58.015625 L 48.566406 59.320312 C 47.839844 59.742188 48.234375 60.53125 48.566406 60.609375 L 50.207031 61.539062 L 52.609375 62.894531 L 53.84375 63.589844 L 55.367188 64.453125 L 60.230469 67.199219 C 60.28125 67.230469 60.28125 67.300781 60.230469 67.332031 L 57.816406 68.695312 C 57.792969 68.707031 57.765625 68.707031 57.742188 68.695312 L 55.367188 67.355469 L 53.84375 66.492188 L 49.296875 63.925781 L 48.527344 63.492188 L 47.640625 62.988281 L 46.890625 62.5625 C 46.460938 62.054688 46.160156 61.429688 46.035156 60.75 C 45.996094 60.519531 45.972656 60.28125 45.972656 60.039062 C 45.972656 59.75 46.003906 59.46875 46.0625 59.199219 C 46.230469 58.421875 46.632812 57.734375 47.183594 57.203125 L 48.039062 56.71875 L 48.230469 56.613281 C 48.277344 56.585938 48.277344 56.511719 48.230469 56.484375 L 46.8125 55.683594 L 46.808594 55.679688 C 46.441406 55.210938 46.179688 54.660156 46.054688 54.054688 C 46 53.796875 45.972656 53.527344 45.972656 53.253906 C 45.972656 52.949219 46.007812 52.652344 46.074219 52.363281 C 46.226562 51.710938 46.542969 51.117188 46.976562 50.632812 L 48.039062 50.03125 L 48.53125 49.753906 L 49.175781 49.390625 L 50.605469 48.582031 L 53.84375 46.753906 L 55.371094 45.890625 L 64.226562 40.886719 L 65.589844 40.117188 C 65.640625 40.089844 65.699219 40.125 65.699219 40.179688 L 65.699219 42.910156 C 65.699219 42.9375 65.6875 42.960938 65.664062 42.976562 L 64.226562 43.789062 L 55.367188 48.789062 L 53.84375 49.652344 L 53.171875 50.03125 L 52.578125 50.367188 L 50.605469 51.484375 L 48.566406 52.632812 C 47.988281 53.109375 48.433594 53.699219 48.566406 53.773438 L 50.871094 55.078125 C 50.894531 55.089844 50.921875 55.089844 50.945312 55.078125 L 53.839844 53.441406 L 53.84375 53.4375 L 53.953125 53.375 L 55.367188 52.578125 L 56.519531 51.925781 L 64.113281 47.636719 C 64.164062 47.609375 64.226562 47.644531 64.226562 47.699219 L 64.226562 50.429688 C 64.226562 50.457031 64.210938 50.484375 64.1875 50.496094 L 59.089844 53.375 L 56.519531 54.828125 L 55.367188 55.476562 L 53.84375 56.339844 L 53.589844 56.484375 C 53.539062 56.511719 53.539062 56.582031 53.589844 56.613281 L 53.84375 56.753906 L 55.367188 57.617188 L 56.257812 58.121094 L 64.222656 62.621094 L 65.699219 63.453125 L 65.800781 63.511719 L 66.398438 63.847656 L 69.058594 65.351562 C 69.082031 65.363281 69.109375 65.363281 69.132812 65.351562 L 71.074219 64.253906 C 71.410156 64.023438 71.554688 63.433594 71.074219 63.050781 L 69.445312 62.128906 L 66.972656 60.730469 L 65.699219 60.011719 L 64.222656 59.179688 L 59.417969 56.464844 C 59.367188 56.4375 59.367188 56.363281 59.417969 56.335938 L 61.835938 54.972656 C 61.859375 54.957031 61.886719 54.957031 61.910156 54.972656 L 64.226562 56.277344 L 65.699219 57.113281 L 70.136719 59.617188 L 70.136719 59.621094 L 71.113281 60.171875 L 72.011719 60.679688 L 72.871094 61.164062 C 72.878906 61.171875 72.886719 61.175781 72.894531 61.1875 C 73.25 61.660156 73.496094 62.21875 73.609375 62.824219 C 73.648438 63.054688 73.671875 63.292969 73.671875 63.53125 C 73.671875 63.851562 73.632812 64.160156 73.5625 64.457031 C 73.382812 65.203125 72.992188 65.863281 72.453125 66.378906 C 72.25 66.570312 72.023438 66.746094 71.78125 66.894531 C 71.765625 66.902344 71.746094 66.914062 71.726562 66.925781 C 72.683594 67.484375 73.382812 68.4375 73.597656 69.5625 Z M 73.597656 69.5625 " fill-opacity="1" fill-rule="nonzero"/></g></svg>