<svg xmlns="http://www.w3.org/2000/svg" xmlns:xlink="http://www.w3.org/1999/xlink" width="512" zoomAndPan="magnify" viewBox="0 0 384 383.999986" height="512" preserveAspectRatio="xMidYMid meet" version="1.0"><path fill="rgb(100%, 53.729248%, 38.42926%)" d="M 81.804688 345.832031 C 84.742188 346.742188 88.757812 347.640625 89.40625 347.730469 C 93.941406 348.363281 98.429688 347.339844 102.964844 347.414062 C 109.113281 347.515625 139.980469 348.367188 149.257812 348.664062 C 157.851562 348.9375 248.773438 350.472656 258.339844 350.898438 C 266.136719 351.25 274.25 352.480469 281.988281 352.429688 C 284.5625 352.414062 293.695312 354.539062 295.5625 352.472656 C 299.480469 348.160156 296.414062 323.972656 296.53125 317.855469 C 296.605469 314.046875 296.515625 275.597656 296.878906 275.339844 C 291.726562 278.996094 281.980469 277.183594 276.140625 277.183594 C 268.628906 277.183594 261.296875 276.558594 253.757812 276.558594 C 219.472656 276.558594 185.132812 275.710938 150.9375 275.5 C 126.839844 275.351562 102.738281 275.375 78.644531 275.5 L 78.644531 344.335938 C 78.644531 344.71875 80.023438 345.277344 81.804688 345.832031 Z M 81.804688 345.832031 " fill-opacity="1" fill-rule="evenodd"/><path fill="rgb(100%, 53.729248%, 38.42926%)" d="M 230.195312 142.371094 C 234.003906 154.722656 236.605469 176.988281 237.894531 188.875 C 239.824219 206.625 243.003906 260.894531 244.839844 264.035156 C 247.691406 268.894531 301.828125 262.582031 301.769531 264.824219 C 301.78125 264.359375 301.785156 263.894531 301.796875 263.429688 C 302.730469 188.585938 309.300781 77.292969 240.90625 28.628906 C 213 8.773438 173.746094 9.699219 145.453125 27.351562 C 121.253906 42.449219 94.667969 72.894531 88.460938 102.824219 C 81.40625 136.847656 75.980469 228.402344 75.777344 242.441406 C 75.699219 247.53125 74.269531 255.292969 75.710938 260.25 C 76.613281 263.339844 143.203125 265.4375 143.519531 262.90625 C 145.457031 247.4375 145.808594 231.617188 146.9375 216.066406 C 148.5625 193.839844 151.910156 152.539062 160.917969 131.8125 C 165.707031 120.804688 171.261719 107.390625 182.976562 103.273438 C 195.589844 98.84375 207.632812 101.4375 216.535156 112.269531 C 221.597656 118.433594 227.761719 134.46875 230.195312 142.371094 Z M 230.195312 142.371094 " fill-opacity="1" fill-rule="nonzero"/><path fill="rgb(100%, 53.729248%, 38.42926%)" d="M 167.789062 233.796875 C 165.472656 225.753906 162.382812 218.675781 161.574219 210.664062 C 160.984375 204.878906 161.820312 200.375 164.863281 195.777344 C 169.253906 189.140625 175.234375 184.332031 182.457031 179.714844 C 186.0625 179.714844 190.214844 179.925781 194.339844 179.671875 C 203.726562 179.09375 210.914062 183.714844 217.742188 189.253906 C 223.71875 194.105469 224.273438 201.394531 225.988281 208.144531 C 226.082031 208.507812 226.136719 209.03125 225.945312 209.296875 C 222.503906 214.21875 222.894531 220.746094 220.007812 225.980469 C 217.164062 231.132812 207.171875 239.003906 201.699219 241.347656 C 191.261719 245.824219 179.203125 241.675781 170.519531 235.457031 C 169.855469 234.980469 169.125 234.605469 167.789062 233.796875 Z M 167.789062 233.796875 " fill-opacity="1" fill-rule="evenodd"/><path fill="rgb(14.509583%, 13.729858%, 12.939453%)" d="M 81.804688 356.285156 C 84.742188 357.195312 88.757812 358.09375 89.40625 358.183594 C 93.941406 358.816406 98.429688 357.792969 102.964844 357.867188 C 109.113281 357.964844 139.980469 358.820312 149.257812 359.117188 C 157.851562 359.390625 248.773438 360.925781 258.339844 361.351562 C 266.136719 361.703125 274.25 362.933594 281.988281 362.882812 C 284.5625 362.867188 293.695312 364.988281 295.5625 362.925781 C 299.480469 358.613281 296.414062 334.425781 296.53125 328.308594 C 296.605469 324.5 296.515625 286.050781 296.878906 285.792969 C 291.726562 289.449219 281.980469 287.636719 276.140625 287.636719 C 268.628906 287.636719 261.296875 287.011719 253.757812 287.011719 C 219.472656 287.011719 185.132812 286.164062 150.9375 285.953125 C 126.839844 285.804688 102.738281 285.828125 78.644531 285.953125 L 78.644531 354.785156 C 78.644531 355.171875 80.023438 355.730469 81.804688 356.285156 Z M 81.804688 356.285156 " fill-opacity="1" fill-rule="evenodd"/><path fill="rgb(14.509583%, 13.729858%, 12.939453%)" d="M 230.195312 152.824219 C 234.003906 165.175781 236.605469 187.441406 237.894531 199.324219 C 239.824219 217.078125 243.003906 271.347656 244.839844 274.488281 C 247.691406 279.347656 301.828125 273.035156 301.769531 275.277344 C 301.78125 274.8125 301.785156 274.347656 301.796875 273.882812 C 302.730469 199.039062 309.300781 87.746094 240.90625 39.082031 C 213 19.226562 173.746094 20.152344 145.453125 37.804688 C 121.253906 52.902344 94.667969 83.347656 88.460938 113.277344 C 81.40625 147.300781 75.980469 238.855469 75.777344 252.890625 C 75.699219 257.984375 74.269531 265.746094 75.710938 270.703125 C 76.613281 273.792969 143.203125 275.890625 143.519531 273.359375 C 145.457031 257.890625 145.808594 242.070312 146.9375 226.515625 C 148.5625 204.292969 151.910156 162.992188 160.917969 142.265625 C 165.707031 131.257812 171.261719 117.84375 182.976562 113.726562 C 195.589844 109.296875 207.632812 111.886719 216.535156 122.722656 C 221.597656 128.886719 227.761719 144.921875 230.195312 152.824219 Z M 230.195312 152.824219 " fill-opacity="1" fill-rule="nonzero"/><path fill="rgb(14.509583%, 13.729858%, 12.939453%)" d="M 167.789062 244.25 C 165.472656 236.207031 162.382812 229.128906 161.574219 221.117188 C 160.984375 215.332031 161.820312 210.828125 164.863281 206.230469 C 169.253906 199.59375 175.234375 194.785156 182.457031 190.167969 C 186.0625 190.167969 190.214844 190.378906 194.339844 190.125 C 203.726562 189.546875 210.914062 194.167969 217.742188 199.707031 C 223.71875 204.558594 224.273438 211.847656 225.988281 218.597656 C 226.082031 218.960938 226.136719 219.484375 225.945312 219.75 C 222.503906 224.671875 222.894531 231.199219 220.007812 236.433594 C 217.164062 241.585938 207.171875 249.457031 201.699219 251.800781 C 191.261719 256.277344 179.203125 252.128906 170.519531 245.910156 C 169.855469 245.433594 169.125 245.058594 167.789062 244.25 Z M 167.789062 244.25 " fill-opacity="1" fill-rule="evenodd"/></svg>