<svg xmlns="http://www.w3.org/2000/svg" xmlns:xlink="http://www.w3.org/1999/xlink" width="154" zoomAndPan="magnify" viewBox="0 0 115.5 115.499996" height="154" preserveAspectRatio="xMidYMid meet" version="1.0"><defs><clipPath id="id1"><path d="M 0 0 L 115.003906 0 L 115.003906 115.003906 L 0 115.003906 Z M 0 0 " clip-rule="nonzero"/></clipPath><clipPath id="id2"><path d="M 1.527344 7.457031 L 112 7.457031 L 112 112 L 1.527344 112 Z M 1.527344 7.457031 " clip-rule="nonzero"/></clipPath></defs><g clip-path="url(#id1)"><path fill="rgb(100%, 100%, 100%)" d="M 0 0 L 115.5 0 L 115.5 123 L 0 123 Z M 0 0 " fill-opacity="1" fill-rule="nonzero"/><path fill="rgb(100%, 100%, 100%)" d="M 0 0 L 115.5 0 L 115.5 115.5 L 0 115.5 Z M 0 0 " fill-opacity="1" fill-rule="nonzero"/><path fill="rgb(100%, 100%, 100%)" d="M 0 0 L 115.5 0 L 115.5 115.5 L 0 115.5 Z M 0 0 " fill-opacity="1" fill-rule="nonzero"/><path fill="rgb(100%, 100%, 100%)" d="M 0 0 L 115.5 0 L 115.5 115.5 L 0 115.5 Z M 0 0 " fill-opacity="1" fill-rule="nonzero"/></g><path fill="rgb(82.749939%, 98.429871%, 84.709167%)" d="M 96.355469 81.5 C 95.625 75.855469 92.425781 71.109375 87.609375 68.082031 C 82.5 64.875 76.292969 62.621094 70.195312 62.785156 C 64.300781 62.941406 59.164062 65.695312 55.375 70.152344 C 51.75 74.421875 49.203125 80.246094 51.332031 85.785156 C 51.484375 86.132812 51.472656 86.472656 51.300781 86.808594 C 51.503906 87.90625 51.800781 88.984375 52.1875 90.035156 C 53.261719 92.886719 54.722656 95.527344 56.570312 97.953125 C 57.453125 95.675781 59.859375 94.949219 62.105469 94.796875 C 63.355469 94.710938 64.609375 94.726562 65.859375 94.640625 C 66.855469 94.570312 68.0625 94.515625 68.90625 93.910156 C 71.289062 92.210938 70.027344 88.875 69.164062 86.722656 C 68.089844 84.050781 66.832031 81.269531 67.382812 78.332031 C 68.214844 73.871094 72.429688 70.792969 76.921875 70.972656 C 81.71875 71.164062 85.644531 75.636719 85.011719 80.480469 C 84.726562 82.664062 83.53125 84.480469 82.421875 86.320312 C 81.394531 88.019531 79.929688 90.496094 80.832031 92.542969 C 81.199219 93.382812 82.355469 93.363281 83.132812 93.511719 C 84.390625 93.703125 85.542969 94.164062 86.582031 94.898438 C 88.609375 96.402344 89.703125 98.613281 90.421875 100.949219 C 94.859375 95.527344 97.242188 88.25 96.355469 81.5 Z M 96.355469 81.5 " fill-opacity="1" fill-rule="nonzero"/><path fill="rgb(100%, 100%, 100%)" d="M 41.457031 56.839844 C 41.832031 55.683594 40.875 54.925781 39.953125 54.34375 C 38.589844 53.496094 37.121094 52.847656 35.683594 52.160156 C 33.976562 51.335938 32.070312 50.320312 31.078125 48.613281 C 29.695312 46.25 30.203125 43.695312 31.175781 41.273438 C 32.144531 38.851562 33.332031 36.660156 33.660156 34.0625 C 33.953125 31.773438 33.785156 29.300781 32.859375 27.15625 C 31.9375 25.011719 30.207031 23.488281 27.824219 23.183594 C 25.851562 22.941406 24.101562 23.847656 23.082031 25.550781 C 21.996094 27.417969 21.429688 29.429688 21.378906 31.589844 C 21.292969 34.503906 22.292969 37.269531 22.855469 40.109375 C 22.917969 40.265625 22.949219 40.429688 22.945312 40.597656 C 22.976562 40.753906 22.976562 40.910156 22.945312 41.066406 C 22.972656 43.324219 23.046875 45.539062 21.832031 47.558594 C 20.972656 48.980469 19.730469 49.875 18.246094 50.566406 C 15.953125 51.636719 12.367188 52.339844 12.722656 55.527344 C 12.738281 55.65625 12.738281 55.789062 12.722656 55.917969 C 13.0625 56.160156 13.40625 56.402344 13.761719 56.613281 C 21.9375 61.710938 33.316406 63.007812 41.902344 58.113281 C 41.679688 57.984375 41.527344 57.800781 41.441406 57.558594 C 41.359375 57.316406 41.363281 57.078125 41.457031 56.839844 Z M 41.457031 56.839844 " fill-opacity="1" fill-rule="nonzero"/><path fill="rgb(82.749939%, 98.429871%, 84.709167%)" d="M 52.121094 38.410156 C 51.609375 30.308594 47.40625 22.550781 40.621094 17.984375 C 31.148438 11.601562 17.582031 12.242188 8.839844 19.605469 C 5.039062 25.75 3.972656 33.605469 4.703125 40.6875 C 5.03125 43.882812 5.660156 47.304688 7.316406 50.109375 C 8.109375 51.441406 9.050781 52.65625 10.140625 53.753906 C 10.714844 51.324219 12.949219 49.917969 15.410156 48.898438 C 16.539062 48.421875 18.039062 47.992188 18.878906 47.046875 C 20.5 45.234375 20.273438 43.082031 20.261719 40.816406 C 19.84375 38.472656 18.957031 36.171875 18.746094 33.792969 C 18.621094 32.394531 18.667969 31 18.882812 29.613281 C 19.316406 26.867188 20.34375 24.042969 22.5 22.171875 C 26.125 19.015625 32.066406 20.566406 34.46875 24.488281 C 36.992188 28.613281 37.011719 34.113281 35.253906 38.523438 C 34.371094 40.734375 32.558594 43.40625 32.882812 45.890625 C 33.125 47.851562 35.046875 48.882812 36.652344 49.660156 C 39.273438 50.925781 44.652344 52.878906 44.261719 56.535156 C 49.773438 52.257812 52.566406 45.476562 52.121094 38.410156 Z M 52.121094 38.410156 " fill-opacity="1" fill-rule="nonzero"/><path fill="rgb(100%, 100%, 100%)" d="M 87.753906 101.363281 C 87.082031 99.28125 86.007812 97.148438 83.882812 96.417969 C 82.136719 95.8125 79.730469 96.074219 78.683594 94.191406 C 76.261719 89.847656 79.941406 85.957031 81.6875 82.234375 C 82.691406 80.105469 82.546875 77.914062 81.164062 75.945312 C 80.597656 75.136719 79.863281 74.527344 78.960938 74.117188 C 78.0625 73.703125 77.121094 73.542969 76.136719 73.636719 C 74.144531 73.800781 72.210938 74.71875 71.023438 76.359375 C 69.597656 78.324219 69.757812 80.6875 70.539062 82.875 C 71.378906 85.261719 72.726562 87.640625 72.929688 90.207031 C 73.109375 92.5625 72.199219 95.144531 70.027344 96.339844 C 68.105469 97.40625 65.769531 97.3125 63.640625 97.386719 C 61.96875 97.445312 59.632812 97.34375 58.945312 99.199219 C 58.824219 99.585938 58.566406 99.828125 58.175781 99.929688 C 59.984375 102.011719 62.007812 103.863281 64.242188 105.484375 C 68.792969 108.777344 74.542969 110.097656 79.96875 108.3125 C 83.054688 107.273438 85.773438 105.632812 88.128906 103.386719 C 87.394531 102.949219 87.332031 101.964844 87.753906 101.363281 Z M 87.753906 101.363281 " fill-opacity="1" fill-rule="nonzero"/><path fill="rgb(100%, 100%, 100%)" d="M 99.144531 43.734375 C 99.449219 41.996094 98.6875 40.707031 97.425781 39.566406 C 96.003906 38.28125 94.132812 37.140625 93.21875 35.390625 C 91.820312 32.71875 93.054688 30.550781 94.636719 28.285156 C 95.59375 26.917969 96.179688 25.371094 95.71875 23.671875 C 95.382812 22.433594 94.800781 21.179688 93.816406 20.320312 C 92.378906 19.0625 90.375 18.585938 88.601562 19.4375 C 86.652344 20.375 85.730469 22.757812 86.144531 24.808594 C 86.59375 26.992188 88.105469 28.839844 88.429688 31.078125 C 88.804688 33.660156 87.253906 35.8125 85.199219 37.230469 C 83.355469 38.5 80.65625 39.53125 80.246094 41.980469 C 81.910156 43.144531 83.710938 44.046875 85.640625 44.691406 C 87.566406 45.335938 89.550781 45.695312 91.582031 45.765625 C 94.21875 45.878906 96.769531 45.460938 99.234375 44.515625 C 99.121094 44.265625 99.089844 44.003906 99.144531 43.734375 Z M 99.144531 43.734375 " fill-opacity="1" fill-rule="nonzero"/><path fill="rgb(82.749939%, 98.429871%, 84.709167%)" d="M 105.046875 17.183594 C 101.46875 12.640625 95.25 10.011719 89.488281 10.15625 C 86.679688 10.222656 83.746094 10.941406 81.621094 12.882812 C 79.914062 14.472656 78.410156 16.234375 77.113281 18.171875 C 74.773438 21.609375 71.464844 27.398438 73.816406 31.585938 C 73.902344 31.738281 73.957031 31.898438 73.984375 32.066406 C 74.007812 32.238281 74.003906 32.40625 73.964844 32.574219 C 73.925781 32.742188 73.859375 32.898438 73.765625 33.042969 C 73.667969 33.183594 73.550781 33.304688 73.410156 33.40625 C 73.445312 33.503906 73.480469 33.601562 73.519531 33.695312 C 74.527344 36.183594 76.015625 38.335938 77.988281 40.160156 C 78.691406 38.492188 80.128906 37.289062 81.699219 36.296875 C 83.160156 35.378906 85.898438 34.070312 85.820312 31.996094 C 85.738281 29.8125 84.167969 27.984375 83.664062 25.902344 C 83.082031 23.472656 83.4375 20.898438 85.0625 18.929688 C 88.023438 15.351562 93.464844 15.664062 96.367188 19.144531 C 98.265625 21.425781 99.253906 25.003906 98 27.832031 C 97.167969 29.71875 94.132812 32.101562 95.660156 34.265625 C 96.777344 35.855469 98.582031 36.804688 99.871094 38.230469 C 101.160156 39.660156 101.914062 41.28125 101.875 43.140625 C 101.933594 43.101562 101.988281 43.066406 102.042969 43.03125 C 105.402344 40.738281 107.597656 37.171875 108.425781 33.21875 C 109.582031 27.695312 108.59375 21.6875 105.046875 17.183594 Z M 105.046875 17.183594 " fill-opacity="1" fill-rule="nonzero"/><g clip-path="url(#id2)"><path fill="rgb(14.509583%, 13.729858%, 12.939453%)" d="M 105.484375 13.667969 C 101.390625 9.507812 95.035156 7.464844 89.28125 7.492188 C 86.242188 7.496094 83.460938 8.34375 80.941406 10.035156 C 79.082031 11.296875 77.554688 13.144531 76.191406 14.90625 C 73.257812 18.695312 69.933594 24.28125 70.449219 29.410156 C 70.226562 29.523438 70.066406 29.695312 69.964844 29.921875 C 69.867188 30.148438 69.847656 30.382812 69.910156 30.625 C 70.003906 31.128906 70.109375 31.625 70.234375 32.113281 C 67.800781 31.914062 65.28125 32.695312 62.976562 33.355469 C 60.183594 34.15625 57.4375 35.097656 54.738281 36.175781 C 54.691406 36.195312 54.644531 36.214844 54.597656 36.238281 C 54.1875 33.082031 53.296875 30.066406 51.921875 27.191406 C 51.136719 25.546875 50.199219 23.992188 49.113281 22.523438 C 48.027344 21.054688 46.8125 19.703125 45.46875 18.46875 C 44.125 17.230469 42.675781 16.132812 41.121094 15.171875 C 39.566406 14.210938 37.9375 13.40625 36.226562 12.757812 C 26.78125 9.164062 15.121094 10.839844 7.347656 17.371094 C 7.210938 17.484375 7.101562 17.621094 7.011719 17.777344 C 6.8125 17.894531 6.648438 18.050781 6.527344 18.246094 C 3.433594 23.179688 2.207031 29.078125 1.902344 34.820312 C 1.605469 40.269531 2.265625 46.171875 4.824219 51.066406 C 9.613281 60.242188 21.632812 64.226562 31.402344 63.777344 C 34.984375 63.617188 38.390625 62.765625 41.625 61.21875 C 41.527344 61.339844 41.460938 61.476562 41.425781 61.625 C 41.386719 61.773438 41.382812 61.925781 41.410156 62.078125 C 41.4375 62.230469 41.492188 62.371094 41.578125 62.496094 C 41.664062 62.625 41.773438 62.730469 41.90625 62.8125 C 44.03125 64.328125 46.152344 65.839844 48.199219 67.457031 C 49 68.085938 49.800781 68.714844 50.550781 69.398438 C 50.925781 69.773438 51.339844 70.105469 51.785156 70.390625 C 48.710938 74.761719 46.976562 80.203125 48.414062 85.375 C 49.128906 91.957031 52.6875 97.78125 57.089844 102.589844 C 61.144531 107.019531 66.242188 110.765625 72.328125 111.601562 C 84.011719 113.203125 93.929688 103.742188 97.554688 93.429688 C 99.394531 88.199219 99.820312 82.503906 98.152344 77.164062 C 96.417969 71.621094 92.273438 67.585938 87.332031 64.765625 C 87.203125 64.691406 87.074219 64.621094 86.945312 64.550781 C 88.574219 59.242188 91.460938 54.183594 91.929688 48.578125 C 91.933594 48.523438 91.933594 48.464844 91.929688 48.410156 C 97.585938 48.511719 103.238281 46.511719 107.023438 42.128906 C 113.925781 34.140625 112.722656 21.015625 105.484375 13.667969 Z M 13.738281 56.636719 C 13.382812 56.414062 13.035156 56.183594 12.695312 55.941406 C 12.714844 55.808594 12.714844 55.679688 12.695312 55.546875 C 12.34375 52.363281 15.925781 51.664062 18.21875 50.589844 C 19.703125 49.898438 20.945312 49.003906 21.804688 47.578125 C 23.023438 45.5625 22.945312 43.34375 22.921875 41.085938 C 22.949219 40.929688 22.949219 40.773438 22.921875 40.617188 C 22.921875 40.449219 22.890625 40.289062 22.828125 40.132812 C 22.265625 37.292969 21.265625 34.535156 21.351562 31.613281 C 21.402344 29.453125 21.96875 27.441406 23.054688 25.570312 C 24.074219 23.871094 25.824219 22.953125 27.796875 23.203125 C 30.191406 23.511719 31.90625 25.003906 32.839844 27.175781 C 33.777344 29.34375 33.933594 31.785156 33.640625 34.082031 C 33.3125 36.671875 32.113281 38.898438 31.15625 41.289062 C 30.195312 43.683594 29.675781 46.269531 31.058594 48.632812 C 32.050781 50.332031 33.953125 51.351562 35.664062 52.175781 C 37.105469 52.871094 38.570312 53.515625 39.933594 54.363281 C 40.855469 54.941406 41.8125 55.699219 41.4375 56.855469 C 41.339844 57.09375 41.328125 57.332031 41.410156 57.574219 C 41.488281 57.820312 41.636719 58.007812 41.855469 58.140625 C 33.289062 63.019531 21.914062 61.726562 13.738281 56.625 Z M 36.652344 49.667969 C 35.042969 48.890625 33.136719 47.859375 32.878906 45.898438 C 32.558594 43.414062 34.367188 40.742188 35.25 38.53125 C 37.007812 34.121094 36.992188 28.609375 34.46875 24.492188 C 32.066406 20.574219 26.121094 19.023438 22.5 22.179688 C 20.351562 24.039062 19.304688 26.859375 18.878906 29.621094 C 18.664062 31.007812 18.617188 32.402344 18.742188 33.800781 C 18.953125 36.179688 19.839844 38.480469 20.257812 40.824219 C 20.273438 43.085938 20.5 45.242188 18.878906 47.054688 C 18.035156 48 16.539062 48.429688 15.40625 48.902344 C 12.945312 49.929688 10.714844 51.332031 10.140625 53.757812 C 9.046875 52.660156 8.105469 51.449219 7.316406 50.117188 C 5.65625 47.3125 5.03125 43.886719 4.699219 40.695312 C 3.96875 33.613281 5.039062 25.757812 8.824219 19.617188 C 17.574219 12.257812 31.136719 11.609375 40.609375 17.996094 C 47.394531 22.5625 51.601562 30.324219 52.109375 38.421875 C 52.554688 45.492188 49.765625 52.261719 44.25 56.546875 C 44.652344 52.875 39.265625 50.921875 36.652344 49.65625 Z M 79.960938 108.320312 C 74.535156 110.089844 68.785156 108.78125 64.234375 105.488281 C 62 103.867188 59.976562 102.015625 58.167969 99.933594 C 58.5625 99.835938 58.816406 99.59375 58.9375 99.207031 C 59.625 97.347656 61.960938 97.449219 63.636719 97.390625 C 65.761719 97.316406 68.097656 97.410156 70.019531 96.347656 C 72.1875 95.148438 73.101562 92.566406 72.921875 90.214844 C 72.722656 87.644531 71.371094 85.269531 70.53125 82.878906 C 69.757812 80.695312 69.597656 78.332031 71.015625 76.363281 C 72.207031 74.726562 74.136719 73.804688 76.128906 73.640625 C 77.113281 73.546875 78.054688 73.707031 78.957031 74.121094 C 79.855469 74.53125 80.589844 75.144531 81.15625 75.949219 C 82.539062 77.917969 82.683594 80.109375 81.679688 82.242188 C 79.941406 85.957031 76.261719 89.847656 78.683594 94.199219 C 79.730469 96.078125 82.136719 95.820312 83.882812 96.421875 C 86.007812 97.148438 87.082031 99.285156 87.753906 101.367188 C 87.332031 101.960938 87.394531 102.953125 88.121094 103.398438 C 85.765625 105.640625 83.046875 107.28125 79.960938 108.320312 Z M 87.609375 68.082031 C 92.425781 71.109375 95.617188 75.851562 96.355469 81.5 C 97.242188 88.25 94.859375 95.527344 90.417969 100.9375 C 89.6875 98.601562 88.601562 96.390625 86.578125 94.886719 C 85.539062 94.152344 84.386719 93.691406 83.125 93.5 C 82.351562 93.359375 81.195312 93.375 80.828125 92.53125 C 79.921875 90.484375 81.390625 88.007812 82.417969 86.308594 C 83.527344 84.46875 84.722656 82.648438 85.007812 80.464844 C 85.640625 75.625 81.710938 71.152344 76.914062 70.960938 C 72.425781 70.78125 68.207031 73.859375 67.375 78.316406 C 66.828125 81.253906 68.085938 84.046875 69.15625 86.710938 C 70.023438 88.863281 71.28125 92.191406 68.898438 93.898438 C 68.058594 94.5 66.851562 94.554688 65.855469 94.628906 C 64.605469 94.714844 63.351562 94.699219 62.101562 94.785156 C 59.855469 94.945312 57.449219 95.671875 56.5625 97.941406 C 54.71875 95.511719 53.257812 92.875 52.183594 90.023438 C 51.796875 88.972656 51.5 87.894531 51.292969 86.796875 C 51.46875 86.460938 51.480469 86.121094 51.328125 85.773438 C 49.199219 80.234375 51.746094 74.410156 55.371094 70.140625 C 59.160156 65.675781 64.296875 62.929688 70.191406 62.769531 C 76.292969 62.621094 82.507812 64.875 87.609375 68.082031 Z M 84.78125 62.589844 C 84.53125 62.742188 84.351562 62.957031 84.246094 63.230469 C 79.675781 61.160156 74.609375 60 69.625 60.128906 C 63.785156 60.285156 58.617188 63.023438 54.554688 67.09375 C 54.191406 67.457031 53.835938 67.835938 53.496094 68.226562 C 53.414062 68.199219 53.332031 68.179688 53.25 68.164062 C 52.765625 68.089844 52.140625 67.265625 51.777344 66.9375 C 50.984375 66.207031 50.097656 65.578125 49.253906 64.921875 C 47.429688 63.5 45.539062 62.167969 43.65625 60.828125 C 43.433594 60.664062 43.1875 60.574219 42.910156 60.558594 C 47.027344 58.28125 50.457031 54.863281 52.546875 50.492188 C 54.273438 46.765625 55.03125 42.851562 54.820312 38.753906 C 55.097656 38.828125 55.367188 38.804688 55.628906 38.691406 C 58.019531 37.742188 60.445312 36.894531 62.910156 36.152344 C 65.023438 35.503906 67.652344 34.511719 69.898438 34.738281 C 70.3125 34.789062 70.671875 34.671875 70.976562 34.390625 C 73.457031 40.789062 78.996094 45.453125 85.722656 47.476562 C 86.886719 47.824219 88.070312 48.082031 89.273438 48.242188 C 88.808594 53.253906 86.425781 57.859375 84.78125 62.589844 Z M 91.578125 45.765625 C 89.542969 45.695312 87.5625 45.335938 85.632812 44.691406 C 83.703125 44.046875 81.90625 43.144531 80.238281 41.980469 C 80.652344 39.53125 83.351562 38.5 85.195312 37.230469 C 87.25 35.8125 88.800781 33.660156 88.425781 31.078125 C 88.101562 28.839844 86.589844 27.003906 86.140625 24.808594 C 85.722656 22.757812 86.644531 20.375 88.597656 19.4375 C 90.371094 18.585938 92.375 19.0625 93.808594 20.320312 C 94.796875 21.179688 95.378906 22.433594 95.714844 23.671875 C 96.171875 25.371094 95.589844 26.917969 94.632812 28.285156 C 93.050781 30.550781 91.816406 32.71875 93.214844 35.390625 C 94.125 37.132812 96 38.28125 97.421875 39.566406 C 98.683594 40.707031 99.445312 41.996094 99.136719 43.734375 C 99.085938 44.003906 99.113281 44.265625 99.226562 44.515625 C 96.765625 45.460938 94.214844 45.878906 91.578125 45.765625 Z M 102.042969 43.03125 C 101.988281 43.066406 101.933594 43.101562 101.875 43.140625 C 101.914062 41.28125 101.183594 39.683594 99.871094 38.230469 C 98.554688 36.78125 96.777344 35.855469 95.660156 34.265625 C 94.132812 32.101562 97.167969 29.71875 98 27.832031 C 99.253906 25.003906 98.265625 21.425781 96.367188 19.144531 C 93.464844 15.664062 88.023438 15.351562 85.0625 18.929688 C 83.4375 20.898438 83.082031 23.484375 83.664062 25.902344 C 84.167969 27.984375 85.738281 29.824219 85.820312 31.996094 C 85.898438 34.070312 83.160156 35.378906 81.699219 36.296875 C 80.128906 37.289062 78.691406 38.480469 77.988281 40.160156 C 76.015625 38.335938 74.527344 36.183594 73.519531 33.695312 C 73.480469 33.601562 73.445312 33.503906 73.410156 33.40625 C 73.550781 33.308594 73.671875 33.1875 73.769531 33.042969 C 73.867188 32.902344 73.933594 32.746094 73.972656 32.578125 C 74.011719 32.410156 74.019531 32.238281 73.992188 32.070312 C 73.96875 31.898438 73.914062 31.738281 73.828125 31.585938 C 71.476562 27.410156 74.785156 21.609375 77.125 18.171875 C 78.417969 16.234375 79.914062 14.472656 81.617188 12.882812 C 83.742188 10.941406 86.671875 10.214844 89.480469 10.15625 C 95.253906 10.011719 101.464844 12.640625 105.042969 17.195312 C 108.589844 21.699219 109.574219 27.707031 108.421875 33.230469 C 107.597656 37.171875 105.402344 40.738281 102.042969 43.03125 Z M 102.042969 43.03125 " fill-opacity="1" fill-rule="nonzero"/></g></svg>